<?xml version="1.0" encoding="UTF-8"?><svg id="Layer_2" xmlns="http://www.w3.org/2000/svg" viewBox="0 0 1418.62 1418.62"><defs><style>.cls-1{fill:#fd6b20;}.cls-2{fill:#fc9c2c;}</style></defs><g id="Layer_1-2"><g><rect class="cls-2" width="1418.62" height="1418.62" transform="translate(1418.62 1418.62) rotate(180)"/><g><path class="cls-1" d="M709.3,709.31s0,0,0,0C465.95,628.87,229.52,543.61,0,453.52v77.57c221.28,62,457.71,121.41,709.3,178.21Z"/><polygon class="cls-1" points="709.29 709.31 709.3 709.31 709.3 709.31 709.3 709.31 709.29 709.31"/><path class="cls-1" d="M709.29,709.31C452.75,675.53,216.32,640.5,0,604.22v70.37c214.01,11.94,450.43,23.51,709.29,34.72Z"/><path class="cls-1" d="M709.31,709.31s0,0,0,0C496.14,580.26,259.7,437.13,0,279.91v90.17c241.97,121.5,478.41,234.59,709.31,339.23Z"/><polygon class="cls-1" points="709.31 709.31 709.31 709.31 709.31 709.31 709.31 709.31 709.31 709.31"/><polygon class="cls-1" points="709.31 709.31 709.31 709.31 709.31 709.31 709.31 709.31 709.31 709.31"/><path class="cls-1" d="M709.29,709.31C450.43,720.52,214.01,732.09,0,744.03v70.37c216.32-36.27,452.75-71.3,709.29-105.09Z"/><path class="cls-1" d="M709.31,709.31s0,0,0,0C493.81,470.4,257.37,242.51,0,25.62V172.4c257.97,184.15,494.41,363.12,709.31,536.91Z"/><path class="cls-1" d="M182.67,0c188.43,208.87,363.98,445.3,526.64,709.31,0,0,0,0,0,0C610.69,434.85,505.64,198.42,394.17,0H182.67Z"/><polygon class="cls-1" points="709.31 709.31 709.31 709.31 709.31 709.31 709.31 709.31 709.31 709.31"/><polygon class="cls-1" points="709.31 709.31 709.31 709.31 709.31 709.31 709.31 709.31"/><polygon class="cls-1" points="709.31 709.31 709.31 709.31 709.31 709.31 709.31 709.31 709.31 709.31"/><polygon class="cls-1" points="709.31 709.31 709.31 709.31 709.31 709.31 709.31 709.31"/><polygon class="cls-1" points="709.31 709.31 709.31 709.31 709.31 709.31 709.31 709.31 709.31 709.31"/><path class="cls-1" d="M709.3,709.31s0,0,0,0C457.71,766.12,221.28,825.52,0,887.53v77.57c229.52-90.08,465.95-175.34,709.3-255.79Z"/><path class="cls-1" d="M709.31,709.31s0,0,0,0C478.41,813.95,241.97,927.04,0,1048.54v90.17c259.7-157.22,496.14-300.35,709.31-429.4Z"/><path class="cls-1" d="M709.31,709.31s0,0,0,0c-162.66,264.01-338.21,500.44-526.64,709.31h211.51c111.47-198.42,216.52-434.85,315.14-709.31Z"/><path class="cls-1" d="M709.31,709.31s0,0,0,0C494.41,883.1,257.97,1062.07,0,1246.22v146.79c257.37-216.89,493.81-444.78,709.31-683.69Z"/><polygon class="cls-1" points="709.31 709.31 709.31 709.31 709.31 709.31 709.31 709.31 709.31 709.31"/><polygon class="cls-1" points="709.31 709.31 709.31 709.31 709.31 709.31 709.31 709.31 709.31 709.31"/><polygon class="cls-1" points="709.31 709.31 709.31 709.31 709.31 709.31 709.31 709.31 709.31 709.31"/><polygon class="cls-1" points="709.31 709.31 709.31 709.31 709.31 709.31 709.31 709.31 709.31 709.31"/><polygon class="cls-1" points="709.31 709.31 709.31 709.31 709.31 709.31 709.31 709.31 709.31 709.31"/><polygon class="cls-1" points="709.31 709.31 709.31 709.31 709.31 709.31 709.31 709.31 709.31 709.31"/><polygon class="cls-1" points="709.31 709.31 709.31 709.31 709.31 709.31 709.31 709.31 709.31 709.31"/><polygon class="cls-1" points="709.31 709.31 709.31 709.31 709.31 709.31 709.31 709.31 709.31 709.31"/><polygon class="cls-1" points="709.31 709.31 709.31 709.31 709.3 709.31 709.31 709.31 709.31 709.31"/><polygon class="cls-1" points="709.31 709.31 709.31 709.31 709.31 709.31 709.3 709.31 709.31 709.31"/><polygon class="cls-1" points="709.31 709.31 709.31 709.31 709.31 709.31 709.31 709.31 709.31 709.31"/><polygon class="cls-1" points="709.31 709.31 709.31 709.31 709.31 709.31 709.31 709.31 709.31 709.31"/><polygon class="cls-1" points="709.31 709.31 709.31 709.31 709.31 709.31 709.31 709.31 709.31 709.31"/><polygon class="cls-1" points="709.31 709.31 709.31 709.31 709.31 709.31 709.31 709.31 709.31 709.31"/><polygon class="cls-1" points="709.31 709.31 709.31 709.31 709.31 709.31 709.31 709.31 709.31 709.31"/><polygon class="cls-1" points="709.31 709.31 709.31 709.31 709.31 709.31 709.31 709.31 709.31 709.31"/><polygon class="cls-1" points="709.31 709.31 709.31 709.31 709.31 709.31 709.31 709.31 709.31 709.31"/><polygon class="cls-1" points="709.31 709.31 709.31 709.31 709.31 709.31 709.31 709.31 709.31 709.31"/><polygon class="cls-1" points="709.31 709.31 709.31 709.31 709.31 709.31 709.31 709.31 709.31 709.31"/><path class="cls-1" d="M814.2,0h-209.78c36.89,193.2,71.85,429.64,104.89,709.31h0C742.35,429.64,777.32,193.2,814.2,0Z"/><polygon class="cls-1" points="709.31 709.31 709.31 709.31 709.31 709.31 709.31 709.31 709.31 709.31"/><polygon class="cls-1" points="709.31 709.31 709.31 709.31 709.31 709.31 709.31 709.31 709.31 709.31"/><polygon class="cls-1" points="709.31 709.31 709.31 709.31 709.31 709.31 709.31 709.31"/><polygon class="cls-1" points="709.31 709.31 709.31 709.31 709.31 709.31 709.31 709.31 709.31 709.31"/><polygon class="cls-1" points="709.31 709.31 709.31 709.31 709.31 709.31 709.31 709.31 709.31 709.31"/><polygon class="cls-1" points="709.31 709.31 709.31 709.31 709.31 709.31 709.31 709.31 709.31 709.31"/><path class="cls-1" d="M709.31,709.31s0,0,0,0C871.97,445.3,1047.52,208.87,1235.96,0h-211.51c-111.47,198.42-216.52,434.85-315.14,709.31Z"/><polygon class="cls-1" points="709.31 709.31 709.31 709.31 709.31 709.31 709.31 709.31 709.31 709.31"/><polygon class="cls-1" points="709.31 709.31 709.31 709.31 709.31 709.31 709.31 709.31 709.31 709.31"/><polygon class="cls-1" points="709.31 709.31 709.31 709.31 709.31 709.31 709.31 709.31 709.31 709.31"/><polygon class="cls-1" points="709.31 709.31 709.31 709.31 709.31 709.31 709.31 709.31 709.31 709.31"/><polygon class="cls-1" points="709.31 709.31 709.31 709.31 709.31 709.31 709.31 709.31 709.31 709.31"/><polygon class="cls-1" points="709.31 709.31 709.31 709.31 709.31 709.31 709.31 709.31 709.31 709.31"/><polygon class="cls-1" points="709.33 709.31 709.32 709.31 709.32 709.31 709.32 709.31 709.33 709.31"/><path class="cls-1" d="M709.33,709.31c256.54,33.78,492.97,68.81,709.29,105.09v-70.37c-214.01-11.94-450.43-23.51-709.29-34.72Z"/><path class="cls-1" d="M709.33,709.31c258.86-11.21,495.28-22.78,709.29-34.72v-70.37c-216.32,36.27-452.75,71.3-709.29,105.09Z"/><path class="cls-1" d="M709.32,709.31s0,0,0,0c251.59-56.81,488.02-116.21,709.3-178.21v-77.57c-229.52,90.08-465.95,175.34-709.3,255.79Z"/><path class="cls-1" d="M709.31,709.31s0,0,0,0c98.62,274.46,203.67,510.89,315.14,709.31h211.51c-188.43-208.87-363.98-445.3-526.64-709.31Z"/><path class="cls-1" d="M709.31,709.31s0,0,0,0c230.9-104.64,467.34-217.72,709.31-339.23v-90.17c-259.7,157.22-496.14,300.35-709.31,429.4Z"/><polygon class="cls-1" points="709.31 709.31 709.31 709.31 709.31 709.31 709.31 709.31 709.31 709.31"/><path class="cls-1" d="M709.32,709.31s0,0,0,0c213.16,129.05,449.6,272.18,709.31,429.4v-90.17c-241.97-121.5-478.41-234.59-709.31-339.23Z"/><path class="cls-1" d="M709.31,709.31s0,0,0,0c215.49,238.91,451.93,466.8,709.31,683.69v-146.79c-257.97-184.15-494.41-363.12-709.31-536.91Z"/><path class="cls-1" d="M709.32,709.31s0,0,0,0c243.35,80.44,479.79,165.7,709.3,255.79v-77.57c-221.28-62-457.71-121.41-709.3-178.21Z"/><path class="cls-1" d="M1418.62,25.62c-257.37,216.89-493.81,444.78-709.31,683.69,0,0,0,0,0,0,214.9-173.79,451.34-352.76,709.31-536.91V25.62Z"/><polygon class="cls-1" points="709.31 709.31 709.32 709.31 709.32 709.31 709.32 709.31 709.31 709.31"/><polygon class="cls-1" points="709.31 709.31 709.31 709.31 709.31 709.31 709.31 709.31 709.31 709.31"/><polygon class="cls-1" points="709.31 709.31 709.31 709.31 709.31 709.31 709.31 709.31 709.31 709.31"/><polygon class="cls-1" points="709.31 709.31 709.31 709.31 709.31 709.31 709.31 709.31 709.31 709.31"/><polygon class="cls-1" points="709.32 709.31 709.31 709.31 709.32 709.31 709.32 709.31 709.32 709.31"/><path class="cls-1" d="M709.31,709.31h0c-33.04,279.67-68,516.11-104.89,709.31h209.78c-36.89-193.2-71.85-429.64-104.89-709.31Z"/><polygon class="cls-1" points="709.31 709.31 709.31 709.31 709.31 709.31 709.31 709.31"/><polygon class="cls-1" points="709.31 709.31 709.31 709.31 709.31 709.31 709.31 709.31 709.31 709.31"/><polygon class="cls-1" points="709.31 709.31 709.31 709.31 709.31 709.31 709.31 709.31 709.31 709.31"/><polygon class="cls-1" points="709.31 709.31 709.31 709.31 709.31 709.31 709.31 709.31 709.31 709.31"/><polygon class="cls-1" points="709.31 709.31 709.31 709.31 709.31 709.31 709.31 709.31 709.31 709.31"/><polygon class="cls-1" points="709.31 709.31 709.31 709.31 709.31 709.31 709.31 709.31 709.31 709.31"/><polygon class="cls-1" points="709.31 709.31 709.31 709.31 709.31 709.31 709.31 709.31 709.31 709.31"/><polygon class="cls-1" points="709.31 709.31 709.31 709.31 709.31 709.31 709.31 709.31 709.31 709.31"/><polygon class="cls-1" points="709.31 709.31 709.31 709.31 709.31 709.31 709.31 709.31 709.31 709.31"/><polygon class="cls-1" points="709.31 709.31 709.31 709.31 709.31 709.31 709.31 709.31 709.31 709.31"/><polygon class="cls-1" points="709.31 709.31 709.31 709.31 709.31 709.31 709.31 709.31 709.31 709.31"/><polygon class="cls-1" points="709.31 709.31 709.31 709.31 709.31 709.31 709.31 709.31 709.31 709.31"/><polygon class="cls-1" points="709.31 709.31 709.31 709.31 709.31 709.31 709.31 709.31 709.31 709.31"/></g></g></g></svg>