<?xml version="1.0" encoding="UTF-8"?>
<svg id="Layer_2" data-name="Layer 2" xmlns="http://www.w3.org/2000/svg" viewBox="0 0 164.23 158.48">
  <defs>
    <style>
      .cls-1 {
        fill: #fff;
        stroke-width: 0px;
      }
    </style>
  </defs>
  <g id="Layer_1-2" data-name="Layer 1">
    <g>
      <path class="cls-1" d="m38.92,85.41h-15.26l-1.84,14.54h15.26l1.84-14.54Zm10.04,0l-1.84,14.54h10.45v8.6h-11.47l-2.15,17.1h-10.04l2.15-17.1h-15.26l-2.15,17.1h-10.04l2.15-17.1H0v-8.6h11.78l1.84-14.54H3.07v-8.6h11.57l2.15-17.1h10.04l-2.15,17.1h15.26l2.15-17.1h10.04l-2.15,17.1h10.65v8.6h-11.67Z"/>
      <path class="cls-1" d="m64.74,45.11c5.13-1.35,9.49-3.22,12.9-5.54v86.09h35.31V0h-28c-4.69,10.02-12.34,16.44-23.78,19.56"/>
      <g>
        <path class="cls-1" d="m21.49,134.79v23.18h-6.33v-9.58H6.38v9.58H.04v-23.18h6.33v8.42h8.78v-8.42h6.33Z"/>
        <path class="cls-1" d="m24.16,146.38c0-7.27,4.9-12.09,12.27-12.09s12.2,4.82,12.2,12.09-4.9,12.09-12.2,12.09-12.27-4.82-12.27-12.09Zm18.14.22c0-4.21-2.41-6.98-5.9-6.98s-5.9,2.63-5.9,6.55c0,4.21,2.45,6.98,5.98,6.98s5.83-2.66,5.83-6.55Z"/>
        <path class="cls-1" d="m50.01,152l5.51-1.48c.65,1.87,2.59,3.1,4.93,3.1,2.09,0,3.49-.83,3.49-2.09,0-3.82-13.43-1.3-13.43-9.72,0-4.5,3.78-7.52,9.47-7.52,4.82,0,8.5,2.2,9.72,5.58l-5.33,1.87c-.79-1.62-2.63-2.66-4.75-2.66-1.76,0-2.95.76-2.95,1.87,0,3.63,13.5,1.08,13.5,9.72,0,4.68-3.96,7.81-9.93,7.81-5.36,0-9.32-2.56-10.22-6.48Z"/>
        <path class="cls-1" d="m91.23,142.64c0,4.71-3.56,7.88-8.89,7.88h-3.31v7.45h-6.3v-23.18h9.47c5.44,0,9.04,3.13,9.04,7.85Zm-6.12.22c0-1.8-1.37-3.02-3.42-3.02h-2.66v5.72h3.38c1.62,0,2.7-1.08,2.7-2.7Z"/>
        <path class="cls-1" d="m93.57,134.79h6.33v23.18h-6.33v-23.18Z"/>
        <path class="cls-1" d="m121.79,139.94h-6.7v18.03h-6.33v-18.03h-6.7v-5.15h19.73v5.15Z"/>
        <path class="cls-1" d="m138.13,153.36h-8.57l-1.62,4.61h-6.26l9.03-23.18h6.48l9.04,23.18h-6.48l-1.62-4.61Zm-1.76-4.97l-2.52-7.05-2.52,7.05h5.04Z"/>
        <path class="cls-1" d="m164.23,152.82v5.15h-16.59v-23.18h6.33v18.03h10.26Z"/>
      </g>
    </g>
  </g>
</svg>