<?xml version="1.0" encoding="UTF-8"?>
<svg id="Layer_2" data-name="Layer 2" xmlns="http://www.w3.org/2000/svg" viewBox="0 0 182.05 97.41">
  <defs>
    <style>
      .cls-1 {
        fill: #d2e203;
      }

      .cls-1, .cls-2 {
        stroke-width: 0px;
      }

      .cls-2 {
        fill: #fff;
      }
    </style>
  </defs>
  <g id="Layer_1-2" data-name="Layer 1">
    <g>
      <path class="cls-2" d="m2.27,9.72h6.33v23.18H2.27V9.72Z"/>
      <path class="cls-2" d="m34.09,9.72v23.18h-6.84l-9.07-14.18v14.18h-5.9V9.72h6.84l9.07,14.18v-14.18h5.9Z"/>
      <path class="cls-1" d="m68.95,22.15c0,6.85-5.2,11.45-13.05,11.45-6.85,0-11.6-3.6-12.9-9.15l7.6-1.7c.85,2.4,2.95,3.95,5.5,3.95s4.25-1.7,4.25-4.25-1.95-4.2-4.9-4.2c-2.2,0-4.7.8-6.35,1.95l-4.7-2.95,1.7-16.55h21.15v6.6h-14.3l-.55,5.25c1.35-.75,3.05-1.1,5.1-1.1,6.85,0,11.45,4.3,11.45,10.7Z"/>
      <path class="cls-1" d="m71.8,16.8c0-10.65,5.1-16.8,13.9-16.8s13.9,6.15,13.9,16.8-5.1,16.8-13.9,16.8-13.9-6.15-13.9-16.8Zm19.1.35c0-6.45-2.05-10.25-5.3-10.25s-5.1,3.55-5.1,9.55c0,6.45,2.05,10.25,5.3,10.25s5.1-3.55,5.1-9.55Z"/>
      <path class="cls-2" d="m.97,58.93l5.51-1.47c.65,1.87,2.59,3.1,4.93,3.1,2.09,0,3.49-.83,3.49-2.09,0-3.82-13.43-1.3-13.43-9.72,0-4.5,3.78-7.52,9.47-7.52,4.82,0,8.5,2.2,9.72,5.58l-5.33,1.87c-.79-1.62-2.63-2.66-4.75-2.66-1.76,0-2.95.76-2.95,1.87,0,3.63,13.5,1.08,13.5,9.72,0,4.68-3.96,7.81-9.93,7.81-5.36,0-9.32-2.56-10.22-6.48Z"/>
      <path class="cls-2" d="m42.19,49.57c0,4.71-3.56,7.88-8.89,7.88h-3.31v7.45h-6.3v-23.18h9.47c5.44,0,9.04,3.13,9.04,7.85Zm-6.12.21c0-1.8-1.37-3.02-3.42-3.02h-2.66v5.72h3.38c1.62,0,2.7-1.08,2.7-2.7Z"/>
      <path class="cls-2" d="m62.78,59.86v5.04h-18.25v-23.18h17.49v5.04h-11.19v3.71h8.67v4.82h-8.67v4.57h11.95Z"/>
      <path class="cls-2" d="m64.33,53.31c0-7.27,4.68-12.09,11.7-12.09,5.72,0,9.97,3.09,10.83,7.81l-5.76.97c-.65-2.09-2.63-3.46-5.04-3.46-3.24,0-5.4,2.66-5.4,6.7s2.27,6.77,5.65,6.77c2.48,0,4.46-1.4,4.97-3.53l5.76.97c-.86,4.79-5.22,7.96-11.16,7.96-6.95,0-11.55-4.82-11.55-12.1Z"/>
      <path class="cls-2" d="m89.1,41.72h6.33v23.18h-6.33v-23.18Z"/>
      <path class="cls-2" d="m113.29,60.3h-8.57l-1.62,4.61h-6.26l9.03-23.18h6.48l9.04,23.18h-6.48l-1.62-4.61Zm-1.76-4.97l-2.52-7.05-2.52,7.05h5.04Z"/>
      <path class="cls-2" d="m139.39,59.75v5.15h-16.59v-23.18h6.33v18.03h10.26Z"/>
      <path class="cls-2" d="m159.76,46.87h-6.7v18.04h-6.33v-18.04h-6.7v-5.15h19.73v5.15Z"/>
      <path class="cls-2" d="m174.09,56.41v8.5h-6.33v-8.5l-7.96-14.69h6.55l4.68,9.18,4.68-9.18h6.33l-7.96,14.69Z"/>
      <path class="cls-2" d="m16.45,92.3H7.88l-1.62,4.61H0l9.03-23.18h6.48l9.04,23.18h-6.48l-1.62-4.61Zm-1.76-4.97l-2.52-7.05-2.52,7.05h5.04Z"/>
      <path class="cls-2" d="m46.22,96.9c-.61.14-1.33.21-2.09.21-2.59,0-4.5-.76-5.9-2.34l-4.86-5.54h-1.12v7.67h-6.3v-23.18h9.29c5.33,0,8.85,3.1,8.85,7.78,0,2.95-1.55,5.22-4.14,6.41l2.84,3.17c.54.58,1.12.86,2.02.86.43,0,.86-.04,1.22-.07l.18,5.04Zm-13.97-18.18v5.65h3.13c1.58,0,2.66-1.08,2.66-2.66,0-1.8-1.3-2.99-3.24-2.99h-2.56Z"/>
      <path class="cls-2" d="m66.67,91.86v5.04h-18.25v-23.18h17.49v5.04h-11.19v3.71h8.67v4.82h-8.67v4.57h11.95Z"/>
      <path class="cls-2" d="m83.41,92.3h-8.57l-1.62,4.61h-6.26l9.03-23.18h6.48l9.04,23.18h-6.48l-1.62-4.61Zm-1.76-4.97l-2.52-7.05-2.52,7.05h5.04Z"/>
      <path class="cls-2" d="m91.62,90.93l5.51-1.47c.65,1.87,2.59,3.1,4.93,3.1,2.09,0,3.49-.83,3.49-2.09,0-3.82-13.43-1.3-13.43-9.72,0-4.5,3.78-7.52,9.47-7.52,4.82,0,8.5,2.2,9.72,5.58l-5.33,1.87c-.79-1.62-2.63-2.66-4.75-2.66-1.76,0-2.95.76-2.95,1.87,0,3.63,13.5,1.08,13.5,9.72,0,4.68-3.96,7.81-9.93,7.81-5.36,0-9.32-2.56-10.22-6.48Z"/>
      <path class="cls-2" d="m113.29,93.77c0-2.05,1.62-3.63,3.67-3.63s3.67,1.58,3.67,3.63-1.62,3.64-3.67,3.64-3.67-1.58-3.67-3.64Z"/>
    </g>
  </g>
</svg>