<?xml version="1.0" encoding="UTF-8"?>
<svg id="Layer_2" data-name="Layer 2" xmlns="http://www.w3.org/2000/svg" viewBox="0 0 34.05 28.47">
  <defs>
    <style>
      .cls-1 {
        stroke-width: 0px;
      }
    </style>
  </defs>
  <g id="Layer_2-2" data-name="Layer 2">
    <g>
      <g>
        <path class="cls-1" d="m31.64,4.04H15.01c.24.76.37,1.57.37,2.41s-.13,1.65-.37,2.41h16.64c1.33,0,2.41-1.08,2.41-2.41h0c0-1.33-1.08-2.41-2.41-2.41Z"/>
        <path class="cls-1" d="m6.29,0C2.82,0,0,2.82,0,6.29s2.82,6.29,6.29,6.29,6.29-2.82,6.29-6.29S9.75,0,6.29,0Zm0,8.85c-1.41,0-2.56-1.15-2.56-2.56s1.15-2.56,2.56-2.56,2.56,1.15,2.56,2.56-1.15,2.56-2.56,2.56Z"/>
      </g>
      <g>
        <path class="cls-1" d="m2.41,24.43h16.64c-.24-.76-.37-1.57-.37-2.41s.13-1.65.37-2.41H2.41c-1.33,0-2.41,1.08-2.41,2.41h0c0,1.33,1.08,2.41,2.41,2.41Z"/>
        <path class="cls-1" d="m27.77,28.47c3.47,0,6.29-2.82,6.29-6.29s-2.82-6.29-6.29-6.29-6.29,2.82-6.29,6.29,2.82,6.29,6.29,6.29Zm0-8.85c1.41,0,2.56,1.15,2.56,2.56s-1.15,2.56-2.56,2.56-2.56-1.15-2.56-2.56,1.15-2.56,2.56-2.56Z"/>
      </g>
    </g>
  </g>
</svg>