<?xml version="1.0" encoding="UTF-8"?><svg id="Layer_2" xmlns="http://www.w3.org/2000/svg" viewBox="0 0 37.57 32.37"><g id="Layer_1-2"><path d="m7.33,0C3.29,0,0,3.29,0,7.33s3.29,7.33,7.33,7.33,7.33-3.29,7.33-7.33S11.37,0,7.33,0Z" style="stroke-width:0px;"/><path d="m33.07,2.83h-15.81c.63,1.37.98,2.89.98,4.5s-.36,3.13-.98,4.5h15.81c2.49,0,4.5-2.01,4.5-4.5s-2.01-4.5-4.5-4.5Z" style="stroke-width:0px;"/><path d="m30.24,32.37c4.04,0,7.33-3.29,7.33-7.33s-3.29-7.33-7.33-7.33-7.33,3.29-7.33,7.33,3.29,7.33,7.33,7.33Z" style="stroke-width:0px;"/><path d="m4.5,29.54h15.81c-.63-1.37-.98-2.89-.98-4.5s.36-3.13.98-4.5H4.5c-2.49,0-4.5,2.01-4.5,4.5s2.01,4.5,4.5,4.5Z" style="stroke-width:0px;"/></g></svg>