<?xml version="1.0" encoding="UTF-8"?><svg id="Layer_2" xmlns="http://www.w3.org/2000/svg" viewBox="0 0 30.25 24.66"><g id="Layer_1-2"><path d="m27.75,3.66h-11.47c-.96-2.16-3.12-3.66-5.63-3.66s-4.67,1.51-5.63,3.66h-2.52c-1.38,0-2.5,1.12-2.5,2.5s1.12,2.5,2.5,2.5h2.52c.96,2.16,3.12,3.66,5.63,3.66s4.67-1.51,5.63-3.66h11.47c1.38,0,2.5-1.12,2.5-2.5s-1.12-2.5-2.5-2.5Z" style="stroke-width:0px;"/><path d="m2.5,20.99h11.47c.96,2.16,3.12,3.66,5.63,3.66s4.67-1.51,5.63-3.66h2.52c1.38,0,2.5-1.12,2.5-2.5s-1.12-2.5-2.5-2.5h-2.52c-.96-2.16-3.12-3.66-5.63-3.66s-4.67,1.51-5.63,3.66H2.5c-1.38,0-2.5,1.12-2.5,2.5s1.12,2.5,2.5,2.5Z" style="stroke-width:0px;"/></g></svg>