<?xml version="1.0" encoding="UTF-8"?><svg id="Layer_2" xmlns="http://www.w3.org/2000/svg" xmlns:xlink="http://www.w3.org/1999/xlink" viewBox="0 0 1246.8 1233.6"><defs><linearGradient id="linear-gradient" x1="18.07" y1="-124.31" x2="582.04" y2="-124.31" gradientTransform="translate(0 144.9) rotate(-8.41) scale(1.01 .99) skewX(-8.23)" gradientUnits="userSpaceOnUse"><stop offset="0" stop-color="#fff" stop-opacity="0"/><stop offset=".09" stop-color="#fff" stop-opacity=".04"/><stop offset=".23" stop-color="#fff" stop-opacity=".14"/><stop offset=".41" stop-color="#fff" stop-opacity=".31"/><stop offset=".63" stop-color="#fff" stop-opacity=".54"/><stop offset=".87" stop-color="#fff" stop-opacity=".84"/><stop offset="1" stop-color="#fff"/></linearGradient><linearGradient id="linear-gradient-2" x1="525.29" y1="-1.39" x2="1089.26" y2="-1.39" xlink:href="#linear-gradient"/><linearGradient id="linear-gradient-3" x1="299.12" y1="226.29" x2="701.2" y2="226.29" xlink:href="#linear-gradient"/><linearGradient id="linear-gradient-4" x1="-280.55" y1="161" x2="283.42" y2="161" xlink:href="#linear-gradient"/><linearGradient id="linear-gradient-5" x1="503.44" y1="300.92" x2="1067.41" y2="300.92" xlink:href="#linear-gradient"/><linearGradient id="linear-gradient-6" x1="341.75" y1="574.9" x2="905.72" y2="574.9" xlink:href="#linear-gradient"/><linearGradient id="linear-gradient-7" x1="881.21" y1="244.66" x2="1549.61" y2="244.66" xlink:href="#linear-gradient"/><linearGradient id="linear-gradient-8" x1="744.41" y1="375.54" x2="1308.38" y2="375.54" xlink:href="#linear-gradient"/><linearGradient id="linear-gradient-9" x1="1157.72" y1="322.2" x2="1721.69" y2="322.2" xlink:href="#linear-gradient"/><linearGradient id="linear-gradient-10" x1="-75.45" y1="313.9" x2="321.81" y2="313.9" xlink:href="#linear-gradient"/><linearGradient id="linear-gradient-11" x1="-298.97" y1="410.16" x2="265" y2="410.16" xlink:href="#linear-gradient"/><linearGradient id="linear-gradient-12" x1="1005.94" y1="456.48" x2="1569.91" y2="456.48" xlink:href="#linear-gradient"/><linearGradient id="linear-gradient-13" x1="356.81" y1="428.88" x2="997.43" y2="428.88" xlink:href="#linear-gradient"/><linearGradient id="linear-gradient-14" x1="911.35" y1="524.18" x2="1475.32" y2="524.18" xlink:href="#linear-gradient"/><linearGradient id="linear-gradient-15" x1="-387.24" y1="540.76" x2="176.73" y2="540.76" xlink:href="#linear-gradient"/><linearGradient id="linear-gradient-16" x1="41.58" y1="488.29" x2="605.55" y2="488.29" xlink:href="#linear-gradient"/><linearGradient id="linear-gradient-17" x1="-336.46" y1="42.42" x2="227.51" y2="42.42" xlink:href="#linear-gradient"/><linearGradient id="linear-gradient-18" x1="65.85" y1="106.84" x2="757.1" y2="106.84" xlink:href="#linear-gradient"/><linearGradient id="linear-gradient-19" x1="510.46" y1="171.27" x2="1074.43" y2="171.27" xlink:href="#linear-gradient"/><linearGradient id="linear-gradient-20" x1="-84.27" y1="-18.87" x2="304.36" y2="-18.87" xlink:href="#linear-gradient"/><linearGradient id="linear-gradient-21" x1="966.87" y1="62.32" x2="1295.8" y2="62.32" xlink:href="#linear-gradient"/><linearGradient id="linear-gradient-22" x1="481.52" y1="-59.55" x2="682.55" y2="-59.55" xlink:href="#linear-gradient"/><linearGradient id="linear-gradient-23" x1="280.5" y1="33.59" x2="481.52" y2="33.59" xlink:href="#linear-gradient"/><linearGradient id="linear-gradient-24" x1="22.67" y1="237.45" x2="223.69" y2="237.45" xlink:href="#linear-gradient"/><linearGradient id="linear-gradient-25" x1="815.4" y1="116.79" x2="1016.42" y2="116.79" xlink:href="#linear-gradient"/><linearGradient id="linear-gradient-26" x1="643.9" y1="501.89" x2="844.92" y2="501.89" xlink:href="#linear-gradient"/><linearGradient id="linear-gradient-27" x1="302.62" y1="364.9" x2="631.55" y2="364.9" xlink:href="#linear-gradient"/><linearGradient id="linear-gradient-28" x1="1175.76" y1="161" x2="1746.79" y2="161" xlink:href="#linear-gradient"/><linearGradient id="linear-gradient-29" x1="703.29" y1="1269.06" x2="1267.26" y2="1269.06" xlink:href="#linear-gradient"/><linearGradient id="linear-gradient-30" x1="196.06" y1="1158.72" x2="760.03" y2="1158.72" xlink:href="#linear-gradient"/><linearGradient id="linear-gradient-31" x1="584.12" y1="931.04" x2="986.2" y2="931.04" xlink:href="#linear-gradient"/><linearGradient id="linear-gradient-32" x1="1001.9" y1="996.33" x2="1565.87" y2="996.33" xlink:href="#linear-gradient"/><linearGradient id="linear-gradient-33" x1="217.91" y1="856.41" x2="781.88" y2="856.41" xlink:href="#linear-gradient"/><linearGradient id="linear-gradient-34" x1="-264.29" y1="912.67" x2="404.11" y2="912.67" xlink:href="#linear-gradient"/><linearGradient id="linear-gradient-35" x1="-23.06" y1="781.79" x2="540.91" y2="781.79" xlink:href="#linear-gradient"/><linearGradient id="linear-gradient-36" x1="-436.37" y1="835.13" x2="127.6" y2="835.13" xlink:href="#linear-gradient"/><linearGradient id="linear-gradient-37" x1="963.51" y1="843.44" x2="1360.77" y2="843.44" xlink:href="#linear-gradient"/><linearGradient id="linear-gradient-38" x1="1020.32" y1="747.17" x2="1584.29" y2="747.17" xlink:href="#linear-gradient"/><linearGradient id="linear-gradient-39" x1="-284.58" y1="700.85" x2="279.38" y2="700.85" xlink:href="#linear-gradient"/><linearGradient id="linear-gradient-40" x1="287.89" y1="728.45" x2="928.52" y2="728.45" xlink:href="#linear-gradient"/><linearGradient id="linear-gradient-41" x1="-189.99" y1="633.15" x2="373.98" y2="633.15" xlink:href="#linear-gradient"/><linearGradient id="linear-gradient-42" x1="1108.59" y1="616.57" x2="1672.56" y2="616.57" xlink:href="#linear-gradient"/><linearGradient id="linear-gradient-43" x1="679.78" y1="669.04" x2="1243.74" y2="669.04" xlink:href="#linear-gradient"/><linearGradient id="linear-gradient-44" x1="1057.81" y1="1114.91" x2="1621.78" y2="1114.91" xlink:href="#linear-gradient"/><linearGradient id="linear-gradient-45" x1="528.22" y1="1050.49" x2="1219.47" y2="1050.49" xlink:href="#linear-gradient"/><linearGradient id="linear-gradient-46" x1="210.89" y1="986.06" x2="774.86" y2="986.06" xlink:href="#linear-gradient"/><linearGradient id="linear-gradient-47" x1="980.96" y1="1176.2" x2="1369.59" y2="1176.2" xlink:href="#linear-gradient"/><linearGradient id="linear-gradient-48" x1="-10.48" y1="1095.01" x2="318.45" y2="1095.01" xlink:href="#linear-gradient"/><linearGradient id="linear-gradient-49" x1="602.77" y1="1204.8" x2="803.8" y2="1204.8" xlink:href="#linear-gradient"/><linearGradient id="linear-gradient-50" x1="803.8" y1="1123.74" x2="1004.82" y2="1123.74" xlink:href="#linear-gradient"/><linearGradient id="linear-gradient-51" x1="1061.63" y1="919.88" x2="1262.66" y2="919.88" xlink:href="#linear-gradient"/><linearGradient id="linear-gradient-52" x1="268.9" y1="1040.54" x2="469.92" y2="1040.54" xlink:href="#linear-gradient"/><linearGradient id="linear-gradient-53" x1="440.4" y1="655.44" x2="641.42" y2="655.44" xlink:href="#linear-gradient"/><linearGradient id="linear-gradient-54" x1="653.77" y1="792.43" x2="982.71" y2="792.43" xlink:href="#linear-gradient"/><linearGradient id="linear-gradient-55" x1="-461.47" y1="996.33" x2="109.56" y2="996.33" xlink:href="#linear-gradient"/></defs><g id="Layer_1-2"><path d="m286.88,66.13c9.66-1.43,17.49,5.24,17.49,14.9s-7.83,18.64-17.49,20.07L0,143.51v26.32l210.02-31.04c9.66-1.43,17.49,5.24,17.49,14.9s-7.83,18.64-17.49,20.07L0,204.8v83.61l265.93-39.31c9.66-1.43,17.49,5.24,17.49,14.9h0c0,9.66-7.83,18.64-17.49,20.07L0,323.38v117.92l304.32-44.98c9.66-1.43,17.49,5.24,17.49,14.9s-7.83,18.64-17.49,20.07L0,476.28v61.29l247.52-36.59c9.66-1.43,17.49,5.24,17.49,14.9h0c0,9.66-7.83,18.64-17.49,20.07L0,572.55v95.62l159.24-23.54c9.66-1.43,17.49,5.24,17.49,14.9s-7.83,18.64-17.49,20.07L0,703.14v57.42l356.49-52.7c9.66-1.43,17.49,5.24,17.49,14.9h0c0,9.66-7.83,18.64-17.49,20.07L0,795.53v32.73l261.9-38.71c9.66-1.43,17.49,5.24,17.49,14.9h0c0,9.66-7.83,18.64-17.49,20.07L0,863.23v45.97l523.42-77.37c9.66-1.43,17.49,5.24,17.49,14.9s-7.83,18.64-17.49,20.07L0,944.17v18.36l110.11-16.28c9.66-1.43,17.49,5.24,17.49,14.9h0c0,9.66-7.83,18.64-17.49,20.07L0,997.51v42.57l386.62-57.15c9.66-1.43,17.49,5.24,17.49,14.9s-7.83,18.64-17.49,20.07L0,1075.06v48.69l92.08-13.61c9.66-1.43,17.49,5.24,17.49,14.9s-7.83,18.64-17.49,20.07l-92.08,13.61v65.18c2.15-1.26,4.51-2.14,7.01-2.51l293.96-43.45c9.66-1.43,17.49,5.24,17.49,14.9s-7.83,18.64-17.49,20.07l-139.98,20.69h194.36l387.2-57.24c9.66-1.43,17.49,5.24,17.49,14.9h0c0,9.66-7.83,18.64-17.49,20.07l-150.59,22.26h182.46l11.9-1.76c3.79-.56,7.28.14,10.14,1.76h397.02l53.33-7.88v-71.43l-248.36,36.71c-9.66,1.43-17.49-5.24-17.49-14.9h0c0-9.66,7.83-18.64,17.49-20.07l248.36-36.71v-26.32l-171.5,25.35c-9.66,1.43-17.49-5.24-17.49-14.9h0c0-9.66,7.83-18.64,17.49-20.07l171.5-25.35v-83.61l-227.41,33.62c-9.66,1.43-17.49-5.24-17.49-14.9s7.83-18.64,17.49-20.07l227.41-33.62v-41.56c-.54.13-1.08.24-1.63.32l-166.05,24.55c-9.66,1.43-17.49-5.24-17.49-14.9s7.83-18.64,17.49-20.07l166.05-24.55c.55-.08,1.09-.13,1.63-.16v-41.56l-265.8,39.29c-9.66,1.43-17.49-5.24-17.49-14.9h0c0-9.66,7.83-18.64,17.49-20.07l265.8-39.29v-61.29l-208.99,30.89c-9.66,1.43-17.49-5.24-17.49-14.9h0c0-9.66,7.83-18.64,17.49-20.07l208.99-30.89v-95.62l-120.72,17.84c-9.66,1.43-17.49-5.24-17.49-14.9h0c0-9.66,7.83-18.64,17.49-20.07l120.72-17.84v-57.42l-317.97,47c-9.66,1.43-17.49-5.24-17.49-14.9h0c0-9.66,7.83-18.64,17.49-20.07l317.97-47v-32.73l-223.38,33.02c-9.66,1.43-17.49-5.24-17.49-14.9h0c0-9.66,7.83-18.64,17.49-20.07l223.38-33.02v-45.97l-484.9,71.68c-9.66,1.43-17.49-5.24-17.49-14.9h0c0-9.66,7.83-18.64,17.49-20.07l484.9-71.68v-18.36l-71.59,10.58c-9.66,1.43-17.49-5.24-17.49-14.9s7.83-18.64,17.49-20.07l71.59-10.58v-42.57l-348.1,51.46c-9.66,1.43-17.49-5.24-17.49-14.9h0c0-9.66,7.83-18.64,17.49-20.07l348.1-51.46v-48.69l-56.84,8.4c-7.84,1.16-14.2-4.26-14.2-12.1v-6.58c0-7.84,6.36-15.14,14.2-16.3l56.84-8.4v-63.7l-262.45,38.79c-9.66,1.43-17.49-5.24-17.49-14.9h0c0-9.66,7.83-18.64,17.49-20.07L1246.8,5.43V0h-167.92c-2.17,1.29-4.57,2.2-7.11,2.57l-528.99,78.2c-9.66,1.43-17.49-5.24-17.49-14.9s7.83-18.64,17.49-20.07L852.55,0h-184.41c-1,.33-2.03.59-3.09.74l-166.05,24.55c-9.66,1.43-17.49-5.24-17.49-14.9h0c0-3.69,1.15-7.28,3.1-10.39h-233.59L35.55,31.85c-9.66,1.43-17.49-5.24-17.49-14.9h0c0-6.78,3.86-13.21,9.5-16.95H0v108.54l286.88-42.41Zm-63.19,283.15c0,9.66-7.83,18.64-17.49,20.07l-166.05,24.55c-9.66,1.43-17.49-5.24-17.49-14.9h0c0-9.66,7.83-18.64,17.49-20.07l166.05-24.55c9.66-1.43,17.49,5.24,17.49,14.9h0Zm92.92-7.4c-9.66,1.43-17.49-5.24-17.49-14.9s7.83-18.64,17.49-20.07l367.1-54.26c9.66-1.43,17.49,5.24,17.49,14.9h0c0,9.66-7.83,18.64-17.49,20.07l-367.1,54.26Zm-13.99,123.19c0-9.66,7.83-18.64,17.49-20.07l293.96-43.45c9.66-1.43,17.49,5.24,17.49,14.9h0c0,9.66-7.83,18.64-17.49,20.07l-293.96,43.45c-9.66,1.43-17.49-5.24-17.49-14.9h0Zm-243.55,176.88c-9.66,1.43-17.49-5.24-17.49-14.9s7.83-18.64,17.49-20.07l528.99-78.2c9.66-1.43,17.49,5.24,17.49,14.9s-7.83,18.64-17.49,20.07L59.06,641.95Zm300.17,42.23c-9.66,1.43-17.49-5.24-17.49-14.9h0c0-9.66,7.83-18.64,17.49-20.07l528.99-78.2c9.66-1.43,17.49,5.24,17.49,14.9s-7.83,18.64-17.49,20.07l-528.99,78.2Zm284.66-132.57h0c0-9.66,7.83-18.64,17.49-20.07l166.05-24.55c9.66-1.43,17.49,5.24,17.49,14.9h0c0,9.66-7.83,18.64-17.49,20.07l-166.05,24.55c-9.66,1.43-17.49-5.24-17.49-14.9Zm-2.47,153.92c0,9.66-7.83,18.64-17.49,20.07l-166.05,24.55c-9.66,1.43-17.49-5.24-17.49-14.9s7.83-18.64,17.49-20.07l166.05-24.55c9.66-1.43,17.49,5.24,17.49,14.9Zm-336.04,140.17c-9.66,1.43-17.49-5.24-17.49-14.9h0c0-9.66,7.83-18.64,17.49-20.07l605.65-89.53c9.66-1.43,17.49,5.24,17.49,14.9s-7.83,18.64-17.49,20.07l-605.65,89.53Zm-69.98,138.31c-9.66,1.43-17.49-5.24-17.49-14.9s7.83-18.64,17.49-20.07l528.99-78.2c9.66-1.43,17.49,5.24,17.49,14.9s-7.83,18.64-17.49,20.07l-528.99,78.2Zm-24.5,115.78c0-9.66,7.83-18.64,17.49-20.07l528.99-78.2c9.66-1.43,17.49,5.24,17.49,14.9s-7.83,18.64-17.49,20.07l-528.99,78.2c-9.66,1.43-17.49-5.24-17.49-14.9Zm241.54,36.26l-166.05,24.55c-9.66,1.43-17.49-5.24-17.49-14.9s7.83-18.64,17.49-20.07l166.05-24.55c9.66-1.43,17.49,5.24,17.49,14.9s-7.83,18.64-17.49,20.07Zm552.38-15.94c0,9.66-7.83,18.64-17.49,20.07l-166.05,24.55c-9.66,1.43-17.49-5.24-17.49-14.9h0c0-9.66,7.83-18.64,17.49-20.07l166.05-24.55c9.66-1.43,17.49,5.24,17.49,14.9h0Zm197.16-119.88c9.66-1.43,17.49,5.24,17.49,14.9h0c0,9.66-7.83,18.64-17.49,20.07l-656.28,97.01c-9.66,1.43-17.49-5.24-17.49-14.9h0c0-9.66,7.83-18.64,17.49-20.07l656.28-97.01Zm-233.27-84.97c9.66-1.43,17.49,5.24,17.49,14.9h0c0,9.66-7.83,18.64-17.49,20.07l-367.1,54.26c-9.66,1.43-17.49-5.24-17.49-14.9s7.83-18.64,17.49-20.07l367.1-54.26Zm-3.5-103.12l-293.96,43.45c-9.66,1.43-17.49-5.24-17.49-14.9s7.83-18.64,17.49-20.07l293.96-43.45c9.66-1.43,17.49,5.24,17.49,14.9s-7.83,18.64-17.49,20.07Zm261.04-196.96c9.66-1.43,17.49,5.24,17.49,14.9h0c0,9.66-7.83,18.64-17.49,20.07l-528.99,78.2c-9.66,1.43-17.49-5.24-17.49-14.9h0c0-9.66,7.83-18.64,17.49-20.07l528.99-78.2Zm-246.32-203.74c9.66-1.43,17.49,5.24,17.49,14.9s-7.83,18.64-17.49,20.07l-605.65,89.53c-9.66,1.43-17.49-5.24-17.49-14.9h0c0-9.66,7.83-18.64,17.49-20.07l605.65-89.53Zm69.98-138.31c9.66-1.43,17.49,5.24,17.49,14.9s-7.83,18.64-17.49,20.07l-528.99,78.2c-9.66,1.43-17.49-5.24-17.49-14.9h0c0-9.66,7.83-18.64,17.49-20.07l528.99-78.2Zm24.5-115.78h0c0,9.66-7.83,18.64-17.49,20.07l-528.99,78.2c-9.66,1.43-17.49-5.24-17.49-14.9h0c0-9.66,7.83-18.64,17.49-20.07l528.99-78.2c9.66-1.43,17.49,5.24,17.49,14.9Zm-259.03-16.18c0-9.66,7.83-18.64,17.49-20.07l166.05-24.55c9.66-1.43,17.49,5.24,17.49,14.9h0c0,9.66-7.83,18.64-17.49,20.07l-166.05,24.54c-9.66,1.43-17.49-5.24-17.49-14.9h0Zm-75.78-16.24c9.66-1.43,17.49,5.24,17.49,14.9s-7.83,18.64-17.49,20.07L83.34,256.91c-9.66,1.43-17.49-5.24-17.49-14.9s7.83-18.64,17.49-20.07l656.28-97.01Zm-258.09-17.61h0c0,9.66-7.83,18.64-17.49,20.07l-166.05,24.55c-9.66,1.43-17.49-5.24-17.49-14.9s7.83-18.64,17.49-20.07l166.05-24.55c9.66-1.43,17.49,5.24,17.49,14.9Z" style="fill:none; stroke-width:0px;"/><path d="m18.07,16.95h0c0,9.66,7.83,16.33,17.49,14.9L251.03,0H27.57c-5.64,3.74-9.5,10.17-9.5,16.95Z" style="fill:url(#linear-gradient); stroke-width:0px;"/><path d="m525.29,65.86c0,9.66,7.83,16.33,17.49,14.9L1071.77,2.57c2.53-.37,4.93-1.28,7.11-2.57h-226.33l-309.77,45.79c-9.66,1.43-17.49,10.41-17.49,20.07Z" style="fill:url(#linear-gradient-2); stroke-width:0px;"/><path d="m701.2,267.54h0c0-9.66-7.83-16.33-17.49-14.9l-367.1,54.26c-9.66,1.43-17.49,10.41-17.49,20.07s7.83,16.33,17.49,14.9l367.1-54.26c9.66-1.43,17.49-10.41,17.49-20.07Z" style="fill:url(#linear-gradient-3); stroke-width:0px;"/><path d="m283.42,264h0c0-9.66-7.83-16.33-17.49-14.9L0,288.41v34.97l265.93-39.31c9.66-1.43,17.49-10.41,17.49-20.07Z" style="fill:url(#linear-gradient-4); stroke-width:0px;"/><path d="m503.44,371.39h0c0,9.66,7.83,16.33,17.49,14.9l528.99-78.2c9.66-1.43,17.49-10.41,17.49-20.07s-7.83-16.33-17.49-14.9l-528.99,78.2c-9.66,1.43-17.49,10.41-17.49,20.07Z" style="fill:url(#linear-gradient-5); stroke-width:0px;"/><path d="m905.72,585.91c0-9.66-7.83-16.33-17.49-14.9l-528.99,78.2c-9.66,1.43-17.49,10.41-17.49,20.07h0c0,9.66,7.83,16.33,17.49,14.9l528.99-78.2c9.66-1.43,17.49-10.41,17.49-20.07Z" style="fill:url(#linear-gradient-6); stroke-width:0px;"/><path d="m881.21,259.29h0c0,9.66,7.83,16.33,17.49,14.9l348.1-51.46v-34.97l-348.1,51.46c-9.66,1.43-17.49,10.41-17.49,20.07Z" style="fill:url(#linear-gradient-7); stroke-width:0px;"/><path d="m744.41,410.4h0c0,9.66,7.83,16.33,17.49,14.9l484.9-71.68v-34.97l-484.9,71.68c-9.66,1.43-17.49,10.41-17.49,20.07Z" style="fill:url(#linear-gradient-8); stroke-width:0px;"/><path d="m1157.72,295.97c0,9.66,7.83,16.33,17.49,14.9l71.59-10.58v-34.97l-71.59,10.58c-9.66,1.43-17.49,10.41-17.49,20.07Z" style="fill:url(#linear-gradient-9); stroke-width:0px;"/><path d="m321.81,411.22c0-9.66-7.83-16.33-17.49-14.9L0,441.3v34.97l304.32-44.98c9.66-1.43,17.49-10.41,17.49-20.07Z" style="fill:url(#linear-gradient-10); stroke-width:0px;"/><path d="m265,515.89h0c0-9.66-7.83-16.33-17.49-14.9L0,537.57v34.97l247.52-36.59c9.66-1.43,17.49-10.41,17.49-20.07Z" style="fill:url(#linear-gradient-11); stroke-width:0px;"/><path d="m1005.94,452.68h0c0,9.66,7.83,16.33,17.49,14.9l223.38-33.02v-34.97l-223.38,33.02c-9.66,1.43-17.49,10.41-17.49,20.07Z" style="fill:url(#linear-gradient-12); stroke-width:0px;"/><path d="m356.81,521.04h0c0,9.66,7.83,16.33,17.49,14.9l605.65-89.53c9.66-1.43,17.49-10.41,17.49-20.07s-7.83-16.33-17.49-14.9l-605.65,89.53c-9.66,1.43-17.49,10.41-17.49,20.07Z" style="fill:url(#linear-gradient-13); stroke-width:0px;"/><path d="m911.35,534.37h0c0,9.66,7.83,16.33,17.49,14.9l317.97-47v-34.97l-317.97,47c-9.66,1.43-17.49,10.41-17.49,20.07Z" style="fill:url(#linear-gradient-14); stroke-width:0px;"/><path d="m176.73,659.53c0-9.66-7.83-16.33-17.49-14.9L0,668.17v34.97l159.24-23.54c9.66-1.43,17.49-10.41,17.49-20.07Z" style="fill:url(#linear-gradient-15); stroke-width:0px;"/><path d="m605.55,543.68c0-9.66-7.83-16.33-17.49-14.9L59.06,606.97c-9.66,1.43-17.49,10.41-17.49,20.07s7.83,16.33,17.49,14.9l528.99-78.2c9.66-1.43,17.49-10.41,17.49-20.07Z" style="fill:url(#linear-gradient-16); stroke-width:0px;"/><path d="m227.51,153.68c0-9.66-7.83-16.33-17.49-14.9L0,169.83v34.97l210.02-31.04c9.66-1.43,17.49-10.41,17.49-20.07Z" style="fill:url(#linear-gradient-17); stroke-width:0px;"/><path d="m65.85,242c0,9.66,7.83,16.33,17.49,14.9l656.28-97.01c9.66-1.43,17.49-10.41,17.49-20.07s-7.83-16.33-17.49-14.9L83.34,221.93c-9.66,1.43-17.49,10.41-17.49,20.07Z" style="fill:url(#linear-gradient-18); stroke-width:0px;"/><path d="m510.46,240.71h0c0,9.66,7.83,16.33,17.49,14.9l528.99-78.2c9.66-1.43,17.49-10.41,17.49-20.07h0c0-9.66-7.83-16.33-17.49-14.9l-528.99,78.2c-9.66,1.43-17.49,10.41-17.49,20.07Z" style="fill:url(#linear-gradient-19); stroke-width:0px;"/><path d="m304.36,81.03c0-9.66-7.83-16.33-17.49-14.9L0,108.54v34.97l286.88-42.41c9.66-1.43,17.49-10.41,17.49-20.07Z" style="fill:url(#linear-gradient-20); stroke-width:0px;"/><path d="m966.87,64.29h0c0,9.66,7.83,16.33,17.49,14.9l262.45-38.79V5.43l-262.45,38.79c-9.66,1.43-17.49,10.41-17.49,20.07Z" style="fill:url(#linear-gradient-21); stroke-width:0px;"/><path d="m481.52,10.39c0,9.66,7.83,16.33,17.49,14.9L665.06.74c1.05-.16,2.08-.42,3.09-.74h-183.52c-1.95,3.11-3.1,6.7-3.1,10.39h0Z" style="fill:url(#linear-gradient-22); stroke-width:0px;"/><path d="m280.5,137.02c0,9.66,7.83,16.33,17.49,14.9l166.05-24.55c9.66-1.43,17.49-10.41,17.49-20.07h0c0-9.66-7.83-16.33-17.49-14.9l-166.05,24.55c-9.66,1.43-17.49,10.41-17.49,20.07Z" style="fill:url(#linear-gradient-23); stroke-width:0px;"/><path d="m206.2,334.38l-166.05,24.55c-9.66,1.43-17.49,10.41-17.49,20.07h0c0,9.66,7.83,16.33,17.49,14.9l166.05-24.55c9.66-1.43,17.49-10.41,17.49-20.07h0c0-9.66-7.83-16.33-17.49-14.9Z" style="fill:url(#linear-gradient-24); stroke-width:0px;"/><path d="m832.88,156.06l166.05-24.54c9.66-1.43,17.49-10.41,17.49-20.07h0c0-9.66-7.83-16.33-17.49-14.9l-166.05,24.55c-9.66,1.43-17.49,10.41-17.49,20.07h0c0,9.66,7.83,16.33,17.49,14.9Z" style="fill:url(#linear-gradient-25); stroke-width:0px;"/><path d="m661.39,566.51l166.05-24.55c9.66-1.43,17.49-10.41,17.49-20.07h0c0-9.66-7.83-16.33-17.49-14.9l-166.05,24.55c-9.66,1.43-17.49,10.41-17.49,20.07h0c0,9.66,7.83,16.33,17.49,14.9Z" style="fill:url(#linear-gradient-26); stroke-width:0px;"/><path d="m320.1,479.97l293.96-43.45c9.66-1.43,17.49-10.41,17.49-20.07h0c0-9.66-7.83-16.33-17.49-14.9l-293.96,43.45c-9.66,1.43-17.49,10.41-17.49,20.07h0c0,9.66,7.83,16.33,17.49,14.9Z" style="fill:url(#linear-gradient-27); stroke-width:0px;"/><path d="m1175.76,128.81v6.58c0,7.84,6.36,13.26,14.2,12.1l56.84-8.4v-34.97l-56.84,8.4c-7.84,1.16-14.2,8.46-14.2,16.3Z" style="fill:url(#linear-gradient-28); stroke-width:0px;"/><polygon points="1246.8 1233.6 1246.8 1225.72 1193.47 1233.6 1246.8 1233.6" style="fill:url(#linear-gradient-29); stroke-width:0px;"/><path d="m760.03,1191.27h0c0-9.66-7.83-16.33-17.49-14.9l-387.2,57.24h236.61l150.59-22.26c9.66-1.43,17.49-10.41,17.49-20.07Z" style="fill:url(#linear-gradient-30); stroke-width:0px;"/><path d="m584.12,989.59c0,9.66,7.83,16.33,17.49,14.9l367.1-54.26c9.66-1.43,17.49-10.41,17.49-20.07h0c0-9.66-7.83-16.33-17.49-14.9l-367.1,54.26c-9.66,1.43-17.49,10.41-17.49,20.07Z" style="fill:url(#linear-gradient-31); stroke-width:0px;"/><path d="m1001.9,993.13c0,9.66,7.83,16.33,17.49,14.9l227.41-33.62v-34.97l-227.41,33.62c-9.66,1.43-17.49,10.41-17.49,20.07Z" style="fill:url(#linear-gradient-32); stroke-width:0px;"/><path d="m781.88,885.73c0-9.66-7.83-16.33-17.49-14.9l-528.99,78.2c-9.66,1.43-17.49,10.41-17.49,20.07s7.83,16.33,17.49,14.9l528.99-78.2c9.66-1.43,17.49-10.41,17.49-20.07Z" style="fill:url(#linear-gradient-33); stroke-width:0px;"/><path d="m404.11,997.84c0-9.66-7.83-16.33-17.49-14.9L0,1040.08v34.97l386.62-57.15c9.66-1.43,17.49-10.41,17.49-20.07Z" style="fill:url(#linear-gradient-34); stroke-width:0px;"/><path d="m540.91,846.73c0-9.66-7.83-16.33-17.49-14.9L0,909.2v34.97l523.42-77.37c9.66-1.43,17.49-10.41,17.49-20.07Z" style="fill:url(#linear-gradient-35); stroke-width:0px;"/><path d="m127.6,961.16h0c0-9.66-7.83-16.33-17.49-14.9L0,962.54v34.97l110.11-16.28c9.66-1.43,17.49-10.41,17.49-20.07Z" style="fill:url(#linear-gradient-36); stroke-width:0px;"/><path d="m963.51,845.91h0c0,9.66,7.83,16.33,17.49,14.9l265.8-39.29v-34.97l-265.8,39.29c-9.66,1.43-17.49,10.41-17.49,20.07Z" style="fill:url(#linear-gradient-37); stroke-width:0px;"/><path d="m1020.32,741.24h0c0,9.66,7.83,16.33,17.49,14.9l208.99-30.89v-34.97l-208.99,30.89c-9.66,1.43-17.49,10.41-17.49,20.07Z" style="fill:url(#linear-gradient-38); stroke-width:0px;"/><path d="m279.38,804.45h0c0-9.66-7.83-16.33-17.49-14.9L0,828.26v34.97l261.9-38.71c9.66-1.43,17.49-10.41,17.49-20.07Z" style="fill:url(#linear-gradient-39); stroke-width:0px;"/><path d="m928.52,736.09c0-9.66-7.83-16.33-17.49-14.9l-605.65,89.53c-9.66,1.43-17.49,10.41-17.49,20.07h0c0,9.66,7.83,16.33,17.49,14.9l605.65-89.53c9.66-1.43,17.49-10.41,17.49-20.07Z" style="fill:url(#linear-gradient-40); stroke-width:0px;"/><path d="m373.98,722.76h0c0-9.66-7.83-16.33-17.49-14.9L0,760.56v34.97l356.49-52.7c9.66-1.43,17.49-10.41,17.49-20.07Z" style="fill:url(#linear-gradient-41); stroke-width:0px;"/><path d="m1108.59,597.6h0c0,9.66,7.83,16.33,17.49,14.9l120.72-17.84v-34.97l-120.72,17.84c-9.66,1.43-17.49,10.41-17.49,20.07Z" style="fill:url(#linear-gradient-42); stroke-width:0px;"/><path d="m679.78,713.45h0c0,9.66,7.83,16.33,17.49,14.9l528.99-78.2c9.66-1.43,17.49-10.41,17.49-20.07h0c0-9.66-7.83-16.33-17.49-14.9l-528.99,78.2c-9.66,1.43-17.49,10.41-17.49,20.07Z" style="fill:url(#linear-gradient-43); stroke-width:0px;"/><path d="m1057.81,1103.45h0c0,9.66,7.83,16.33,17.49,14.9l171.5-25.35v-34.97l-171.5,25.35c-9.66,1.43-17.49,10.41-17.49,20.07Z" style="fill:url(#linear-gradient-44); stroke-width:0px;"/><path d="m528.22,1117.31h0c0,9.66,7.83,16.33,17.49,14.9l656.28-97.01c9.66-1.43,17.49-10.41,17.49-20.07h0c0-9.66-7.83-16.33-17.49-14.9l-656.28,97.01c-9.66,1.43-17.49,10.41-17.49,20.07Z" style="fill:url(#linear-gradient-45); stroke-width:0px;"/><path d="m774.86,1016.42c0-9.66-7.83-16.33-17.49-14.9l-528.99,78.2c-9.66,1.43-17.49,10.41-17.49,20.07s7.83,16.33,17.49,14.9l528.99-78.2c9.66-1.43,17.49-10.41,17.49-20.07Z" style="fill:url(#linear-gradient-46); stroke-width:0px;"/><path d="m980.96,1176.1h0c0,9.66,7.83,16.33,17.49,14.9l248.36-36.71v-34.97l-248.36,36.71c-9.66,1.43-17.49,10.41-17.49,20.07Z" style="fill:url(#linear-gradient-47); stroke-width:0px;"/><path d="m318.45,1192.84c0-9.66-7.83-16.33-17.49-14.9L7.01,1221.39c-2.49.37-4.86,1.25-7.01,2.51v9.71h160.99l139.98-20.69c9.66-1.43,17.49-10.41,17.49-20.07Z" style="fill:url(#linear-gradient-48); stroke-width:0px;"/><path d="m786.31,1231.84l-11.9,1.76h22.05c-2.86-1.62-6.36-2.32-10.14-1.76Z" style="fill:url(#linear-gradient-49); stroke-width:0px;"/><path d="m987.33,1105.21l-166.05,24.55c-9.66,1.43-17.49,10.41-17.49,20.07h0c0,9.66,7.83,16.33,17.49,14.9l166.05-24.55c9.66-1.43,17.49-10.41,17.49-20.07h0c0-9.66-7.83-16.33-17.49-14.9Z" style="fill:url(#linear-gradient-50); stroke-width:0px;"/><path d="m1079.12,887.78c-9.66,1.43-17.49,10.41-17.49,20.07s7.83,16.33,17.49,14.9l166.05-24.55c.55-.08,1.09-.19,1.63-.32v-34.81c-.54.03-1.08.08-1.63.16l-166.05,24.55Z" style="fill:url(#linear-gradient-51); stroke-width:0px;"/><path d="m452.44,1101.07l-166.05,24.55c-9.66,1.43-17.49,10.41-17.49,20.07s7.83,16.33,17.49,14.9l166.05-24.55c9.66-1.43,17.49-10.41,17.49-20.07s-7.83-16.33-17.49-14.9Z" style="fill:url(#linear-gradient-52); stroke-width:0px;"/><path d="m623.94,690.62l-166.05,24.55c-9.66,1.43-17.49,10.41-17.49,20.07s7.83,16.33,17.49,14.9l166.05-24.55c9.66-1.43,17.49-10.41,17.49-20.07s-7.83-16.33-17.49-14.9Z" style="fill:url(#linear-gradient-53); stroke-width:0px;"/><path d="m965.22,777.16l-293.96,43.45c-9.66,1.43-17.49,10.41-17.49,20.07s7.83,16.33,17.49,14.9l293.96-43.45c9.66-1.43,17.49-10.41,17.49-20.07s-7.83-16.33-17.49-14.9Z" style="fill:url(#linear-gradient-54); stroke-width:0px;"/><path d="m109.56,1125.03c0-9.66-7.83-16.33-17.49-14.9l-92.08,13.61v34.97l92.08-13.61c9.66-1.43,17.49-10.41,17.49-20.07Z" style="fill:url(#linear-gradient-55); stroke-width:0px;"/></g></svg>