<?xml version="1.0" encoding="UTF-8"?><svg id="Layer_2" xmlns="http://www.w3.org/2000/svg" xmlns:xlink="http://www.w3.org/1999/xlink" viewBox="0 0 1246.8 1233.6"><defs><linearGradient id="linear-gradient" x1="714.85" y1="534.58" x2="1001.37" y2="534.58" gradientTransform="translate(0 -223.71) rotate(-8.36) scale(1.01 .99) skewX(-8.18)" gradientUnits="userSpaceOnUse"><stop offset="0" stop-color="#fff" stop-opacity="0"/><stop offset=".09" stop-color="#fff" stop-opacity=".04"/><stop offset=".23" stop-color="#fff" stop-opacity=".14"/><stop offset=".41" stop-color="#fff" stop-opacity=".31"/><stop offset=".63" stop-color="#fff" stop-opacity=".54"/><stop offset=".87" stop-color="#fff" stop-opacity=".84"/><stop offset="1" stop-color="#fff"/></linearGradient><linearGradient id="linear-gradient-2" x1="457.16" y1="471.63" x2="743.68" y2="471.63" xlink:href="#linear-gradient"/><linearGradient id="linear-gradient-3" x1="654.31" y1="355.97" x2="858.58" y2="355.97" xlink:href="#linear-gradient"/><linearGradient id="linear-gradient-4" x1="866.56" y1="389.14" x2="1153.08" y2="389.14" xlink:href="#linear-gradient"/><linearGradient id="linear-gradient-5" x1="468.26" y1="318.05" x2="754.78" y2="318.05" xlink:href="#linear-gradient"/><linearGradient id="linear-gradient-6" x1="573.96" y1="905.85" x2="860.48" y2="905.85" xlink:href="#linear-gradient"/><linearGradient id="linear-gradient-7" x1="315.64" y1="518.59" x2="602.16" y2="518.59" xlink:href="#linear-gradient"/><linearGradient id="linear-gradient-8" x1="223.28" y1="346.63" x2="562.86" y2="346.63" xlink:href="#linear-gradient"/><linearGradient id="linear-gradient-9" x1="345.84" y1="281.87" x2="632.36" y2="281.87" xlink:href="#linear-gradient"/><linearGradient id="linear-gradient-10" x1="135.86" y1="307.24" x2="422.38" y2="307.24" xlink:href="#linear-gradient"/><linearGradient id="linear-gradient-11" x1="894.97" y1="449.38" x2="1181.49" y2="449.38" xlink:href="#linear-gradient"/><linearGradient id="linear-gradient-12" x1="625.91" y1="416.65" x2="977.09" y2="416.65" xlink:href="#linear-gradient"/><linearGradient id="linear-gradient-13" x1="464.69" y1="383.92" x2="751.21" y2="383.92" xlink:href="#linear-gradient"/><linearGradient id="linear-gradient-14" x1="135.86" y1="485.74" x2="422.38" y2="485.74" xlink:href="#linear-gradient"/><linearGradient id="linear-gradient-15" x1="855.92" y1="480.52" x2="1053.36" y2="480.52" xlink:href="#linear-gradient"/><linearGradient id="linear-gradient-16" x1="352.23" y1="439.27" x2="519.34" y2="439.27" xlink:href="#linear-gradient"/><linearGradient id="linear-gradient-17" x1="663.79" y1="503.11" x2="765.92" y2="503.11" xlink:href="#linear-gradient"/><linearGradient id="linear-gradient-18" x1="765.92" y1="453.87" x2="868.04" y2="453.87" xlink:href="#linear-gradient"/><linearGradient id="linear-gradient-19" x1="896.91" y1="357.42" x2="999.03" y2="357.42" xlink:href="#linear-gradient"/><linearGradient id="linear-gradient-20" x1="494.16" y1="411.6" x2="596.29" y2="411.6" xlink:href="#linear-gradient"/><linearGradient id="linear-gradient-21" x1="223.28" y1="425.53" x2="325.41" y2="425.53" xlink:href="#linear-gradient"/><linearGradient id="linear-gradient-22" x1="123.11" y1="389.14" x2="413.22" y2="389.14" xlink:href="#linear-gradient"/><linearGradient id="linear-gradient-23" x1="390.28" y1="546.31" x2="676.8" y2="546.31" xlink:href="#linear-gradient"/><linearGradient id="linear-gradient-24" x1="647.97" y1="609.25" x2="934.49" y2="609.25" xlink:href="#linear-gradient"/><linearGradient id="linear-gradient-25" x1="533.07" y1="724.92" x2="737.34" y2="724.92" xlink:href="#linear-gradient"/><linearGradient id="linear-gradient-26" x1="238.57" y1="691.74" x2="525.09" y2="691.74" xlink:href="#linear-gradient"/><linearGradient id="linear-gradient-27" x1="636.87" y1="762.83" x2="923.39" y2="762.83" xlink:href="#linear-gradient"/><linearGradient id="linear-gradient-28" x1="789.49" y1="562.29" x2="1076.01" y2="562.29" xlink:href="#linear-gradient"/><linearGradient id="linear-gradient-29" x1="828.8" y1="734.25" x2="1168.37" y2="734.25" xlink:href="#linear-gradient"/><linearGradient id="linear-gradient-30" x1="759.3" y1="800.74" x2="1045.82" y2="800.74" xlink:href="#linear-gradient"/><linearGradient id="linear-gradient-31" x1="969.28" y1="773.65" x2="1255.8" y2="773.65" xlink:href="#linear-gradient"/><linearGradient id="linear-gradient-32" x1="342.77" y1="769.42" x2="544.6" y2="769.42" xlink:href="#linear-gradient"/><linearGradient id="linear-gradient-33" x1="229.22" y1="818.33" x2="515.74" y2="818.33" xlink:href="#linear-gradient"/><linearGradient id="linear-gradient-34" x1="892.16" y1="841.86" x2="1178.68" y2="841.86" xlink:href="#linear-gradient"/><linearGradient id="linear-gradient-35" x1="562.38" y1="827.84" x2="887.84" y2="827.84" xlink:href="#linear-gradient"/><linearGradient id="linear-gradient-36" x1="844.11" y1="876.26" x2="1130.63" y2="876.26" xlink:href="#linear-gradient"/><linearGradient id="linear-gradient-37" x1="184.37" y1="884.68" x2="470.89" y2="884.68" xlink:href="#linear-gradient"/><linearGradient id="linear-gradient-38" x1="402.23" y1="858.03" x2="688.75" y2="858.03" xlink:href="#linear-gradient"/><linearGradient id="linear-gradient-39" x1="210.17" y1="631.5" x2="496.69" y2="631.5" xlink:href="#linear-gradient"/><linearGradient id="linear-gradient-40" x1="414.56" y1="664.23" x2="765.74" y2="664.23" xlink:href="#linear-gradient"/><linearGradient id="linear-gradient-41" x1="640.44" y1="696.96" x2="926.96" y2="696.96" xlink:href="#linear-gradient"/><linearGradient id="linear-gradient-42" x1="969.28" y1="595.15" x2="1255.8" y2="595.15" xlink:href="#linear-gradient"/><linearGradient id="linear-gradient-43" x1="338.29" y1="600.36" x2="535.73" y2="600.36" xlink:href="#linear-gradient"/><linearGradient id="linear-gradient-44" x1="872.31" y1="641.61" x2="1039.43" y2="641.61" xlink:href="#linear-gradient"/><linearGradient id="linear-gradient-45" x1="625.74" y1="577.78" x2="727.87" y2="577.78" xlink:href="#linear-gradient"/><linearGradient id="linear-gradient-46" x1="523.61" y1="627.02" x2="625.74" y2="627.02" xlink:href="#linear-gradient"/><linearGradient id="linear-gradient-47" x1="392.62" y1="730.58" x2="494.75" y2="730.58" xlink:href="#linear-gradient"/><linearGradient id="linear-gradient-48" x1="795.36" y1="669.29" x2="897.49" y2="669.29" xlink:href="#linear-gradient"/><linearGradient id="linear-gradient-49" x1="1066.24" y1="655.35" x2="1168.37" y2="655.35" xlink:href="#linear-gradient"/><linearGradient id="linear-gradient-50" x1="708.23" y1="864.93" x2="810.36" y2="864.93" xlink:href="#linear-gradient"/><linearGradient id="linear-gradient-51" x1="534.85" y1="795.34" x2="701.96" y2="795.34" xlink:href="#linear-gradient"/><linearGradient id="linear-gradient-52" x1="978.44" y1="691.75" x2="1268.55" y2="691.75" xlink:href="#linear-gradient"/><linearGradient id="linear-gradient-53" x1="677.43" y1="1253.11" x2="963.95" y2="1253.11" xlink:href="#linear-gradient"/><linearGradient id="linear-gradient-54" x1="419.74" y1="1190.17" x2="706.26" y2="1190.17" xlink:href="#linear-gradient"/><linearGradient id="linear-gradient-55" x1="616.89" y1="1074.5" x2="821.16" y2="1074.5" xlink:href="#linear-gradient"/><linearGradient id="linear-gradient-56" x1="829.14" y1="1107.67" x2="1115.66" y2="1107.67" xlink:href="#linear-gradient"/><linearGradient id="linear-gradient-57" x1="430.84" y1="1036.59" x2="717.36" y2="1036.59" xlink:href="#linear-gradient"/><linearGradient id="linear-gradient-58" x1="278.22" y1="1237.13" x2="564.74" y2="1237.13" xlink:href="#linear-gradient"/><linearGradient id="linear-gradient-59" x1="185.86" y1="1065.17" x2="525.43" y2="1065.17" xlink:href="#linear-gradient"/><linearGradient id="linear-gradient-60" x1="308.42" y1="998.67" x2="594.94" y2="998.67" xlink:href="#linear-gradient"/><linearGradient id="linear-gradient-61" x1="98.44" y1="1025.77" x2="384.96" y2="1025.77" xlink:href="#linear-gradient"/><linearGradient id="linear-gradient-62" x1="809.64" y1="1029.99" x2="1011.46" y2="1029.99" xlink:href="#linear-gradient"/><linearGradient id="linear-gradient-63" x1="838.5" y1="981.09" x2="1125.02" y2="981.09" xlink:href="#linear-gradient"/><linearGradient id="linear-gradient-64" x1="175.55" y1="957.55" x2="462.07" y2="957.55" xlink:href="#linear-gradient"/><linearGradient id="linear-gradient-65" x1="466.39" y1="971.57" x2="791.86" y2="971.57" xlink:href="#linear-gradient"/><linearGradient id="linear-gradient-66" x1="223.61" y1="923.16" x2="510.13" y2="923.16" xlink:href="#linear-gradient"/><linearGradient id="linear-gradient-67" x1="883.34" y1="914.74" x2="1169.86" y2="914.74" xlink:href="#linear-gradient"/><linearGradient id="linear-gradient-68" x1="665.49" y1="941.39" x2="952.01" y2="941.39" xlink:href="#linear-gradient"/><linearGradient id="linear-gradient-69" x1="857.54" y1="1167.91" x2="1144.06" y2="1167.91" xlink:href="#linear-gradient"/><linearGradient id="linear-gradient-70" x1="588.49" y1="1135.18" x2="939.67" y2="1135.18" xlink:href="#linear-gradient"/><linearGradient id="linear-gradient-71" x1="427.27" y1="1102.45" x2="713.79" y2="1102.45" xlink:href="#linear-gradient"/><linearGradient id="linear-gradient-72" x1="98.44" y1="1204.27" x2="384.96" y2="1204.27" xlink:href="#linear-gradient"/><linearGradient id="linear-gradient-73" x1="818.5" y1="1199.05" x2="1015.94" y2="1199.05" xlink:href="#linear-gradient"/><linearGradient id="linear-gradient-74" x1="314.81" y1="1157.8" x2="481.92" y2="1157.8" xlink:href="#linear-gradient"/><linearGradient id="linear-gradient-75" x1="626.37" y1="1221.64" x2="728.49" y2="1221.64" xlink:href="#linear-gradient"/><linearGradient id="linear-gradient-76" x1="728.49" y1="1172.4" x2="830.62" y2="1172.4" xlink:href="#linear-gradient"/><linearGradient id="linear-gradient-77" x1="859.48" y1="1068.83" x2="961.61" y2="1068.83" xlink:href="#linear-gradient"/><linearGradient id="linear-gradient-78" x1="456.74" y1="1130.13" x2="558.87" y2="1130.13" xlink:href="#linear-gradient"/><linearGradient id="linear-gradient-79" x1="185.86" y1="1144.07" x2="287.99" y2="1144.07" xlink:href="#linear-gradient"/><linearGradient id="linear-gradient-80" x1="543.87" y1="934.48" x2="646" y2="934.48" xlink:href="#linear-gradient"/><linearGradient id="linear-gradient-81" x1="652.27" y1="1004.08" x2="819.39" y2="1004.08" xlink:href="#linear-gradient"/><linearGradient id="linear-gradient-82" x1="85.68" y1="1107.67" x2="375.79" y2="1107.67" xlink:href="#linear-gradient"/><linearGradient id="linear-gradient-83" x1="352.86" y1="1264.84" x2="639.38" y2="1264.84" xlink:href="#linear-gradient"/><linearGradient id="linear-gradient-84" x1="610.55" y1="1327.78" x2="897.07" y2="1327.78" xlink:href="#linear-gradient"/><linearGradient id="linear-gradient-85" x1="495.65" y1="1443.45" x2="699.92" y2="1443.45" xlink:href="#linear-gradient"/><linearGradient id="linear-gradient-86" x1="201.15" y1="1410.28" x2="487.67" y2="1410.28" xlink:href="#linear-gradient"/><linearGradient id="linear-gradient-87" x1="599.45" y1="1481.36" x2="885.97" y2="1481.36" xlink:href="#linear-gradient"/><linearGradient id="linear-gradient-88" x1="752.07" y1="1280.82" x2="1038.59" y2="1280.82" xlink:href="#linear-gradient"/><linearGradient id="linear-gradient-89" x1="791.38" y1="1452.78" x2="1130.95" y2="1452.78" xlink:href="#linear-gradient"/><linearGradient id="linear-gradient-90" x1="721.87" y1="1519.28" x2="1008.39" y2="1519.28" xlink:href="#linear-gradient"/><linearGradient id="linear-gradient-91" x1="931.86" y1="1492.18" x2="1218.38" y2="1492.18" xlink:href="#linear-gradient"/><linearGradient id="linear-gradient-92" x1="305.35" y1="1487.96" x2="507.17" y2="1487.96" xlink:href="#linear-gradient"/><linearGradient id="linear-gradient-93" x1="854.74" y1="1560.4" x2="1141.26" y2="1560.4" xlink:href="#linear-gradient"/><linearGradient id="linear-gradient-94" x1="524.95" y1="1546.38" x2="850.42" y2="1546.38" xlink:href="#linear-gradient"/><linearGradient id="linear-gradient-95" x1="806.68" y1="1594.79" x2="1093.2" y2="1594.79" xlink:href="#linear-gradient"/><linearGradient id="linear-gradient-96" x1="172.75" y1="1350.04" x2="459.27" y2="1350.04" xlink:href="#linear-gradient"/><linearGradient id="linear-gradient-97" x1="377.14" y1="1382.77" x2="728.32" y2="1382.77" xlink:href="#linear-gradient"/><linearGradient id="linear-gradient-98" x1="603.02" y1="1415.5" x2="889.54" y2="1415.5" xlink:href="#linear-gradient"/><linearGradient id="linear-gradient-99" x1="931.86" y1="1313.68" x2="1218.38" y2="1313.68" xlink:href="#linear-gradient"/><linearGradient id="linear-gradient-100" x1="300.87" y1="1318.9" x2="498.31" y2="1318.9" xlink:href="#linear-gradient"/><linearGradient id="linear-gradient-101" x1="834.89" y1="1360.15" x2="1002" y2="1360.15" xlink:href="#linear-gradient"/><linearGradient id="linear-gradient-102" x1="588.32" y1="1296.31" x2="690.45" y2="1296.31" xlink:href="#linear-gradient"/><linearGradient id="linear-gradient-103" x1="486.19" y1="1345.55" x2="588.32" y2="1345.55" xlink:href="#linear-gradient"/><linearGradient id="linear-gradient-104" x1="355.2" y1="1449.12" x2="457.33" y2="1449.12" xlink:href="#linear-gradient"/><linearGradient id="linear-gradient-105" x1="757.94" y1="1387.82" x2="860.07" y2="1387.82" xlink:href="#linear-gradient"/><linearGradient id="linear-gradient-106" x1="1028.82" y1="1373.88" x2="1130.95" y2="1373.88" xlink:href="#linear-gradient"/><linearGradient id="linear-gradient-107" x1="497.42" y1="1513.87" x2="664.54" y2="1513.87" xlink:href="#linear-gradient"/><linearGradient id="linear-gradient-108" x1="941.02" y1="1410.28" x2="1231.13" y2="1410.28" xlink:href="#linear-gradient"/></defs><g id="Layer_1-2"><path d="m842.24,1190.08c4.52-.66,8.18,2.46,8.18,6.98v1.42c0,4.52-3.66,8.71-8.18,9.38l-175.33,25.75h208.66l209.46-30.76c4.52-.66,8.18,2.46,8.18,6.98v1.42c0,4.52-3.66,8.71-8.18,9.38l-88.48,13h250.25V375.69l-269.35,39.56c-4.52.66-8.18-2.46-8.18-6.98v-1.42c0-4.52,3.66-8.71,8.18-9.38l269.35-39.56v-64.13l-260.19,38.22c-4.52.66-8.18-2.46-8.18-6.98v-1.42c0-4.52,3.66-8.71,8.18-9.38l260.19-38.22v-78.83l-269.35,39.56c-4.52.66-8.18-2.46-8.18-6.98v-1.42c0-4.52,3.66-8.71,8.18-9.38l269.35-39.56V0h-94.34c-1.23,3.14-4.15,5.65-7.55,6.15l-270.17,39.68c-4.52.66-8.18-2.46-8.18-6.98v-1.42c0-4.52,3.66-8.71,8.18-9.38L1065.82,0h-143.46l-17.28,2.54c-2.79.41-5.24-.63-6.72-2.54h-42.19c1.49,1.26,2.41,3.18,2.41,5.44v1.42c0,4.52-3.66,8.71-8.18,9.38l-187.92,27.6c-4.52.66-8.18-2.46-8.18-6.98v-1.42c0-4.52,3.66-8.71,8.18-9.38L839.98,0h-137.15l-226.39,33.25c-4.52.66-8.18-2.46-8.18-6.98v-1.42c0-4.52,3.66-8.71,8.18-9.38L581.85,0h-137.15l-90.69,13.32c-4.52.66-8.18-2.46-8.18-6.98v-1.42c0-1.75.56-3.46,1.5-4.93H0v1233.6h545.93l296.31-43.52Zm-112.19,7.15c-4.52.66-8.18-2.46-8.18-6.98v-1.42c0-4.52,3.66-8.71,8.18-9.38l270.17-39.68c4.52-.66,8.18,2.46,8.18,6.98v1.42c0,4.52-3.66,8.71-8.18,9.38l-270.17,39.68ZM414.2,192.31c4.52-.66,8.18,2.46,8.18,6.98v1.42c0,4.52-3.66,8.71-8.18,9.38l-270.17,39.68c-4.52.66-8.18-2.46-8.18-6.98v-1.42c0-4.52,3.66-8.71,8.18-9.38l270.17-39.68Zm-190.92-22.57v-1.42c0-4.52,3.66-8.71,8.18-9.38l85.78-12.6c4.52-.66,8.18,2.46,8.18,6.98v1.42c0,4.52-3.66,8.71-8.18,9.38l-85.78,12.6c-4.52.66-8.18-2.46-8.18-6.98Zm644.76-66.37c0,4.52-3.66,8.71-8.18,9.38l-85.78,12.6c-4.52.66-8.18-2.46-8.18-6.98v-1.42c0-4.52,3.66-8.71,8.18-9.38l85.78-12.6c4.52-.66,8.18,2.46,8.18,6.98v1.42Zm177.14-8.96c4.52-.66,8.18,2.46,8.18,6.98v1.42c0,4.52-3.66,8.71-8.18,9.38l-181.09,26.6c-4.52.66-8.18-2.46-8.18-6.98v-1.42c0-4.52,3.66-8.71,8.18-9.38l181.09-26.6Zm-51.99,61.69c4.52-.66,8.18,2.46,8.18,6.98v1.42c0,4.52-3.66,8.71-8.18,9.38l-270.17,39.68c-4.52.66-8.18-2.46-8.18-6.98v-1.42c0-4.52,3.66-8.71,8.18-9.38l270.17-39.68Zm-103.66,905.74c0,4.52-3.66,8.71-8.18,9.38l-270.17,39.68c-4.52.66-8.18-2.46-8.18-6.98v-1.42c0-4.52,3.66-8.71,8.18-9.38l270.17-39.68c4.52-.66,8.18,2.46,8.18,6.98v1.42Zm233.23-6.56c4.52-.66,8.18,2.46,8.18,6.98v1.42c0,4.52-3.66,8.71-8.18,9.38l-323.22,47.47c-4.52.66-8.18-2.46-8.18-6.98v-1.42c0-4.52,3.66-8.71,8.18-9.38l323.22-47.47Zm-364.83-1.78v-1.42c0-4.52,3.66-8.71,8.18-9.38l85.78-12.6c4.52-.66,8.18,2.46,8.18,6.98v1.42c0,4.52-3.66,8.71-8.18,9.38l-85.78,12.6c-4.52.66-8.18-2.46-8.18-6.98Zm85.13-32c-4.52.66-8.18-2.46-8.18-6.98v-1.42c0-4.52,3.66-8.71,8.18-9.38l150.76-22.14c4.52-.66,8.18,2.46,8.18,6.98v1.42c0,4.52-3.66,8.71-8.18,9.38l-150.76,22.14Zm54.01-48.47c0,4.52-3.66,8.71-8.18,9.38l-270.17,39.68c-4.52.66-8.18-2.46-8.18-6.98v-1.42c0-4.52,3.66-8.71,8.18-9.38l270.17-39.68c4.52-.66,8.18,2.46,8.18,6.98v1.42Zm-44.77-424.94c4.52-.66,8.18,2.46,8.18,6.98v1.42c0,4.52-3.66,8.71-8.18,9.38l-270.17,39.68c-4.52.66-8.18-2.46-8.18-6.98v-1.42c0-4.52,3.66-8.71,8.18-9.38l270.17-39.68Zm-144.07-10.17v-1.42c0-4.52,3.66-8.71,8.18-9.38l85.78-12.6c4.52-.66,8.18,2.46,8.18,6.98v1.42c0,4.52-3.66,8.71-8.18,9.38l-85.78,12.6c-4.52.66-8.18-2.46-8.18-6.98Zm399.25,174.5c4.52-.66,8.18,2.46,8.18,6.98v1.42c0,4.52-3.66,8.71-8.18,9.38l-270.17,39.68c-4.52.66-8.18-2.46-8.18-6.98v-1.42c0-4.52,3.66-8.71,8.18-9.38l270.17-39.68Zm-248,7.18v-1.42c0-4.52,3.66-8.71,8.18-9.38l85.78-12.6c4.52-.66,8.18,2.46,8.18,6.98v1.42c0,4.52-3.66,8.71-8.18,9.38l-85.78,12.6c-4.52.66-8.18-2.46-8.18-6.98Zm-12.81-77.69c-4.52.66-8.18-2.46-8.18-6.98v-1.42c0-4.52,3.66-8.71,8.18-9.38l270.17-39.68c4.52-.66,8.18,2.46,8.18,6.98v1.42c0,4.52-3.66,8.71-8.18,9.38l-270.17,39.68Zm105.33-63.34c0,4.52-3.66,8.71-8.18,9.38l-270.17,39.68c-4.52.66-8.18-2.46-8.18-6.98v-1.42c0-4.52,3.66-8.71,8.18-9.38l270.17-39.68c4.52-.66,8.18,2.46,8.18,6.98v1.42Zm-306,36.62v1.42c0,4.52-3.66,8.71-8.18,9.38l-85.78,12.6c-4.52.66-8.18-2.46-8.18-6.98v-1.42c0-4.52,3.66-8.71,8.18-9.38l85.78-12.6c4.52-.66,8.18,2.46,8.18,6.98Zm42.75-81.32c0,4.52-3.66,8.71-8.18,9.38l-270.17,39.68c-4.52.66-8.18-2.46-8.18-6.98v-1.42c0-4.52,3.66-8.71,8.18-9.38l270.17-39.68c4.52-.66,8.18,2.46,8.18,6.98v1.42Zm-173.01-14.28c0,4.52-3.66,8.71-8.18,9.38l-270.17,39.68c-4.52.66-8.18-2.46-8.18-6.98v-1.42c0-4.52,3.66-8.71,8.18-9.38l270.17-39.68c4.52-.66,8.18,2.46,8.18,6.98v1.42Zm-164.79-16.53c-4.52.66-8.18-2.46-8.18-6.98v-1.42c0-4.52,3.66-8.71,8.18-9.38l185.47-27.24c4.52-.66,8.18,2.46,8.18,6.98v1.42c0,4.52-3.66,8.71-8.18,9.38l-185.47,27.24Zm41.67-53.14v-1.42c0-4.52,3.66-8.71,8.18-9.38l85.78-12.6c4.52-.66,8.18,2.46,8.18,6.98v1.42c0,4.52-3.66,8.71-8.18,9.38l-85.78,12.6c-4.52.66-8.18-2.46-8.18-6.98Zm132.47-58.3c0,4.52-3.66,8.71-8.18,9.38l-270.17,39.68c-4.52.66-8.18-2.46-8.18-6.98v-1.42c0-4.52,3.66-8.71,8.18-9.38l270.17-39.68c4.52-.66,8.18,2.46,8.18,6.98v1.42Zm-102.36-4.3c-4.52.66-8.18-2.46-8.18-6.98v-1.42c0-4.52,3.66-8.71,8.18-9.38l334.83-49.18c4.52-.66,8.18,2.46,8.18,6.98v1.42c0,4.52-3.66,8.71-8.18,9.38l-334.83,49.18Zm203-75.21c0,4.52-3.66,8.71-8.18,9.38l-85.78,12.6c-4.52.66-8.18-2.46-8.18-6.98v-1.42c0-4.52,3.66-8.71,8.18-9.38l85.78-12.6c4.52-.66,8.18,2.46,8.18,6.98v1.42Zm-279.27,22.54c-4.52.66-8.18-2.46-8.18-6.98v-1.42c0-4.52,3.66-8.71,8.18-9.38l181.09-26.6c4.52-.66,8.18,2.46,8.18,6.98v1.42c0,4.52-3.66,8.71-8.18,9.38l-181.09,26.6Zm51.99-61.69c-4.52.66-8.18-2.46-8.18-6.98v-1.42c0-4.52,3.66-8.71,8.18-9.38l270.17-39.68c4.52-.66,8.18,2.46,8.18,6.98v1.42c0,4.52-3.66,8.71-8.18,9.38l-270.17,39.68Zm203.7-65.81c0,4.52-3.66,8.71-8.18,9.38l-270.17,39.68c-4.52.66-8.18-2.46-8.18-6.98v-1.42c0-4.52,3.66-8.71,8.18-9.38l270.17-39.68c4.52-.66,8.18,2.46,8.18,6.98v1.42Zm-113.65,120.01c4.52-.66,8.18,2.46,8.18,6.98v1.42c0,4.52-3.66,8.71-8.18,9.38l-270.17,39.68c-4.52.66-8.18-2.46-8.18-6.98v-1.42c0-4.52,3.66-8.71,8.18-9.38l270.17-39.68Zm-25.8,256.97c4.52-.66,8.18,2.46,8.18,6.98v1.42c0,4.52-3.66,8.71-8.18,9.38l-270.17,39.68c-4.52.66-8.18-2.46-8.18-6.98v-1.42c0-4.52,3.66-8.71,8.18-9.38l270.17-39.68Zm-239.11,81.77c0-4.52,3.66-8.71,8.18-9.38l270.17-39.68c4.52-.66,8.18,2.46,8.18,6.98v1.42c0,4.52-3.66,8.71-8.18,9.38l-270.17,39.68c-4.52.66-8.18-2.46-8.18-6.98v-1.42Zm242.79,12.76c0-4.52,3.66-8.71,8.18-9.38l309.11-45.4c4.52-.66,8.18,2.46,8.18,6.98v1.42c0,4.52-3.66,8.71-8.18,9.38l-309.11,45.4c-4.52.66-8.18-2.46-8.18-6.98v-1.42Zm185.88,5.2c0-4.52,3.66-8.71,8.18-9.38l150.76-22.14c4.52-.66,8.18,2.46,8.18,6.98v1.42c0,4.52-3.66,8.71-8.18,9.38l-150.76,22.14c-4.52.66-8.18-2.46-8.18-6.98v-1.42Zm157.36,2.8c0-4.52,3.66-8.71,8.18-9.38l185.47-27.24c4.52-.66,8.18,2.46,8.18,6.98v1.42c0,4.52-3.66,8.71-8.18,9.38l-185.47,27.24c-4.52.66-8.18-2.46-8.18-6.98v-1.42Zm3.35,35.84c4.52-.66,8.18,2.46,8.18,6.98v1.42c0,4.52-3.66,8.71-8.18,9.38l-187.92,27.6c-4.52.66-8.18-2.46-8.18-6.98v-1.42c0-4.52,3.66-8.71,8.18-9.38l187.92-27.6Zm118.51,43.28c4.52-.66,8.18,2.46,8.18,6.98v1.42c0,4.52-3.66,8.71-8.18,9.38l-334.83,49.18c-4.52.66-8.18-2.46-8.18-6.98v-1.42c0-4.52,3.66-8.71,8.18-9.38l334.83-49.18Zm-104.82,97.03c-4.52.66-8.18-2.46-8.18-6.98v-1.42c0-4.52,3.66-8.71,8.18-9.38l181.09-26.6c4.52-.66,8.18,2.46,8.18,6.98v1.42c0,4.52-3.66,8.71-8.18,9.38l-181.09,26.6Zm137.28,24.3v1.42c0,4.52-3.66,8.71-8.18,9.38l-270.17,39.68c-4.52.66-8.18-2.46-8.18-6.98v-1.42c0-4.52,3.66-8.71,8.18-9.38l270.17-39.68c4.52-.66,8.18,2.46,8.18,6.98Zm-133.33-59.71c0,4.52-3.66,8.71-8.18,9.38l-85.78,12.6c-4.52.66-8.18-2.46-8.18-6.98v-1.42c0-4.52,3.66-8.71,8.18-9.38l85.78-12.6c4.52-.66,8.18,2.46,8.18,6.98v1.42Zm-102.13,62.82v1.42c0,4.52-3.66,8.71-8.18,9.38l-85.78,12.6c-4.52.66-8.18-2.46-8.18-6.98v-1.42c0-4.52,3.66-8.71,8.18-9.38l85.78-12.6c4.52-.66,8.18,2.46,8.18,6.98Zm-97.29,49.31c4.52-.66,8.18,2.46,8.18,6.98v1.42c0,4.52-3.66,8.71-8.18,9.38l-270.17,39.68c-4.52.66-8.18-2.46-8.18-6.98v-1.42c0-4.52,3.66-8.71,8.18-9.38l270.17-39.68Zm-42.89,45.95c0-4.52,3.66-8.71,8.18-9.38l85.78-12.6c4.52-.66,8.18,2.46,8.18,6.98v1.42c0,4.52-3.66,8.71-8.18,9.38l-85.78,12.6c-4.52.66-8.18-2.46-8.18-6.98v-1.42Zm171.93-31.15c-4.52.66-8.18-2.46-8.18-6.98v-1.42c0-4.52,3.66-8.71,8.18-9.38l270.17-39.68c4.52-.66,8.18,2.46,8.18,6.98v1.42c0,4.52-3.66,8.71-8.18,9.38l-270.17,39.68Zm105.48-128.4c-4.52.66-8.18-2.46-8.18-6.98v-1.42c0-4.52,3.66-8.71,8.18-9.38l270.17-39.68c4.52-.66,8.18,2.46,8.18,6.98v1.42c0,4.52-3.66,8.71-8.18,9.38l-270.17,39.68Zm25.8-256.97c-4.52.66-8.18-2.46-8.18-6.98v-1.42c0-4.52,3.66-8.71,8.18-9.38l270.17-39.68c4.52-.66,8.18,2.46,8.18,6.98v1.42c0,4.52-3.66,8.71-8.18,9.38l-270.17,39.68Zm239.11-81.77c0,4.52-3.66,8.71-8.18,9.38l-270.17,39.68c-4.52.66-8.18-2.46-8.18-6.98v-1.42c0-4.52,3.66-8.71,8.18-9.38l270.17-39.68c4.52-.66,8.18,2.46,8.18,6.98v1.42Zm-242.79-12.76c0,4.52-3.66,8.71-8.18,9.38l-309.11,45.4c-4.52.66-8.18-2.46-8.18-6.98v-1.42c0-4.52,3.66-8.71,8.18-9.38l309.11-45.4c4.52-.66,8.18,2.46,8.18,6.98v1.42Zm-185.88-5.2c0,4.52-3.66,8.71-8.18,9.38l-150.76,22.14c-4.52.66-8.18-2.46-8.18-6.98v-1.42c0-4.52,3.66-8.71,8.18-9.38l150.76-22.14c4.52-.66,8.18,2.46,8.18,6.98v1.42Zm-56.91-15.97c-4.52.66-8.18-2.46-8.18-6.98v-1.42c0-4.52,3.66-8.71,8.18-9.38l270.17-39.68c4.52-.66,8.18,2.46,8.18,6.98v1.42c0,4.52-3.66,8.71-8.18,9.38l-270.17,39.68Zm92.29-59.65c0,4.52-3.66,8.71-8.18,9.38l-187.92,27.6c-4.52.66-8.18-2.46-8.18-6.98v-1.42c0-4.52,3.66-8.71,8.18-9.38l187.92-27.6c4.52-.66,8.18,2.46,8.18,6.98v1.42Zm-88.73-6.75c-4.52.66-8.18-2.46-8.18-6.98v-1.42c0-4.52,3.66-8.71,8.18-9.38l270.17-39.68c4.52-.66,8.18,2.46,8.18,6.98v1.42c0,4.52-3.66,8.71-8.18,9.38l-270.17,39.68Zm248.87-72.41c0,4.52-3.66,8.71-8.18,9.38l-85.78,12.6c-4.52.66-8.18-2.46-8.18-6.98v-1.42c0-4.52,3.66-8.71,8.18-9.38l85.78-12.6c4.52-.66,8.18,2.46,8.18,6.98v1.42Zm-241.34-16.42c-4.52.66-8.18-2.46-8.18-6.98v-1.42c0-4.52,3.66-8.71,8.18-9.38l270.17-39.68c4.52-.66,8.18,2.46,8.18,6.98v1.42c0,4.52-3.66,8.71-8.18,9.38l-270.17,39.68Zm71.72-50.18c0,4.52-3.66,8.71-8.18,9.38l-85.78,12.6c-4.52.66-8.18-2.46-8.18-6.98v-1.42c0-4.52,3.66-8.71,8.18-9.38l85.78-12.6c4.52-.66,8.18,2.46,8.18,6.98v1.42Zm38.05-80.26c0,4.52-3.66,8.71-8.18,9.38l-85.78,12.6c-4.52.66-8.18-2.46-8.18-6.98v-1.42c0-4.52,3.66-8.71,8.18-9.38l85.78-12.6c4.52-.66,8.18,2.46,8.18,6.98v1.42Zm-22.24-28.2c0,4.52-3.66,8.71-8.18,9.38l-270.17,39.68c-4.52.66-8.18-2.46-8.18-6.98v-1.42c0-4.52,3.66-8.71,8.18-9.38l270.17-39.68c4.52-.66,8.18,2.46,8.18,6.98v1.42Zm-147.39-38.39c0,4.52-3.66,8.71-8.18,9.38l-85.78,12.6c-4.52.66-8.18-2.46-8.18-6.98v-1.42c0-4.52,3.66-8.71,8.18-9.38l85.78-12.6c4.52-.66,8.18,2.46,8.18,6.98v1.42Zm-85.13,30.59c4.52-.66,8.18,2.46,8.18,6.98v1.42c0,4.52-3.66,8.71-8.18,9.38l-150.76,22.14c-4.52.66-8.18-2.46-8.18-6.98v-1.42c0-4.52,3.66-8.71,8.18-9.38l150.76-22.14ZM175.55,707.35c0-4.52,3.66-8.71,8.18-9.38l270.17-39.68c4.52-.66,8.18,2.46,8.18,6.98v1.42c0,4.52-3.66,8.71-8.18,9.38l-270.17,39.68c-4.52.66-8.18-2.46-8.18-6.98v-1.42Zm132.87,21.61c0-4.52,3.66-8.71,8.18-9.38l270.17-39.68c4.52-.66,8.18,2.46,8.18,6.98v1.42c0,4.52-3.66,8.71-8.18,9.38l-270.17,39.68c-4.52.66-8.18-2.46-8.18-6.98v-1.42Zm122.42,19.93c0-4.52,3.66-8.71,8.18-9.38l270.17-39.68c4.52-.66,8.18,2.46,8.18,6.98v1.42c0,4.52-3.66,8.71-8.18,9.38l-270.17,39.68c-4.52.66-8.18-2.46-8.18-6.98v-1.42Zm86.42,7.71c4.52-.66,8.18,2.46,8.18,6.98v1.42c0,4.52-3.66,8.71-8.18,9.38l-323.22,47.47c-4.52.66-8.18-2.46-8.18-6.98v-1.42c0-4.52,3.66-8.71,8.18-9.38l323.22-47.47Zm-89.98,58.68c0-4.52,3.66-8.71,8.18-9.38l270.17-39.68c4.52-.66,8.18,2.46,8.18,6.98v1.42c0,4.52-3.66,8.71-8.18,9.38l-270.17,39.68c-4.52.66-8.18-2.46-8.18-6.98v-1.42Zm131.6,8.35v1.42c0,4.52-3.66,8.71-8.18,9.38l-85.78,12.6c-4.52.66-8.18-2.46-8.18-6.98v-1.42c0-4.52,3.66-8.71,8.18-9.38l85.78-12.6c4.52-.66,8.18,2.46,8.18,6.98Zm-85.13,32c4.52-.66,8.18,2.46,8.18,6.98v1.42c0,4.52-3.66,8.71-8.18,9.38l-150.76,22.14c-4.52.66-8.18-2.46-8.18-6.98v-1.42c0-4.52,3.66-8.71,8.18-9.38l150.76-22.14Zm-54.01,48.47c0-4.52,3.66-8.71,8.18-9.38l270.17-39.68c4.52-.66,8.18,2.46,8.18,6.98v1.42c0,4.52-3.66,8.71-8.18,9.38l-270.17,39.68c-4.52.66-8.18-2.46-8.18-6.98v-1.42Zm136.83,18.69c4.52-.66,8.18,2.46,8.18,6.98v1.42c0,4.52-3.66,8.71-8.18,9.38l-270.17,39.68c-4.52.66-8.18-2.46-8.18-6.98v-1.42c0-4.52,3.66-8.71,8.18-9.38l270.17-39.68Zm-255.7,127.5c0-4.52,3.66-8.71,8.18-9.38l181.09-26.6c4.52-.66,8.18,2.46,8.18,6.98v1.42c0,4.52-3.66,8.71-8.18,9.38l-181.09,26.6c-4.52.66-8.18-2.46-8.18-6.98v-1.42Zm185.32-.57c0-4.52,3.66-8.71,8.18-9.38l85.78-12.6c4.52-.66,8.18,2.46,8.18,6.98v1.42c0,4.52-3.66,8.71-8.18,9.38l-85.78,12.6c-4.52.66-8.18-2.46-8.18-6.98v-1.42Zm233.96-5.32c4.52-.66,8.18,2.46,8.18,6.98v1.42c0,4.52-3.66,8.71-8.18,9.38l-334.83,49.18c-4.52.66-8.18-2.46-8.18-6.98v-1.42c0-4.52,3.66-8.71,8.18-9.38l334.83-49.18Zm-224.5,101.84c0-4.52,3.66-8.71,8.18-9.38l187.92-27.6c4.52-.66,8.18,2.46,8.18,6.98v1.42c0,4.52-3.66,8.71-8.18,9.38l-187.92,27.6c-4.52.66-8.18-2.46-8.18-6.98v-1.42Zm103.8,22.67c0-4.52,3.66-8.71,8.18-9.38l270.17-39.68c4.52-.66,8.18,2.46,8.18,6.98v1.42c0,4.52-3.66,8.71-8.18,9.38l-270.17,39.68c-4.52.66-8.18-2.46-8.18-6.98v-1.42Zm541.81.87c0,4.52-3.66,8.71-8.18,9.38l-270.17,39.68c-4.52.66-8.18-2.46-8.18-6.98v-1.42c0-4.52,3.66-8.71,8.18-9.38l270.17-39.68c4.52-.66,8.18,2.46,8.18,6.98v1.42Zm77.11-79.55c0,4.52-3.66,8.71-8.18,9.38l-270.17,39.68c-4.52.66-8.18-2.46-8.18-6.98v-1.42c0-4.52,3.66-8.71,8.18-9.38l270.17-39.68c4.52-.66,8.18,2.46,8.18,6.98v1.42Zm12.75-85.19v1.42c0,4.52-3.66,8.71-8.18,9.38l-273.76,40.21c-4.52.66-8.18-2.46-8.18-6.98v-1.42c0-4.52,3.66-8.71,8.18-9.38l273.76-40.21c4.52-.66,8.18,2.46,8.18,6.98Zm-202.31-5.27v-1.42c0-4.52,3.66-8.71,8.18-9.38l85.78-12.6c4.52-.66,8.18,2.46,8.18,6.98v1.42c0,4.52-3.66,8.71-8.18,9.38l-85.78,12.6c-4.52.66-8.18-2.46-8.18-6.98Zm189.56-89.46v1.42c0,4.52-3.66,8.71-8.18,9.38l-270.17,39.68c-4.52.66-8.18-2.46-8.18-6.98v-1.42c0-4.52,3.66-8.71,8.18-9.38l270.17-39.68c4.52-.66,8.18,2.46,8.18,6.98Zm-39.69-465.99v1.42c0,4.52-3.66,8.71-8.18,9.38l-270.17,39.68c-4.52.66-8.18-2.46-8.18-6.98v-1.42c0-4.52,3.66-8.71,8.18-9.38l270.17-39.68c4.52-.66,8.18,2.46,8.18,6.98Zm-141.04-28.58c4.52-.66,8.18,2.46,8.18,6.98v1.42c0,4.52-3.66,8.71-8.18,9.38l-270.17,39.68c-4.52.66-8.18-2.46-8.18-6.98v-1.42c0-4.52,3.66-8.71,8.18-9.38l270.17-39.68Zm122.55-84.5c4.52-.66,8.18,2.46,8.18,6.98v1.42c0,4.52-3.66,8.71-8.18,9.38l-323.22,47.47c-4.52.66-8.18-2.46-8.18-6.98v-1.42c0-4.52,3.66-8.71,8.18-9.38l323.22-47.47Zm-93.95-56.92c0-4.52,3.66-8.71,8.18-9.38l85.78-12.6c4.52-.66,8.18,2.46,8.18,6.98v1.42c0,4.52-3.66,8.71-8.18,9.38l-85.78,12.6c-4.52.66-8.18-2.46-8.18-6.98v-1.42Zm-34.99-16.77c4.52-.66,8.18,2.46,8.18,6.98v1.42c0,4.52-3.66,8.71-8.18,9.38l-150.76,22.14c-4.52.66-8.18-2.46-8.18-6.98v-1.42c0-4.52,3.66-8.71,8.18-9.38l150.76-22.14Zm44.76-76.31c0,4.52-3.66,8.71-8.18,9.38l-270.17,39.68c-4.52.66-8.18-2.46-8.18-6.98v-1.42c0-4.52,3.66-8.71,8.18-9.38l270.17-39.68c4.52-.66,8.18,2.46,8.18,6.98v1.42Zm97.3-136.79c4.52-.66,8.18,2.46,8.18,6.98v1.42c0,4.52-3.66,8.71-8.18,9.38l-270.17,39.68c-4.52.66-8.18-2.46-8.18-6.98v-1.42c0-4.52,3.66-8.71,8.18-9.38l270.17-39.68Zm-204.39-2.71c4.52-.66,8.18,2.46,8.18,6.98v1.42c0,4.52-3.66,8.71-8.18,9.38l-334.83,49.18c-4.52.66-8.18-2.46-8.18-6.98v-1.42c0-4.52,3.66-8.71,8.18-9.38l334.83-49.18Zm-225.88.45c4.52-.66,8.18,2.46,8.18,6.98v1.42c0,4.52-3.66,8.71-8.18,9.38l-270.17,39.68c-4.52.66-8.18-2.46-8.18-6.98v-1.42c0-4.52,3.66-8.71,8.18-9.38l270.17-39.68Zm-188.36-9.62c4.52-.66,8.18,2.46,8.18,6.98v1.42c0,4.52-3.66,8.71-8.18,9.38l-323.22,47.47c-4.52.66-8.18-2.46-8.18-6.98v-1.42c0-4.52,3.66-8.71,8.18-9.38l323.22-47.47Zm-418.82,30.3c0-4.52,3.66-8.71,8.18-9.38L414.2,13.81c4.52-.66,8.18,2.46,8.18,6.98v1.42c0,4.52-3.66,8.71-8.18,9.38l-270.17,39.68c-4.52.66-8.18-2.46-8.18-6.98v-1.42Zm-12.75,83.77c0-4.52,3.66-8.71,8.18-9.38l273.76-40.21c4.52-.66,8.18,2.46,8.18,6.98v1.42c0,4.52-3.66,8.71-8.18,9.38l-273.76,40.21c-4.52.66-8.18-2.46-8.18-6.98v-1.42Zm-24.67,640.26c0-4.52,3.66-8.71,8.18-9.38l270.17-39.68c4.52-.66,8.18,2.46,8.18,6.98v1.42c0,4.52-3.66,8.71-8.18,9.38l-270.17,39.68c-4.52.66-8.18-2.46-8.18-6.98v-1.42Zm-12.75,85.19v-1.42c0-4.52,3.66-8.71,8.18-9.38l273.76-40.21c4.52-.66,8.18,2.46,8.18,6.98v1.42c0,4.52-3.66,8.71-8.18,9.38l-273.76,40.21c-4.52.66-8.18-2.46-8.18-6.98Zm202.31,5.27v1.42c0,4.52-3.66,8.71-8.18,9.38l-85.78,12.6c-4.52.66-8.18-2.46-8.18-6.98v-1.42c0-4.52,3.66-8.71,8.18-9.38l85.78-12.6c4.52-.66,8.18,2.46,8.18,6.98Zm-189.56,89.46v-1.42c0-4.52,3.66-8.71,8.18-9.38l270.17-39.68c4.52-.66,8.18,2.46,8.18,6.98v1.42c0,4.52-3.66,8.71-8.18,9.38l-270.17,39.68c-4.52.66-8.18-2.46-8.18-6.98Zm74.31,134.85v-1.42c0-4.52,3.66-8.71,8.18-9.38l270.17-39.68c4.52-.66,8.18,2.46,8.18,6.98v1.42c0,4.52-3.66,8.71-8.18,9.38l-270.17,39.68c-4.52.66-8.18-2.46-8.18-6.98Zm28.41,56.07v-1.42c0-4.52,3.66-8.71,8.18-9.38l270.17-39.68c4.52-.66,8.18,2.46,8.18,6.98v1.42c0,4.52-3.66,8.71-8.18,9.38l-270.17,39.68c-4.52.66-8.18-2.46-8.18-6.98Zm256.17-.2v1.42c0,4.52-3.66,8.71-8.18,9.38l-85.78,12.6c-4.52.66-8.18-2.46-8.18-6.98v-1.42c0-4.52,3.66-8.71,8.18-9.38l85.78-12.6c4.52-.66,8.18,2.46,8.18,6.98Zm-151.98,62.58v-1.42c0-4.52,3.66-8.71,8.18-9.38l185.47-27.24c4.52-.66,8.18,2.46,8.18,6.98v1.42c0,4.52-3.66,8.71-8.18,9.38l-185.47,27.24c-4.52.66-8.18-2.46-8.18-6.98Zm192.07-2.3v-1.42c0-4.52,3.66-8.71,8.18-9.38l150.76-22.14c4.52-.66,8.18,2.46,8.18,6.98v1.42c0,4.52-3.66,8.71-8.18,9.38l-150.76,22.14c-4.52.66-8.18-2.46-8.18-6.98Z" style="fill:none; stroke-width:0px;"/><path d="m714.85,205.17v1.42c0,4.52,3.66,7.64,8.18,6.98l270.17-39.68c4.52-.66,8.18-4.86,8.18-9.38v-1.42c0-4.52-3.66-7.64-8.18-6.98l-270.17,39.68c-4.52.66-8.18,4.86-8.18,9.38Z" style="fill:url(#linear-gradient); stroke-width:0px;"/><path d="m735.5,131.01l-270.17,39.68c-4.52.66-8.18,4.86-8.18,9.38v1.42c0,4.52,3.66,7.64,8.18,6.98l270.17-39.68c4.52-.66,8.18-4.86,8.18-9.38v-1.42c0-4.52-3.66-7.64-8.18-6.98Z" style="fill:url(#linear-gradient-2); stroke-width:0px;"/><path d="m654.31,35.45v1.42c0,4.52,3.66,7.64,8.18,6.98l187.92-27.6c4.52-.66,8.18-4.86,8.18-9.38v-1.42c0-2.27-.92-4.18-2.41-5.44h-16.19l-177.5,26.07c-4.52.66-8.18,4.86-8.18,9.38Z" style="fill:url(#linear-gradient-3); stroke-width:0px;"/><path d="m866.56,37.44v1.42c0,4.52,3.66,7.64,8.18,6.98L1144.9,6.15c3.41-.5,6.32-3.01,7.55-6.15h-86.63l-191.09,28.07c-4.52.66-8.18,4.86-8.18,9.38Z" style="fill:url(#linear-gradient-4); stroke-width:0px;"/><path d="m468.26,24.86v1.42c0,4.52,3.66,7.64,8.18,6.98L702.83,0h-120.97l-105.42,15.48c-4.52.66-8.18,4.86-8.18,9.38Z" style="fill:url(#linear-gradient-5); stroke-width:0px;"/><path d="m573.96,597.14v1.42c0,4.52,3.66,7.64,8.18,6.98l270.17-39.68c4.52-.66,8.18-4.86,8.18-9.38v-1.42c0-4.52-3.66-7.64-8.18-6.98l-270.17,39.68c-4.52.66-8.18,4.86-8.18,9.38Z" style="fill:url(#linear-gradient-6); stroke-width:0px;"/><path d="m593.99,198.76l-270.17,39.68c-4.52.66-8.18,4.86-8.18,9.38v1.42c0,4.52,3.66,7.64,8.18,6.98l270.17-39.68c4.52-.66,8.18-4.86,8.18-9.38v-1.42c0-4.52-3.66-7.64-8.18-6.98Z" style="fill:url(#linear-gradient-7); stroke-width:0px;"/><path d="m223.28,89.42v1.42c0,4.52,3.66,7.64,8.18,6.98l323.22-47.47c4.52-.66,8.18-4.86,8.18-9.38v-1.42c0-4.52-3.66-7.64-8.18-6.98l-323.22,47.47c-4.52.66-8.18,4.86-8.18,9.38Z" style="fill:url(#linear-gradient-8); stroke-width:0px;"/><path d="m345.84,6.34c0,4.52,3.66,7.64,8.18,6.98L444.7,0h-97.36c-.94,1.47-1.5,3.17-1.5,4.93v1.42Z" style="fill:url(#linear-gradient-9); stroke-width:0px;"/><path d="m144.03,71.26L414.2,31.58c4.52-.66,8.18-4.86,8.18-9.38v-1.42c0-4.52-3.66-7.64-8.18-6.98L144.03,53.49c-4.52.66-8.18,4.86-8.18,9.38v1.42c0,4.52,3.66,7.64,8.18,6.98Z" style="fill:url(#linear-gradient-10); stroke-width:0px;"/><path d="m894.97,93.52v1.42c0,4.52,3.66,7.64,8.18,6.98l270.17-39.68c4.52-.66,8.18-4.86,8.18-9.38v-1.42c0-4.52-3.66-7.64-8.18-6.98l-270.17,39.68c-4.52.66-8.18,4.86-8.18,9.38Z" style="fill:url(#linear-gradient-11); stroke-width:0px;"/><path d="m625.91,100.3v1.42c0,4.52,3.66,7.64,8.18,6.98l334.83-49.18c4.52-.66,8.18-4.86,8.18-9.38v-1.42c0-4.52-3.66-7.64-8.18-6.98l-334.83,49.18c-4.52.66-8.18,4.86-8.18,9.38Z" style="fill:url(#linear-gradient-12); stroke-width:0px;"/><path d="m464.69,91.25v1.42c0,4.52,3.66,7.64,8.18,6.98l270.17-39.68c4.52-.66,8.18-4.86,8.18-9.38v-1.42c0-4.52-3.66-7.64-8.18-6.98l-270.17,39.68c-4.52.66-8.18,4.86-8.18,9.38Z" style="fill:url(#linear-gradient-13); stroke-width:0px;"/><path d="m135.86,241.37v1.42c0,4.52,3.66,7.64,8.18,6.98l270.17-39.68c4.52-.66,8.18-4.86,8.18-9.38v-1.42c0-4.52-3.66-7.64-8.18-6.98l-270.17,39.68c-4.52.66-8.18,4.86-8.18,9.38Z" style="fill:url(#linear-gradient-14); stroke-width:0px;"/><path d="m855.92,130.39v1.42c0,4.52,3.66,7.64,8.18,6.98l181.09-26.6c4.52-.66,8.18-4.86,8.18-9.38v-1.42c0-4.52-3.66-7.64-8.18-6.98l-181.09,26.6c-4.52.66-8.18,4.86-8.18,9.38Z" style="fill:url(#linear-gradient-15); stroke-width:0px;"/><path d="m352.23,163.12v1.42c0,4.52,3.66,7.64,8.18,6.98l150.76-22.14c4.52-.66,8.18-4.86,8.18-9.38v-1.42c0-4.52-3.66-7.64-8.18-6.98l-150.76,22.14c-4.52.66-8.18,4.86-8.18,9.38Z" style="fill:url(#linear-gradient-16); stroke-width:0px;"/><path d="m757.74,159.22l-85.78,12.6c-4.52.66-8.18,4.86-8.18,9.38v1.42c0,4.52,3.66,7.64,8.18,6.98l85.78-12.6c4.52-.66,8.18-4.86,8.18-9.38v-1.42c0-4.52-3.66-7.64-8.18-6.98Z" style="fill:url(#linear-gradient-17); stroke-width:0px;"/><path d="m859.87,94.98l-85.78,12.6c-4.52.66-8.18,4.86-8.18,9.38v1.42c0,4.52,3.66,7.64,8.18,6.98l85.78-12.6c4.52-.66,8.18-4.86,8.18-9.38v-1.42c0-4.52-3.66-7.64-8.18-6.98Z" style="fill:url(#linear-gradient-18); stroke-width:0px;"/><path d="m905.08,2.54l17.28-2.54h-24c1.48,1.91,3.93,2.95,6.72,2.54Z" style="fill:url(#linear-gradient-19); stroke-width:0px;"/><path d="m588.12,92.62l-85.78,12.6c-4.52.66-8.18,4.86-8.18,9.38v1.42c0,4.52,3.66,7.64,8.18,6.98l85.78-12.6c4.52-.66,8.18-4.86,8.18-9.38v-1.42c0-4.52-3.66-7.64-8.18-6.98Z" style="fill:url(#linear-gradient-20); stroke-width:0px;"/><path d="m231.46,176.72l85.78-12.6c4.52-.66,8.18-4.86,8.18-9.38v-1.42c0-4.52-3.66-7.64-8.18-6.98l-85.78,12.6c-4.52.66-8.18,4.86-8.18,9.38v1.42c0,4.52,3.66,7.64,8.18,6.98Z" style="fill:url(#linear-gradient-21); stroke-width:0px;"/><path d="m131.28,155.03l273.76-40.21c4.52-.66,8.18-4.86,8.18-9.38v-1.42c0-4.52-3.66-7.64-8.18-6.98l-273.76,40.21c-4.52.66-8.18,4.86-8.18,9.38v1.42c0,4.52,3.66,7.64,8.18,6.98Z" style="fill:url(#linear-gradient-22); stroke-width:0px;"/><path d="m676.8,223.9v-1.42c0-4.52-3.66-7.64-8.18-6.98l-270.17,39.68c-4.52.66-8.18,4.86-8.18,9.38v1.42c0,4.52,3.66,7.64,8.18,6.98l270.17-39.68c4.52-.66,8.18-4.86,8.18-9.38Z" style="fill:url(#linear-gradient-23); stroke-width:0px;"/><path d="m934.49,248.99v-1.42c0-4.52-3.66-7.64-8.18-6.98l-270.17,39.68c-4.52.66-8.18,4.86-8.18,9.38v1.42c0,4.52,3.66,7.64,8.18,6.98l270.17-39.68c4.52-.66,8.18-4.86,8.18-9.38Z" style="fill:url(#linear-gradient-24); stroke-width:0px;"/><path d="m729.17,385.23l-187.92,27.6c-4.52.66-8.18,4.86-8.18,9.38v1.42c0,4.52,3.66,7.64,8.18,6.98l187.92-27.6c4.52-.66,8.18-4.86,8.18-9.38v-1.42c0-4.52-3.66-7.64-8.18-6.98Z" style="fill:url(#linear-gradient-25); stroke-width:0px;"/><path d="m516.92,383.23l-270.17,39.68c-4.52.66-8.18,4.86-8.18,9.38v1.42c0,4.52,3.66,7.64,8.18,6.98l270.17-39.68c4.52-.66,8.18-4.86,8.18-9.38v-1.42c0-4.52-3.66-7.64-8.18-6.98Z" style="fill:url(#linear-gradient-26); stroke-width:0px;"/><path d="m923.39,404.2v-1.42c0-4.52-3.66-7.64-8.18-6.98l-270.17,39.68c-4.52.66-8.18,4.86-8.18,9.38v1.42c0,4.52,3.66,7.64,8.18,6.98l270.17-39.68c4.52-.66,8.18-4.86,8.18-9.38Z" style="fill:url(#linear-gradient-27); stroke-width:0px;"/><path d="m1067.83,172.85l-270.17,39.68c-4.52.66-8.18,4.86-8.18,9.38v1.42c0,4.52,3.66,7.64,8.18,6.98l270.17-39.68c4.52-.66,8.18-4.86,8.18-9.38v-1.42c0-4.52-3.66-7.64-8.18-6.98Z" style="fill:url(#linear-gradient-28); stroke-width:0px;"/><path d="m828.8,388.1v1.42c0,4.52,3.66,7.64,8.18,6.98l323.22-47.47c4.52-.66,8.18-4.86,8.18-9.38v-1.42c0-4.52-3.66-7.64-8.18-6.98l-323.22,47.47c-4.52.66-8.18,4.86-8.18,9.38Z" style="fill:url(#linear-gradient-29); stroke-width:0px;"/><path d="m759.3,464.81v1.42c0,4.52,3.66,7.64,8.18,6.98l270.17-39.68c4.52-.66,8.18-4.86,8.18-9.38v-1.42c0-4.52-3.66-7.64-8.18-6.98l-270.17,39.68c-4.52.66-8.18,4.86-8.18,9.38Z" style="fill:url(#linear-gradient-30); stroke-width:0px;"/><path d="m969.28,406.86v1.42c0,4.52,3.66,7.64,8.18,6.98l269.35-39.56v-17.77l-269.35,39.56c-4.52.66-8.18,4.86-8.18,9.38Z" style="fill:url(#linear-gradient-31); stroke-width:0px;"/><path d="m544.6,466.44v-1.42c0-4.52-3.66-7.64-8.18-6.98l-185.47,27.24c-4.52.66-8.18,4.86-8.18,9.38v1.42c0,4.52,3.66,7.64,8.18,6.98l185.47-27.24c4.52-.66,8.18-4.86,8.18-9.38Z" style="fill:url(#linear-gradient-32); stroke-width:0px;"/><path d="m507.56,511.19l-270.17,39.68c-4.52.66-8.18,4.86-8.18,9.38v1.42c0,4.52,3.66,7.64,8.18,6.98l270.17-39.68c4.52-.66,8.18-4.86,8.18-9.38v-1.42c0-4.52-3.66-7.64-8.18-6.98Z" style="fill:url(#linear-gradient-33); stroke-width:0px;"/><path d="m892.16,486.41v1.42c0,4.52,3.66,7.64,8.18,6.98l270.17-39.68c4.52-.66,8.18-4.86,8.18-9.38v-1.42c0-4.52-3.66-7.64-8.18-6.98l-270.17,39.68c-4.52.66-8.18,4.86-8.18,9.38Z" style="fill:url(#linear-gradient-34); stroke-width:0px;"/><path d="m879.66,466.05l-309.11,45.4c-4.52.66-8.18,4.86-8.18,9.38v1.42c0,4.52,3.66,7.64,8.18,6.98l309.11-45.4c4.52-.66,8.18-4.86,8.18-9.38v-1.42c0-4.52-3.66-7.64-8.18-6.98Z" style="fill:url(#linear-gradient-35); stroke-width:0px;"/><path d="m1122.45,478.8l-270.17,39.68c-4.52.66-8.18,4.86-8.18,9.38v1.42c0,4.52,3.66,7.64,8.18,6.98l270.17-39.68c4.52-.66,8.18-4.86,8.18-9.38v-1.42c0-4.52-3.66-7.64-8.18-6.98Z" style="fill:url(#linear-gradient-36); stroke-width:0px;"/><path d="m184.37,633.19v1.42c0,4.52,3.66,7.64,8.18,6.98l270.17-39.68c4.52-.66,8.18-4.86,8.18-9.38v-1.42c0-4.52-3.66-7.64-8.18-6.98l-270.17,39.68c-4.52.66-8.18,4.86-8.18,9.38Z" style="fill:url(#linear-gradient-37); stroke-width:0px;"/><path d="m680.57,525.47l-270.17,39.68c-4.52.66-8.18,4.86-8.18,9.38v1.42c0,4.52,3.66,7.64,8.18,6.98l270.17-39.68c4.52-.66,8.18-4.86,8.18-9.38v-1.42c0-4.52-3.66-7.64-8.18-6.98Z" style="fill:url(#linear-gradient-38); stroke-width:0px;"/><path d="m210.17,376.22v1.42c0,4.52,3.66,7.64,8.18,6.98l270.17-39.68c4.52-.66,8.18-4.86,8.18-9.38v-1.42c0-4.52-3.66-7.64-8.18-6.98l-270.17,39.68c-4.52.66-8.18,4.86-8.18,9.38Z" style="fill:url(#linear-gradient-39); stroke-width:0px;"/><path d="m765.74,328.76v-1.42c0-4.52-3.66-7.64-8.18-6.98l-334.83,49.18c-4.52.66-8.18,4.86-8.18,9.38v1.42c0,4.52,3.66,7.64,8.18,6.98l334.83-49.18c4.52-.66,8.18-4.86,8.18-9.38Z" style="fill:url(#linear-gradient-40); stroke-width:0px;"/><path d="m926.96,337.81v-1.42c0-4.52-3.66-7.64-8.18-6.98l-270.17,39.68c-4.52.66-8.18,4.86-8.18,9.38v1.42c0,4.52,3.66,7.64,8.18,6.98l270.17-39.68c4.52-.66,8.18-4.86,8.18-9.38Z" style="fill:url(#linear-gradient-41); stroke-width:0px;"/><path d="m969.28,228.37v1.42c0,4.52,3.66,7.64,8.18,6.98l269.35-39.56v-17.77l-269.35,39.56c-4.52.66-8.18,4.86-8.18,9.38Z" style="fill:url(#linear-gradient-42); stroke-width:0px;"/><path d="m535.73,298.68v-1.42c0-4.52-3.66-7.64-8.18-6.98l-181.09,26.6c-4.52.66-8.18,4.86-8.18,9.38v1.42c0,4.52,3.66,7.64,8.18,6.98l181.09-26.6c4.52-.66,8.18-4.86,8.18-9.38Z" style="fill:url(#linear-gradient-43); stroke-width:0px;"/><path d="m872.31,289.07v1.42c0,4.52,3.66,7.64,8.18,6.98l150.76-22.14c4.52-.66,8.18-4.86,8.18-9.38v-1.42c0-4.52-3.66-7.64-8.18-6.98l-150.76,22.14c-4.52.66-8.18,4.86-8.18,9.38Z" style="fill:url(#linear-gradient-44); stroke-width:0px;"/><path d="m719.69,239.48l-85.78,12.6c-4.52.66-8.18,4.86-8.18,9.38v1.42c0,4.52,3.66,7.64,8.18,6.98l85.78-12.6c4.52-.66,8.18-4.86,8.18-9.38v-1.42c0-4.52-3.66-7.64-8.18-6.98Z" style="fill:url(#linear-gradient-45); stroke-width:0px;"/><path d="m617.56,303.72l-85.78,12.6c-4.52.66-8.18,4.86-8.18,9.38v1.42c0,4.52,3.66,7.64,8.18,6.98l85.78-12.6c4.52-.66,8.18-4.86,8.18-9.38v-1.42c0-4.52-3.66-7.64-8.18-6.98Z" style="fill:url(#linear-gradient-46); stroke-width:0px;"/><path d="m400.8,456.89l85.78-12.6c4.52-.66,8.18-4.86,8.18-9.38v-1.42c0-4.52-3.66-7.64-8.18-6.98l-85.78,12.6c-4.52.66-8.18,4.86-8.18,9.38v1.42c0,4.52,3.66,7.64,8.18,6.98Z" style="fill:url(#linear-gradient-47); stroke-width:0px;"/><path d="m889.31,306.08l-85.78,12.6c-4.52.66-8.18,4.86-8.18,9.38v1.42c0,4.52,3.66,7.64,8.18,6.98l85.78-12.6c4.52-.66,8.18-4.86,8.18-9.38v-1.42c0-4.52-3.66-7.64-8.18-6.98Z" style="fill:url(#linear-gradient-48); stroke-width:0px;"/><path d="m1074.42,282.72l85.78-12.6c4.52-.66,8.18-4.86,8.18-9.38v-1.42c0-4.52-3.66-7.64-8.18-6.98l-85.78,12.6c-4.52.66-8.18,4.86-8.18,9.38v1.42c0,4.52,3.66,7.64,8.18,6.98Z" style="fill:url(#linear-gradient-49); stroke-width:0px;"/><path d="m716.41,544.89l85.78-12.6c4.52-.66,8.18-4.86,8.18-9.38v-1.42c0-4.52-3.66-7.64-8.18-6.98l-85.78,12.6c-4.52.66-8.18,4.86-8.18,9.38v1.42c0,4.52,3.66,7.64,8.18,6.98Z" style="fill:url(#linear-gradient-50); stroke-width:0px;"/><path d="m693.78,460.84l-150.76,22.14c-4.52.66-8.18,4.86-8.18,9.38v1.42c0,4.52,3.66,7.64,8.18,6.98l150.76-22.14c4.52-.66,8.18-4.86,8.18-9.38v-1.42c0-4.52-3.66-7.64-8.18-6.98Z" style="fill:url(#linear-gradient-51); stroke-width:0px;"/><path d="m978.44,323.62v1.42c0,4.52,3.66,7.64,8.18,6.98l260.19-38.22v-17.77l-260.19,38.22c-4.52.66-8.18,4.86-8.18,9.38Z" style="fill:url(#linear-gradient-52); stroke-width:0px;"/><path d="m955.77,880.14l-270.17,39.68c-4.52.66-8.18,4.86-8.18,9.38v1.42c0,4.52,3.66,7.64,8.18,6.98l270.17-39.68c4.52-.66,8.18-4.86,8.18-9.38v-1.42c0-4.52-3.66-7.64-8.18-6.98Z" style="fill:url(#linear-gradient-53); stroke-width:0px;"/><path d="m427.91,912.5l270.17-39.68c4.52-.66,8.18-4.86,8.18-9.38v-1.42c0-4.52-3.66-7.64-8.18-6.98l-270.17,39.68c-4.52.66-8.18,4.86-8.18,9.38v1.42c0,4.52,3.66,7.64,8.18,6.98Z" style="fill:url(#linear-gradient-54); stroke-width:0px;"/><path d="m616.89,759.48v1.42c0,4.52,3.66,7.64,8.18,6.98l187.92-27.6c4.52-.66,8.18-4.86,8.18-9.38v-1.42c0-4.52-3.66-7.64-8.18-6.98l-187.92,27.6c-4.52.66-8.18,4.86-8.18,9.38Z" style="fill:url(#linear-gradient-55); stroke-width:0px;"/><path d="m829.14,761.47v1.42c0,4.52,3.66,7.64,8.18,6.98l270.17-39.68c4.52-.66,8.18-4.86,8.18-9.38v-1.42c0-4.52-3.66-7.64-8.18-6.98l-270.17,39.68c-4.52.66-8.18,4.86-8.18,9.38Z" style="fill:url(#linear-gradient-56); stroke-width:0px;"/><path d="m439.01,757.28l270.17-39.68c4.52-.66,8.18-4.86,8.18-9.38v-1.42c0-4.52-3.66-7.64-8.18-6.98l-270.17,39.68c-4.52.66-8.18,4.86-8.18,9.38v1.42c0,4.52,3.66,7.64,8.18,6.98Z" style="fill:url(#linear-gradient-57); stroke-width:0px;"/><path d="m278.22,971.85v1.42c0,4.52,3.66,7.64,8.18,6.98l270.17-39.68c4.52-.66,8.18-4.86,8.18-9.38v-1.42c0-4.52-3.66-7.64-8.18-6.98l-270.17,39.68c-4.52.66-8.18,4.86-8.18,9.38Z" style="fill:url(#linear-gradient-58); stroke-width:0px;"/><path d="m185.86,813.46v1.42c0,4.52,3.66,7.64,8.18,6.98l323.22-47.47c4.52-.66,8.18-4.86,8.18-9.38v-1.42c0-4.52-3.66-7.64-8.18-6.98l-323.22,47.47c-4.52.66-8.18,4.86-8.18,9.38Z" style="fill:url(#linear-gradient-59); stroke-width:0px;"/><path d="m316.59,737.35l270.17-39.68c4.52-.66,8.18-4.86,8.18-9.38v-1.42c0-4.52-3.66-7.64-8.18-6.98l-270.17,39.68c-4.52.66-8.18,4.86-8.18,9.38v1.42c0,4.52,3.66,7.64,8.18,6.98Z" style="fill:url(#linear-gradient-60); stroke-width:0px;"/><path d="m106.61,795.29l270.17-39.68c4.52-.66,8.18-4.86,8.18-9.38v-1.42c0-4.52-3.66-7.64-8.18-6.98l-270.17,39.68c-4.52.66-8.18,4.86-8.18,9.38v1.42c0,4.52,3.66,7.64,8.18,6.98Z" style="fill:url(#linear-gradient-61); stroke-width:0px;"/><path d="m817.81,695.05l185.47-27.24c4.52-.66,8.18-4.86,8.18-9.38v-1.42c0-4.52-3.66-7.64-8.18-6.98l-185.47,27.24c-4.52.66-8.18,4.86-8.18,9.38v1.42c0,4.52,3.66,7.64,8.18,6.98Z" style="fill:url(#linear-gradient-62); stroke-width:0px;"/><path d="m1125.02,592.85v-1.42c0-4.52-3.66-7.64-8.18-6.98l-270.17,39.68c-4.52.66-8.18,4.86-8.18,9.38v1.42c0,4.52,3.66,7.64,8.18,6.98l270.17-39.68c4.52-.66,8.18-4.86,8.18-9.38Z" style="fill:url(#linear-gradient-63); stroke-width:0px;"/><path d="m183.73,715.74l270.17-39.68c4.52-.66,8.18-4.86,8.18-9.38v-1.42c0-4.52-3.66-7.64-8.18-6.98l-270.17,39.68c-4.52.66-8.18,4.86-8.18,9.38v1.42c0,4.52,3.66,7.64,8.18,6.98Z" style="fill:url(#linear-gradient-64); stroke-width:0px;"/><path d="m474.57,687.05l309.11-45.4c4.52-.66,8.18-4.86,8.18-9.38v-1.42c0-4.52-3.66-7.64-8.18-6.98l-309.11,45.4c-4.52.66-8.18,4.86-8.18,9.38v1.42c0,4.52,3.66,7.64,8.18,6.98Z" style="fill:url(#linear-gradient-65); stroke-width:0px;"/><path d="m231.78,674.29l270.17-39.68c4.52-.66,8.18-4.86,8.18-9.38v-1.42c0-4.52-3.66-7.64-8.18-6.98l-270.17,39.68c-4.52.66-8.18,4.86-8.18,9.38v1.42c0,4.52,3.66,7.64,8.18,6.98Z" style="fill:url(#linear-gradient-66); stroke-width:0px;"/><path d="m1169.86,519.91v-1.42c0-4.52-3.66-7.64-8.18-6.98l-270.17,39.68c-4.52.66-8.18,4.86-8.18,9.38v1.42c0,4.52,3.66,7.64,8.18,6.98l270.17-39.68c4.52-.66,8.18-4.86,8.18-9.38Z" style="fill:url(#linear-gradient-67); stroke-width:0px;"/><path d="m943.83,570.17l-270.17,39.68c-4.52.66-8.18,4.86-8.18,9.38v1.42c0,4.52,3.66,7.64,8.18,6.98l270.17-39.68c4.52-.66,8.18-4.86,8.18-9.38v-1.42c0-4.52-3.66-7.64-8.18-6.98Z" style="fill:url(#linear-gradient-68); stroke-width:0px;"/><path d="m1144.06,776.88v-1.42c0-4.52-3.66-7.64-8.18-6.98l-270.17,39.68c-4.52.66-8.18,4.86-8.18,9.38v1.42c0,4.52,3.66,7.64,8.18,6.98l270.17-39.68c4.52-.66,8.18-4.86,8.18-9.38Z" style="fill:url(#linear-gradient-69); stroke-width:0px;"/><path d="m588.49,824.33v1.42c0,4.52,3.66,7.64,8.18,6.98l334.83-49.18c4.52-.66,8.18-4.86,8.18-9.38v-1.42c0-4.52-3.66-7.64-8.18-6.98l-334.83,49.18c-4.52.66-8.18,4.86-8.18,9.38Z" style="fill:url(#linear-gradient-70); stroke-width:0px;"/><path d="m435.45,823.67l270.17-39.68c4.52-.66,8.18-4.86,8.18-9.38v-1.42c0-4.52-3.66-7.64-8.18-6.98l-270.17,39.68c-4.52.66-8.18,4.86-8.18,9.38v1.42c0,4.52,3.66,7.64,8.18,6.98Z" style="fill:url(#linear-gradient-71); stroke-width:0px;"/><path d="m384.96,924.73v-1.42c0-4.52-3.66-7.64-8.18-6.98l-270.17,39.68c-4.52.66-8.18,4.86-8.18,9.38v1.42c0,4.52,3.66,7.64,8.18,6.98l270.17-39.68c4.52-.66,8.18-4.86,8.18-9.38Z" style="fill:url(#linear-gradient-72); stroke-width:0px;"/><path d="m1015.94,826.83v-1.42c0-4.52-3.66-7.64-8.18-6.98l-181.09,26.6c-4.52.66-8.18,4.86-8.18,9.38v1.42c0,4.52,3.66,7.64,8.18,6.98l181.09-26.6c4.52-.66,8.18-4.86,8.18-9.38Z" style="fill:url(#linear-gradient-73); stroke-width:0px;"/><path d="m314.81,887.15v1.42c0,4.52,3.66,7.64,8.18,6.98l150.76-22.14c4.52-.66,8.18-4.86,8.18-9.38v-1.42c0-4.52-3.66-7.64-8.18-6.98l-150.76,22.14c-4.52.66-8.18,4.86-8.18,9.38Z" style="fill:url(#linear-gradient-74); stroke-width:0px;"/><path d="m626.37,905.23v1.42c0,4.52,3.66,7.64,8.18,6.98l85.78-12.6c4.52-.66,8.18-4.86,8.18-9.38v-1.42c0-4.52-3.66-7.64-8.18-6.98l-85.78,12.6c-4.52.66-8.18,4.86-8.18,9.38Z" style="fill:url(#linear-gradient-75); stroke-width:0px;"/><path d="m822.45,819.01l-85.78,12.6c-4.52.66-8.18,4.86-8.18,9.38v1.42c0,4.52,3.66,7.64,8.18,6.98l85.78-12.6c4.52-.66,8.18-4.86,8.18-9.38v-1.42c0-4.52-3.66-7.64-8.18-6.98Z" style="fill:url(#linear-gradient-76); stroke-width:0px;"/><path d="m867.66,726.57l85.78-12.6c4.52-.66,8.18-4.86,8.18-9.38v-1.42c0-4.52-3.66-7.64-8.18-6.98l-85.78,12.6c-4.52.66-8.18,4.86-8.18,9.38v1.42c0,4.52,3.66,7.64,8.18,6.98Z" style="fill:url(#linear-gradient-77); stroke-width:0px;"/><path d="m550.7,816.65l-85.78,12.6c-4.52.66-8.18,4.86-8.18,9.38v1.42c0,4.52,3.66,7.64,8.18,6.98l85.78-12.6c4.52-.66,8.18-4.86,8.18-9.38v-1.42c0-4.52-3.66-7.64-8.18-6.98Z" style="fill:url(#linear-gradient-78); stroke-width:0px;"/><path d="m279.81,870.38l-85.78,12.6c-4.52.66-8.18,4.86-8.18,9.38v1.42c0,4.52,3.66,7.64,8.18,6.98l85.78-12.6c4.52-.66,8.18-4.86,8.18-9.38v-1.42c0-4.52-3.66-7.64-8.18-6.98Z" style="fill:url(#linear-gradient-79); stroke-width:0px;"/><path d="m637.82,608.21l-85.78,12.6c-4.52.66-8.18,4.86-8.18,9.38v1.42c0,4.52,3.66,7.64,8.18,6.98l85.78-12.6c4.52-.66,8.18-4.86,8.18-9.38v-1.42c0-4.52-3.66-7.64-8.18-6.98Z" style="fill:url(#linear-gradient-80); stroke-width:0px;"/><path d="m660.45,692.25l150.76-22.14c4.52-.66,8.18-4.86,8.18-9.38v-1.42c0-4.52-3.66-7.64-8.18-6.98l-150.76,22.14c-4.52.66-8.18,4.86-8.18,9.38v1.42c0,4.52,3.66,7.64,8.18,6.98Z" style="fill:url(#linear-gradient-81); stroke-width:0px;"/><path d="m375.79,829.48v-1.42c0-4.52-3.66-7.64-8.18-6.98l-273.76,40.21c-4.52.66-8.18,4.86-8.18,9.38v1.42c0,4.52,3.66,7.64,8.18,6.98l273.76-40.21c4.52-.66,8.18-4.86,8.18-9.38Z" style="fill:url(#linear-gradient-82); stroke-width:0px;"/><path d="m352.86,988.6v1.42c0,4.52,3.66,7.64,8.18,6.98l270.17-39.68c4.52-.66,8.18-4.86,8.18-9.38v-1.42c0-4.52-3.66-7.64-8.18-6.98l-270.17,39.68c-4.52.66-8.18,4.86-8.18,9.38Z" style="fill:url(#linear-gradient-83); stroke-width:0px;"/><path d="m888.9,964.63l-270.17,39.68c-4.52.66-8.18,4.86-8.18,9.38v1.42c0,4.52,3.66,7.64,8.18,6.98l270.17-39.68c4.52-.66,8.18-4.86,8.18-9.38v-1.42c0-4.52-3.66-7.64-8.18-6.98Z" style="fill:url(#linear-gradient-84); stroke-width:0px;"/><path d="m503.82,1154.63l187.92-27.6c4.52-.66,8.18-4.86,8.18-9.38v-1.42c0-4.52-3.66-7.64-8.18-6.98l-187.92,27.6c-4.52.66-8.18,4.86-8.18,9.38v1.42c0,4.52,3.66,7.64,8.18,6.98Z" style="fill:url(#linear-gradient-85); stroke-width:0px;"/><path d="m487.67,1115.65v-1.42c0-4.52-3.66-7.64-8.18-6.98l-270.17,39.68c-4.52.66-8.18,4.86-8.18,9.38v1.42c0,4.52,3.66,7.64,8.18,6.98l270.17-39.68c4.52-.66,8.18-4.86,8.18-9.38Z" style="fill:url(#linear-gradient-86); stroke-width:0px;"/><path d="m607.63,1177.29l270.17-39.68c4.52-.66,8.18-4.86,8.18-9.38v-1.42c0-4.52-3.66-7.64-8.18-6.98l-270.17,39.68c-4.52.66-8.18,4.86-8.18,9.38v1.42c0,4.52,3.66,7.64,8.18,6.98Z" style="fill:url(#linear-gradient-87); stroke-width:0px;"/><path d="m1038.59,905.28v-1.42c0-4.52-3.66-7.64-8.18-6.98l-270.17,39.68c-4.52.66-8.18,4.86-8.18,9.38v1.42c0,4.52,3.66,7.64,8.18,6.98l270.17-39.68c4.52-.66,8.18-4.86,8.18-9.38Z" style="fill:url(#linear-gradient-88); stroke-width:0px;"/><path d="m791.38,1112.13v1.42c0,4.52,3.66,7.64,8.18,6.98l323.22-47.47c4.52-.66,8.18-4.86,8.18-9.38v-1.42c0-4.52-3.66-7.64-8.18-6.98l-323.22,47.47c-4.52.66-8.18,4.86-8.18,9.38Z" style="fill:url(#linear-gradient-89); stroke-width:0px;"/><path d="m1008.39,1148.17v-1.42c0-4.52-3.66-7.64-8.18-6.98l-270.17,39.68c-4.52.66-8.18,4.86-8.18,9.38v1.42c0,4.52,3.66,7.64,8.18,6.98l270.17-39.68c4.52-.66,8.18-4.86,8.18-9.38Z" style="fill:url(#linear-gradient-90); stroke-width:0px;"/><path d="m1210.2,1081.84l-270.17,39.68c-4.52.66-8.18,4.86-8.18,9.38v1.42c0,4.52,3.66,7.64,8.18,6.98l270.17-39.68c4.52-.66,8.18-4.86,8.18-9.38v-1.42c0-4.52-3.66-7.64-8.18-6.98Z" style="fill:url(#linear-gradient-91); stroke-width:0px;"/><path d="m507.17,1190.47v-1.42c0-4.52-3.66-7.64-8.18-6.98l-185.47,27.24c-4.52.66-8.18,4.86-8.18,9.38v1.42c0,4.52,3.66,7.64,8.18,6.98l185.47-27.24c4.52-.66,8.18-4.86,8.18-9.38Z" style="fill:url(#linear-gradient-92); stroke-width:0px;"/><path d="m1133.08,1161.38l-270.17,39.68c-4.52.66-8.18,4.86-8.18,9.38v1.42c0,4.52,3.66,7.64,8.18,6.98l270.17-39.68c4.52-.66,8.18-4.86,8.18-9.38v-1.42c0-4.52-3.66-7.64-8.18-6.98Z" style="fill:url(#linear-gradient-93); stroke-width:0px;"/><path d="m850.42,1198.47v-1.42c0-4.52-3.66-7.64-8.18-6.98l-296.31,43.52h120.97l175.33-25.75c4.52-.66,8.18-4.86,8.18-9.38Z" style="fill:url(#linear-gradient-94); stroke-width:0px;"/><path d="m1093.2,1211.23v-1.42c0-4.52-3.66-7.64-8.18-6.98l-209.46,30.76h120.97l88.48-13c4.52-.66,8.18-4.86,8.18-9.38Z" style="fill:url(#linear-gradient-95); stroke-width:0px;"/><path d="m459.27,1059.58v-1.42c0-4.52-3.66-7.64-8.18-6.98l-270.17,39.68c-4.52.66-8.18,4.86-8.18,9.38v1.42c0,4.52,3.66,7.64,8.18,6.98l270.17-39.68c4.52-.66,8.18-4.86,8.18-9.38Z" style="fill:url(#linear-gradient-96); stroke-width:0px;"/><path d="m377.14,1102.96v1.42c0,4.52,3.66,7.64,8.18,6.98l334.83-49.18c4.52-.66,8.18-4.86,8.18-9.38v-1.42c0-4.52-3.66-7.64-8.18-6.98l-334.83,49.18c-4.52.66-8.18,4.86-8.18,9.38Z" style="fill:url(#linear-gradient-97); stroke-width:0px;"/><path d="m881.36,1053.45l-270.17,39.68c-4.52.66-8.18,4.86-8.18,9.38v1.42c0,4.52,3.66,7.64,8.18,6.98l270.17-39.68c4.52-.66,8.18-4.86,8.18-9.38v-1.42c0-4.52-3.66-7.64-8.18-6.98Z" style="fill:url(#linear-gradient-98); stroke-width:0px;"/><path d="m931.86,952.4v1.42c0,4.52,3.66,7.64,8.18,6.98l270.17-39.68c4.52-.66,8.18-4.86,8.18-9.38v-1.42c0-4.52-3.66-7.64-8.18-6.98l-270.17,39.68c-4.52.66-8.18,4.86-8.18,9.38Z" style="fill:url(#linear-gradient-99); stroke-width:0px;"/><path d="m309.05,1058.68l181.09-26.6c4.52-.66,8.18-4.86,8.18-9.38v-1.42c0-4.52-3.66-7.64-8.18-6.98l-181.09,26.6c-4.52.66-8.18,4.86-8.18,9.38v1.42c0,4.52,3.66,7.64,8.18,6.98Z" style="fill:url(#linear-gradient-100); stroke-width:0px;"/><path d="m1002,989.97v-1.42c0-4.52-3.66-7.64-8.18-6.98l-150.76,22.14c-4.52.66-8.18,4.86-8.18,9.38v1.42c0,4.52,3.66,7.64,8.18,6.98l150.76-22.14c4.52-.66,8.18-4.86,8.18-9.38Z" style="fill:url(#linear-gradient-101); stroke-width:0px;"/><path d="m596.49,993.88l85.78-12.6c4.52-.66,8.18-4.86,8.18-9.38v-1.42c0-4.52-3.66-7.64-8.18-6.98l-85.78,12.6c-4.52.66-8.18,4.86-8.18,9.38v1.42c0,4.52,3.66,7.64,8.18,6.98Z" style="fill:url(#linear-gradient-102); stroke-width:0px;"/><path d="m494.36,1058.12l85.78-12.6c4.52-.66,8.18-4.86,8.18-9.38v-1.42c0-4.52-3.66-7.64-8.18-6.98l-85.78,12.6c-4.52.66-8.18,4.86-8.18,9.38v1.42c0,4.52,3.66,7.64,8.18,6.98Z" style="fill:url(#linear-gradient-103); stroke-width:0px;"/><path d="m449.15,1150.56l-85.78,12.6c-4.52.66-8.18,4.86-8.18,9.38v1.42c0,4.52,3.66,7.64,8.18,6.98l85.78-12.6c4.52-.66,8.18-4.86,8.18-9.38v-1.42c0-4.52-3.66-7.64-8.18-6.98Z" style="fill:url(#linear-gradient-104); stroke-width:0px;"/><path d="m766.12,1060.47l85.78-12.6c4.52-.66,8.18-4.86,8.18-9.38v-1.42c0-4.52-3.66-7.64-8.18-6.98l-85.78,12.6c-4.52.66-8.18,4.86-8.18,9.38v1.42c0,4.52,3.66,7.64,8.18,6.98Z" style="fill:url(#linear-gradient-105); stroke-width:0px;"/><path d="m1037,1006.75l85.78-12.6c4.52-.66,8.18-4.86,8.18-9.38v-1.42c0-4.52-3.66-7.64-8.18-6.98l-85.78,12.6c-4.52.66-8.18,4.86-8.18,9.38v1.42c0,4.52,3.66,7.64,8.18,6.98Z" style="fill:url(#linear-gradient-106); stroke-width:0px;"/><path d="m656.36,1202.64c4.52-.66,8.18-4.86,8.18-9.38v-1.42c0-4.52-3.66-7.64-8.18-6.98l-150.76,22.14c-4.52.66-8.18,4.86-8.18,9.38v1.42c0,4.52,3.66,7.64,8.18,6.98l150.76-22.14Z" style="fill:url(#linear-gradient-107); stroke-width:0px;"/><path d="m941.02,1047.65v1.42c0,4.52,3.66,7.64,8.18,6.98l273.76-40.21c4.52-.66,8.18-4.86,8.18-9.38v-1.42c0-4.52-3.66-7.64-8.18-6.98l-273.76,40.21c-4.52.66-8.18,4.86-8.18,9.38Z" style="fill:url(#linear-gradient-108); stroke-width:0px;"/></g></svg>