<?xml version="1.0" encoding="UTF-8"?><svg id="Layer_2" xmlns="http://www.w3.org/2000/svg" xmlns:xlink="http://www.w3.org/1999/xlink" viewBox="0 0 1246.8 1233.6"><defs><linearGradient id="linear-gradient" x1="701.48" y1="498.18" x2="1096.12" y2="498.18" gradientTransform="translate(0 -53.76) rotate(-8.46) scale(1.01 .99) skewX(-8.28)" gradientUnits="userSpaceOnUse"><stop offset="0" stop-color="#fff" stop-opacity="0"/><stop offset=".09" stop-color="#fff" stop-opacity=".04"/><stop offset=".23" stop-color="#fff" stop-opacity=".14"/><stop offset=".41" stop-color="#fff" stop-opacity=".31"/><stop offset=".63" stop-color="#fff" stop-opacity=".54"/><stop offset=".87" stop-color="#fff" stop-opacity=".84"/><stop offset="1" stop-color="#fff"/></linearGradient><linearGradient id="linear-gradient-2" x1="346.55" y1="411.48" x2="741.18" y2="411.48" xlink:href="#linear-gradient"/><linearGradient id="linear-gradient-3" x1="618.09" y1="252.17" x2="899.45" y2="252.17" xlink:href="#linear-gradient"/><linearGradient id="linear-gradient-4" x1="910.44" y1="297.85" x2="1305.07" y2="297.85" xlink:href="#linear-gradient"/><linearGradient id="linear-gradient-5" x1="361.84" y1="199.95" x2="756.47" y2="199.95" xlink:href="#linear-gradient"/><linearGradient id="linear-gradient-6" x1="507.42" y1="1009.55" x2="902.06" y2="1009.55" xlink:href="#linear-gradient"/><linearGradient id="linear-gradient-7" x1="151.63" y1="476.16" x2="546.27" y2="476.16" xlink:href="#linear-gradient"/><linearGradient id="linear-gradient-8" x1="24.42" y1="239.31" x2="492.13" y2="239.31" xlink:href="#linear-gradient"/><linearGradient id="linear-gradient-9" x1="193.22" y1="147.73" x2="587.86" y2="147.73" xlink:href="#linear-gradient"/><linearGradient id="linear-gradient-10" x1="-96" y1="185.05" x2="298.64" y2="185.05" xlink:href="#linear-gradient"/><linearGradient id="linear-gradient-11" x1="883.57" y1="194.24" x2="1161.56" y2="194.24" xlink:href="#linear-gradient"/><linearGradient id="linear-gradient-12" x1="10.22" y1="91.09" x2="404.85" y2="91.09" xlink:href="#linear-gradient"/><linearGradient id="linear-gradient-13" x1="410.81" y1="118.82" x2="859.08" y2="118.82" xlink:href="#linear-gradient"/><linearGradient id="linear-gradient-14" x1="949.56" y1="380.83" x2="1344.2" y2="380.83" xlink:href="#linear-gradient"/><linearGradient id="linear-gradient-15" x1="578.98" y1="335.75" x2="1062.68" y2="335.75" xlink:href="#linear-gradient"/><linearGradient id="linear-gradient-16" x1="356.93" y1="290.67" x2="751.57" y2="290.67" xlink:href="#linear-gradient"/><linearGradient id="linear-gradient-17" x1="-96" y1="430.91" x2="298.64" y2="430.91" xlink:href="#linear-gradient"/><linearGradient id="linear-gradient-18" x1="895.78" y1="423.72" x2="1167.73" y2="423.72" xlink:href="#linear-gradient"/><linearGradient id="linear-gradient-19" x1="202.02" y1="366.91" x2="432.19" y2="366.91" xlink:href="#linear-gradient"/><linearGradient id="linear-gradient-20" x1="631.15" y1="454.83" x2="771.81" y2="454.83" xlink:href="#linear-gradient"/><linearGradient id="linear-gradient-21" x1="771.81" y1="387.01" x2="912.48" y2="387.01" xlink:href="#linear-gradient"/><linearGradient id="linear-gradient-22" x1="952.23" y1="244.36" x2="1092.9" y2="244.36" xlink:href="#linear-gradient"/><linearGradient id="linear-gradient-23" x1="397.52" y1="328.79" x2="538.18" y2="328.79" xlink:href="#linear-gradient"/><linearGradient id="linear-gradient-24" x1="24.42" y1="347.99" x2="165.09" y2="347.99" xlink:href="#linear-gradient"/><linearGradient id="linear-gradient-25" x1="666.83" y1="160.2" x2="897" y2="160.2" xlink:href="#linear-gradient"/><linearGradient id="linear-gradient-26" x1="-113.56" y1="297.85" x2="286.02" y2="297.85" xlink:href="#linear-gradient"/><linearGradient id="linear-gradient-27" x1="254.44" y1="514.33" x2="649.07" y2="514.33" xlink:href="#linear-gradient"/><linearGradient id="linear-gradient-28" x1="609.37" y1="601.02" x2="1004.01" y2="601.02" xlink:href="#linear-gradient"/><linearGradient id="linear-gradient-29" x1="451.1" y1="760.34" x2="732.46" y2="760.34" xlink:href="#linear-gradient"/><linearGradient id="linear-gradient-30" x1="45.48" y1="714.65" x2="440.12" y2="714.65" xlink:href="#linear-gradient"/><linearGradient id="linear-gradient-31" x1="594.08" y1="812.56" x2="988.72" y2="812.56" xlink:href="#linear-gradient"/><linearGradient id="linear-gradient-32" x1="804.28" y1="536.34" x2="1198.92" y2="536.34" xlink:href="#linear-gradient"/><linearGradient id="linear-gradient-33" x1="858.42" y1="773.19" x2="1326.13" y2="773.19" xlink:href="#linear-gradient"/><linearGradient id="linear-gradient-34" x1="762.69" y1="864.78" x2="1157.33" y2="864.78" xlink:href="#linear-gradient"/><linearGradient id="linear-gradient-35" x1="1051.91" y1="827.46" x2="1446.55" y2="827.46" xlink:href="#linear-gradient"/><linearGradient id="linear-gradient-36" x1="189" y1="821.64" x2="466.98" y2="821.64" xlink:href="#linear-gradient"/><linearGradient id="linear-gradient-37" x1="32.59" y1="889" x2="427.23" y2="889" xlink:href="#linear-gradient"/><linearGradient id="linear-gradient-38" x1="945.7" y1="921.42" x2="1340.34" y2="921.42" xlink:href="#linear-gradient"/><linearGradient id="linear-gradient-39" x1="491.47" y1="902.1" x2="939.74" y2="902.1" xlink:href="#linear-gradient"/><linearGradient id="linear-gradient-40" x1="879.51" y1="968.79" x2="1274.15" y2="968.79" xlink:href="#linear-gradient"/><linearGradient id="linear-gradient-41" x1="-29.18" y1="980.39" x2="365.46" y2="980.39" xlink:href="#linear-gradient"/><linearGradient id="linear-gradient-42" x1="270.89" y1="943.68" x2="665.52" y2="943.68" xlink:href="#linear-gradient"/><linearGradient id="linear-gradient-43" x1="6.35" y1="631.67" x2="400.99" y2="631.67" xlink:href="#linear-gradient"/><linearGradient id="linear-gradient-44" x1="287.87" y1="676.76" x2="771.58" y2="676.76" xlink:href="#linear-gradient"/><linearGradient id="linear-gradient-45" x1="598.99" y1="721.84" x2="993.63" y2="721.84" xlink:href="#linear-gradient"/><linearGradient id="linear-gradient-46" x1="1051.91" y1="581.6" x2="1446.55" y2="581.6" xlink:href="#linear-gradient"/><linearGradient id="linear-gradient-47" x1="182.83" y1="588.79" x2="454.77" y2="588.79" xlink:href="#linear-gradient"/><linearGradient id="linear-gradient-48" x1="918.36" y1="645.6" x2="1148.53" y2="645.6" xlink:href="#linear-gradient"/><linearGradient id="linear-gradient-49" x1="578.74" y1="557.68" x2="719.41" y2="557.68" xlink:href="#linear-gradient"/><linearGradient id="linear-gradient-50" x1="438.07" y1="625.5" x2="578.74" y2="625.5" xlink:href="#linear-gradient"/><linearGradient id="linear-gradient-51" x1="257.65" y1="768.15" x2="398.32" y2="768.15" xlink:href="#linear-gradient"/><linearGradient id="linear-gradient-52" x1="812.37" y1="683.72" x2="953.03" y2="683.72" xlink:href="#linear-gradient"/><linearGradient id="linear-gradient-53" x1="1185.47" y1="664.52" x2="1326.13" y2="664.52" xlink:href="#linear-gradient"/><linearGradient id="linear-gradient-54" x1="692.36" y1="953.19" x2="833.03" y2="953.19" xlink:href="#linear-gradient"/><linearGradient id="linear-gradient-55" x1="453.55" y1="857.33" x2="683.72" y2="857.33" xlink:href="#linear-gradient"/><linearGradient id="linear-gradient-56" x1="1064.53" y1="714.65" x2="1464.11" y2="714.65" xlink:href="#linear-gradient"/><linearGradient id="linear-gradient-57" x1="566.55" y1="1241.84" x2="847.91" y2="1241.84" xlink:href="#linear-gradient"/><linearGradient id="linear-gradient-58" x1="858.89" y1="1287.53" x2="1253.53" y2="1287.53" xlink:href="#linear-gradient"/><linearGradient id="linear-gradient-59" x1="310.3" y1="1189.62" x2="704.93" y2="1189.62" xlink:href="#linear-gradient"/><linearGradient id="linear-gradient-60" x1="-27.12" y1="1228.98" x2="440.59" y2="1228.98" xlink:href="#linear-gradient"/><linearGradient id="linear-gradient-61" x1="141.68" y1="1137.4" x2="536.32" y2="1137.4" xlink:href="#linear-gradient"/><linearGradient id="linear-gradient-62" x1="-147.54" y1="1174.72" x2="247.1" y2="1174.72" xlink:href="#linear-gradient"/><linearGradient id="linear-gradient-63" x1="832.03" y1="1180.54" x2="1110.02" y2="1180.54" xlink:href="#linear-gradient"/><linearGradient id="linear-gradient-64" x1="871.78" y1="1113.17" x2="1266.42" y2="1113.17" xlink:href="#linear-gradient"/><linearGradient id="linear-gradient-65" x1="-41.33" y1="1080.76" x2="353.31" y2="1080.76" xlink:href="#linear-gradient"/><linearGradient id="linear-gradient-66" x1="359.27" y1="1100.07" x2="807.54" y2="1100.07" xlink:href="#linear-gradient"/><linearGradient id="linear-gradient-67" x1="24.86" y1="1033.39" x2="419.5" y2="1033.39" xlink:href="#linear-gradient"/><linearGradient id="linear-gradient-68" x1="933.55" y1="1021.79" x2="1328.19" y2="1021.79" xlink:href="#linear-gradient"/><linearGradient id="linear-gradient-69" x1="633.49" y1="1058.5" x2="1028.12" y2="1058.5" xlink:href="#linear-gradient"/><linearGradient id="linear-gradient-70" x1="898.02" y1="1370.5" x2="1292.66" y2="1370.5" xlink:href="#linear-gradient"/><linearGradient id="linear-gradient-71" x1="527.43" y1="1325.42" x2="1011.14" y2="1325.42" xlink:href="#linear-gradient"/><linearGradient id="linear-gradient-72" x1="305.39" y1="1280.34" x2="700.02" y2="1280.34" xlink:href="#linear-gradient"/><linearGradient id="linear-gradient-73" x1="844.26" y1="1413.39" x2="1116.18" y2="1413.39" xlink:href="#linear-gradient"/><linearGradient id="linear-gradient-74" x1="720.27" y1="1376.68" x2="860.94" y2="1376.68" xlink:href="#linear-gradient"/><linearGradient id="linear-gradient-75" x1="900.69" y1="1234.03" x2="1041.36" y2="1234.03" xlink:href="#linear-gradient"/><linearGradient id="linear-gradient-76" x1="345.98" y1="1318.46" x2="486.64" y2="1318.46" xlink:href="#linear-gradient"/><linearGradient id="linear-gradient-77" x1="465.98" y1="1048.99" x2="606.65" y2="1048.99" xlink:href="#linear-gradient"/><linearGradient id="linear-gradient-78" x1="615.29" y1="1144.85" x2="845.46" y2="1144.85" xlink:href="#linear-gradient"/><linearGradient id="linear-gradient-79" x1="-165.1" y1="1287.53" x2="234.48" y2="1287.53" xlink:href="#linear-gradient"/></defs><g id="Layer_1-2"><path d="m286.4,76.45c6.76-1.01,12.24,3.66,12.24,10.42s-5.48,13.05-12.24,14.06L0,143.53v88.33l273.79-40.73c6.76-1.01,12.24,3.66,12.24,10.42s-5.48,13.05-12.24,14.06L0,256.34v108.58l286.4-42.6c6.76-1.01,12.24,3.66,12.24,10.42s-5.48,13.05-12.24,14.06L0,389.39v525.01l353.22-52.54c6.76-1.01,12.24,3.66,12.24,10.42h0c0,6.76-5.48,13.05-12.24,14.06L0,938.87v75.9l341.08-50.74c6.76-1.01,12.24,3.66,12.24,10.42s-5.48,13.05-12.24,14.06L0,1039.24v69.49l234.86-34.94c6.76-1.01,12.24,3.66,12.24,10.42s-5.48,13.05-12.24,14.06L0,1133.2v29.79l428.35-63.72c6.76-1.01,12.24,3.66,12.24,10.42s-5.48,13.05-12.24,14.06L0,1187.47v34.07l222.24-33.06c6.76-1.01,12.24,3.66,12.24,10.42s-5.48,13.05-12.24,14.06l-138.84,20.65h760.86c.24-6.59,5.61-12.63,12.21-13.61l247.47-36.81c6.76-1.01,12.24,3.66,12.24,10.42s-5.48,13.05-12.24,14.06l-174.44,25.95h317.29v-90.09l-336.54,50.06c-6.76,1.01-12.24-3.66-12.24-10.42h0c0-6.76,5.48-13.05,12.24-14.06l336.54-50.06v-59.82c-1.66,1.08-3.52,1.84-5.51,2.14l-370.16,55.06c-6.76,1.01-12.24-3.66-12.24-10.42s5.48-13.05,12.24-14.06l370.16-55.06c1.98-.29,3.85-.09,5.51.5v-151.2l-362.78,53.97c-6.76,1.01-12.24-3.66-12.24-10.42h0c0-6.76,5.48-13.05,12.24-14.06l362.78-53.97v-66.91l-301.01,44.78c-6.76,1.01-12.24-3.66-12.24-10.42h0c0-6.76,5.48-13.05,12.24-14.06l301.01-44.78v-28.52l-355.05,52.82c-6.76,1.01-12.24-3.66-12.24-10.42s5.48-13.05,12.24-14.06l355.05-52.82v-22.9l-288.86,42.97c-6.76,1.01-12.24-3.66-12.24-10.42h0c0-6.76,5.48-13.05,12.24-14.06l288.86-42.97v-69.49l-182.65,27.17c-6.76,1.01-12.24-3.66-12.24-10.42s5.48-13.05,12.24-14.06l182.65-27.17v-29.79l-376.14,55.95c-6.76,1.01-12.24-3.66-12.24-10.42s5.48-13.05,12.24-14.06l376.14-55.95v-34.07l-170.03,25.29c-6.76,1.01-12.24-3.66-12.24-10.42s5.48-13.05,12.24-14.06l170.03-25.29v-25.66l-49.1,7.3c-6.76,1.01-12.24-3.66-12.24-10.42s5.48-13.05,12.24-14.06l49.1-7.3v-58.44l-182.65,27.17c-6.76,1.01-12.24-3.66-12.24-10.42s5.48-13.05,12.24-14.06l182.65-27.17v-176.3l-285,42.4c-6.76,1.01-12.24-3.66-12.24-10.42h0c0-6.76,5.48-13.05,12.24-14.06l285-42.4v-58.5l-324.13,48.22c-6.76,1.01-12.24-3.66-12.24-10.42s5.48-13.05,12.24-14.06l324.13-48.22V0h-242.85l-108.14,16.09c-6.76,1.01-12.24-3.66-12.24-10.42h0c0-1.97.48-3.9,1.31-5.67h-120.85l-84.96,12.64c-6.76,1.01-12.24-3.66-12.24-10.42,0-.75.08-1.49.21-2.22h-81.26c1.32,1.76,2.08,3.99,2.08,6.52h0c0,6.76-5.48,13.05-12.24,14.06l-370.16,55.06c-6.76,1.01-12.24-3.66-12.24-10.42s5.48-13.05,12.24-14.06L549.44,0h-86.39l-40.01,5.95c-5.13.76-9.52-1.74-11.34-5.95h-78.49L22.45,46.23c-6.76,1.01-12.24-3.66-12.24-10.42s5.48-13.05,12.24-14.06L168.7,0H0v119.06l286.4-42.6Zm665.83-27.5c0-6.76,5.48-13.05,12.24-14.06l116.19-17.28c6.76-1.01,12.24,3.66,12.24,10.42s-5.48,13.05-12.24,14.06l-116.19,17.28c-6.76,1.01-12.24-3.66-12.24-10.42h0ZM36.66,192.34c-6.76,1.01-12.24-3.66-12.24-10.42h0c0-6.76,5.48-13.05,12.24-14.06l443.23-65.93c6.76-1.01,12.24,3.66,12.24,10.42s-5.48,13.05-12.24,14.06L36.66,192.34Zm1047.22,78.61c6.76-1.01,12.24,3.66,12.24,10.42s-5.48,13.05-12.24,14.06l-370.16,55.06c-6.76,1.01-12.24-3.66-12.24-10.42s5.48-13.05,12.24-14.06l370.16-55.06Zm-312.07-52.51h0c0-6.76,5.48-13.05,12.24-14.06l116.19-17.28c6.76-1.01,12.24,3.66,12.24,10.42h0c0,6.76-5.48,13.05-12.24,14.06l-116.19,17.28c-6.76,1.01-12.24-3.66-12.24-10.42Zm-150.21,248.6c-6.76,1.01-12.24-3.66-12.24-10.42h0c0-6.76,5.48-13.05,12.24-14.06l370.16-55.06c6.76-1.01,12.24,3.66,12.24,10.42s-5.48,13.05-12.24,14.06l-370.16,55.06Zm203,28.02l116.19-17.28c6.76-1.01,12.24,3.66,12.24,10.42s-5.48,13.05-12.24,14.06l-116.19,17.28c-6.76,1.01-12.24-3.66-12.24-10.42s5.48-13.05,12.24-14.06Zm-357.63,203.36c0,6.76-5.48,13.05-12.24,14.06l-253.51,37.71c-6.76,1.01-12.24-3.66-12.24-10.42h0c0-6.76,5.48-13.05,12.24-14.06l253.51-37.71c6.76-1.01,12.24,3.66,12.24,10.42h0Zm204.51-6.97c6.76-1.01,12.24,3.66,12.24,10.42s-5.48,13.05-12.24,14.06l-205.7,30.6c-6.76,1.01-12.24-3.66-12.24-10.42s5.48-13.05,12.24-14.06l205.7-30.6Zm-613.77-26.9c-6.76,1.01-12.24-3.66-12.24-10.42h0c0-6.76,5.48-13.05,12.24-14.06l370.16-55.06c6.76-1.01,12.24,3.66,12.24,10.42s-5.48,13.05-12.24,14.06l-370.16,55.06Zm340.6-9.41c0,6.76-5.48,13.05-12.24,14.06l-116.19,17.28c-6.76,1.01-12.24-3.66-12.24-10.42s5.48-13.05,12.24-14.06l116.19-17.28c6.76-1.01,12.24,3.66,12.24,10.42Zm65.02-5.24c-6.76,1.01-12.24-3.66-12.24-10.42h0c0-6.76,5.48-13.05,12.24-14.06l256.88-38.21c6.76-1.01,12.24,3.66,12.24,10.42h0c0,6.76-5.48,13.05-12.24,14.06l-256.88,38.21Zm-163.23-59.3c-6.76,1.01-12.24-3.66-12.24-10.42s5.48-13.05,12.24-14.06l459.23-68.31c6.76-1.01,12.24,3.66,12.24,10.42s-5.48,13.05-12.24,14.06l-459.23,68.31Zm142.43-133.63c6.76-1.01,12.24,3.66,12.24,10.42h0c0,6.76-5.48,13.05-12.24,14.06l-247.47,36.81c-6.76,1.01-12.24-3.66-12.24-10.42s5.48-13.05,12.24-14.06l247.47-36.81Zm-188.1-34.24c0-6.76,5.48-13.05,12.24-14.06l370.16-55.06c6.76-1.01,12.24,3.66,12.24,10.42s-5.48,13.05-12.24,14.06l-370.16,55.06c-6.76,1.01-12.24-3.66-12.24-10.42Zm183.64,83.85c0-6.76,5.48-13.05,12.24-14.06l116.19-17.28c6.76-1.01,12.24,3.66,12.24,10.42h0c0,6.76-5.48,13.05-12.24,14.06l-116.19,17.28c-6.76,1.01-12.24-3.66-12.24-10.42h0Zm269.1-95.61l-116.19,17.28c-6.76,1.01-12.24-3.66-12.24-10.42s5.48-13.05,12.24-14.06l116.19-17.28c6.76-1.01,12.24,3.66,12.24,10.42s-5.48,13.05-12.24,14.06Zm52.41-110.64l-116.19,17.28c-6.76,1.01-12.24-3.66-12.24-10.42h0c0-6.76,5.48-13.05,12.24-14.06l116.19-17.28c6.76-1.01,12.24,3.66,12.24,10.42s-5.48,13.05-12.24,14.06Zm-30.63-38.79l-370.16,55.06c-6.76,1.01-12.24-3.66-12.24-10.42s5.48-13.05,12.24-14.06l370.16-55.06c6.76-1.01,12.24,3.66,12.24,10.42s-5.48,13.05-12.24,14.06Zm-203-52.5l-116.19,17.28c-6.76,1.01-12.24-3.66-12.24-10.42s5.48-13.05,12.24-14.06l116.19-17.28c6.76-1.01,12.24,3.66,12.24,10.42s-5.48,13.05-12.24,14.06Zm-156.78-14.8c-6.76,1.01-12.24-3.66-12.24-10.42s5.48-13.05,12.24-14.06l370.16-55.06c6.76-1.01,12.24,3.66,12.24,10.42s-5.48,13.05-12.24,14.06l-370.16,55.06Zm-216.31,89.5l-116.19,17.28c-6.76,1.01-12.24-3.66-12.24-10.42s5.48-13.05,12.24-14.06l116.19-17.28c6.76-1.01,12.24,3.66,12.24,10.42s-5.48,13.05-12.24,14.06Zm61.41,9.78c-6.76,1.01-12.24-3.66-12.24-10.42s5.48-13.05,12.24-14.06l205.7-30.6c6.76-1.01,12.24,3.66,12.24,10.42s-5.48,13.05-12.24,14.06l-205.7,30.6Zm-62.63,106.34c0-6.76,5.48-13.05,12.24-14.06l370.16-55.06c6.76-1.01,12.24,3.66,12.24,10.42h0c0,6.76-5.48,13.05-12.24,14.06l-370.16,55.06c-6.76,1.01-12.24-3.66-12.24-10.42h0ZM6.35,576.97h0c0-6.76,5.48-13.05,12.24-14.06l370.16-55.06c6.76-1.01,12.24,3.66,12.24,10.42h0c0,6.76-5.48,13.05-12.24,14.06l-370.16,55.06c-6.76,1.01-12.24-3.66-12.24-10.42Zm26.24,253.43h0c0-6.76,5.48-13.05,12.24-14.06l370.16-55.06c6.76-1.01,12.24,3.66,12.24,10.42h0c0,6.76-5.48,13.05-12.24,14.06l-370.16,55.06c-6.76,1.01-12.24-3.66-12.24-10.42Zm250.53,29.64c-6.76,1.01-12.24-3.66-12.24-10.42s5.48-13.05,12.24-14.06l370.16-55.06c6.76-1.01,12.24,3.66,12.24,10.42s-5.48,13.05-12.24,14.06l-370.16,55.06Zm524.42,66.15c0,6.76-5.48,13.05-12.24,14.06l-423.8,63.04c-6.76,1.01-12.24-3.66-12.24-10.42s5.48-13.05,12.24-14.06l423.8-63.04c6.76-1.01,12.24,3.66,12.24,10.42h0Zm25.68,28.72c6.76-1.01,12.24,3.66,12.24,10.42s-5.48,13.05-12.24,14.06l-205.7,30.6c-6.76,1.01-12.24-3.66-12.24-10.42s5.48-13.05,12.24-14.06l205.7-30.6Zm-238.81-35.86l-116.19,17.28c-6.76,1.01-12.24-3.66-12.24-10.42s5.48-13.05,12.24-14.06l116.19-17.28c6.76-1.01,12.24,3.66,12.24,10.42s-5.48,13.05-12.24,14.06ZM37.1,986.35c-6.76,1.01-12.24-3.66-12.24-10.42h0c0-6.76,5.48-13.05,12.24-14.06l370.16-55.06c6.76-1.01,12.24,3.66,12.24,10.42s-5.48,13.05-12.24,14.06l-370.16,55.06Zm116.81,86.63c-6.76,1.01-12.24-3.66-12.24-10.42h0c0-6.76,5.48-13.05,12.24-14.06l370.16-55.06c6.76-1.01,12.24,3.66,12.24,10.42h0c0,6.76-5.48,13.05-12.24,14.06l-370.16,55.06Zm168.62,27.14c-6.76,1.01-12.24-3.66-12.24-10.42h0c0-6.76,5.48-13.05,12.24-14.06l370.16-55.06c6.76-1.01,12.24,3.66,12.24,10.42h0c0,6.76-5.48,13.05-12.24,14.06l-370.16,55.06Zm513.14-48.59c6.76-1.01,12.24,3.66,12.24,10.42h0c0,6.76-5.48,13.05-12.24,14.06l-256.88,38.21c-6.76,1.01-12.24-3.66-12.24-10.42s5.48-13.05,12.24-14.06l256.88-38.21Zm-530.29,129.62c0-6.76,5.48-13.05,12.24-14.06l370.16-55.06c6.76-1.01,12.24,3.66,12.24,10.42s-5.48,13.05-12.24,14.06l-370.16,55.06c-6.76,1.01-12.24-3.66-12.24-10.42Zm169.02,25.21l-116.19,17.28c-6.76,1.01-12.24-3.66-12.24-10.42s5.48-13.05,12.24-14.06l116.19-17.28c6.76-1.01,12.24,3.66,12.24,10.42s-5.48,13.05-12.24,14.06Zm386.53-11.51c0,6.76-5.48,13.05-12.24,14.06l-116.19,17.28c-6.76,1.01-12.24-3.66-12.24-10.42h0c0-6.76,5.48-13.05,12.24-14.06l116.19-17.28c6.76-1.01,12.24,3.66,12.24,10.42h0Zm137.96-84.02c6.76-1.01,12.24,3.66,12.24,10.42s-5.48,13.05-12.24,14.06l-459.23,68.31c-6.76,1.01-12.24-3.66-12.24-10.42s5.48-13.05,12.24-14.06l459.23-68.31Zm30.22-71.41l-116.19,17.28c-6.76,1.01-12.24-3.66-12.24-10.42h0c0-6.76,5.48-13.05,12.24-14.06l116.19-17.28c6.76-1.01,12.24,3.66,12.24,10.42s-5.48,13.05-12.24,14.06Zm68.66-88.18c6.76-1.01,12.24,3.66,12.24,10.42h0c0,6.76-5.48,13.05-12.24,14.06l-253.51,37.71c-6.76,1.01-12.24-3.66-12.24-10.42h0c0-6.76,5.48-13.05,12.24-14.06l253.51-37.71Zm-81.89-109.85c6.76-1.01,12.24,3.66,12.24,10.42s-5.48,13.05-12.24,14.06l-370.16,55.06c-6.76,1.01-12.24-3.66-12.24-10.42s5.48-13.05,12.24-14.06l370.16-55.06Zm-126.07-30.19c6.76-1.01,12.24,3.66,12.24,10.42s-5.48,13.05-12.24,14.06l-370.16,55.06c-6.76,1.01-12.24-3.66-12.24-10.42s5.48-13.05,12.24-14.06l370.16-55.06Zm-197.46-14.75h0c0-6.76,5.48-13.05,12.24-14.06l116.19-17.28c6.76-1.01,12.24,3.66,12.24,10.42s-5.48,13.05-12.24,14.06l-116.19,17.28c-6.76,1.01-12.24-3.66-12.24-10.42Zm235.15-73.83l-423.8,63.04c-6.76,1.01-12.24-3.66-12.24-10.42h0c0-6.76,5.48-13.05,12.24-14.06l423.8-63.04c6.76-1.01,12.24,3.66,12.24,10.42s-5.48,13.05-12.24,14.06Zm217.59-94.17c6.76-1.01,12.24,3.66,12.24,10.42h0c0,6.76-5.48,13.05-12.24,14.06l-370.16,55.06c-6.76,1.01-12.24-3.66-12.24-10.42h0c0-6.76,5.48-13.05,12.24-14.06l370.16-55.06Zm-168.62-27.14c6.76-1.01,12.24,3.66,12.24,10.42h0c0,6.76-5.48,13.05-12.24,14.06l-370.16,55.06c-6.76,1.01-12.24-3.66-12.24-10.42h0c0-6.76,5.48-13.05,12.24-14.06l370.16-55.06Zm4.91-66.98l-370.16,55.06c-6.76,1.01-12.24-3.66-12.24-10.42h0c0-6.76,5.48-13.05,12.24-14.06l370.16-55.06c6.76-1.01,12.24,3.66,12.24,10.42s-5.48,13.05-12.24,14.06Zm154.91-123.75c6.76-1.01,12.24,3.66,12.24,10.42s-5.48,13.05-12.24,14.06l-205.7,30.6c-6.76,1.01-12.24-3.66-12.24-10.42s5.48-13.05,12.24-14.06l205.7-30.6Zm62.63-106.34c0,6.76-5.48,13.05-12.24,14.06l-370.16,55.06c-6.76,1.01-12.24-3.66-12.24-10.42s5.48-13.05,12.24-14.06l370.16-55.06c6.76-1.01,12.24,3.66,12.24,10.42Zm-43.43-118.4c6.76-1.01,12.24,3.66,12.24,10.42s-5.48,13.05-12.24,14.06l-247.47,36.81c-6.76,1.01-12.24-3.66-12.24-10.42h0c0-6.76,5.48-13.05,12.24-14.06l247.47-36.81Zm-105.05-72.34c6.76-1.01,12.24,3.66,12.24,10.42s-5.48,13.05-12.24,14.06l-459.23,68.31c-6.76,1.01-12.24-3.66-12.24-10.42s5.48-13.05,12.24-14.06l459.23-68.31Zm-163.23-59.3c6.76-1.01,12.24,3.66,12.24,10.42h0c0,6.76-5.48,13.05-12.24,14.06l-256.88,38.21c-6.76,1.01-12.24-3.66-12.24-10.42s5.48-13.05,12.24-14.06l256.88-38.21Zm-525.38,38.17c0-6.76,5.48-13.05,12.24-14.06l370.16-55.06c6.76-1.01,12.24,3.66,12.24,10.42h0c0,6.76-5.48,13.05-12.24,14.06l-370.16,55.06c-6.76,1.01-12.24-3.66-12.24-10.42h0Z" style="fill:none; stroke-width:0px;"/><path d="m701.48,340.07c0,6.76,5.48,11.42,12.24,10.42l370.16-55.06c6.76-1.01,12.24-7.3,12.24-14.06s-5.48-11.42-12.24-10.42l-370.16,55.06c-6.76,1.01-12.24,7.3-12.24,14.06Z" style="fill:url(#linear-gradient); stroke-width:0px;"/><path d="m728.95,237.05l-370.16,55.06c-6.76,1.01-12.24,7.3-12.24,14.06s5.48,11.42,12.24,10.42l370.16-55.06c6.76-1.01,12.24-7.3,12.24-14.06s-5.48-11.42-12.24-10.42Z" style="fill:url(#linear-gradient-2); stroke-width:0px;"/><path d="m618.09,106.46c0,6.76,5.48,11.42,12.24,10.42l256.88-38.21c6.76-1.01,12.24-7.3,12.24-14.06h0c0-6.76-5.48-11.42-12.24-10.42l-256.88,38.21c-6.76,1.01-12.24,7.3-12.24,14.06Z" style="fill:url(#linear-gradient-3); stroke-width:0px;"/><path d="m910.44,108.67c0,6.76,5.48,11.42,12.24,10.42l324.13-48.22v-24.47l-324.13,48.22c-6.76,1.01-12.24,7.3-12.24,14.06Z" style="fill:url(#linear-gradient-4); stroke-width:0px;"/><path d="m374.07,102.78l370.16-55.06c6.76-1.01,12.24-7.3,12.24-14.06h0c0-6.76-5.48-11.42-12.24-10.42l-370.16,55.06c-6.76,1.01-12.24,7.3-12.24,14.06h0c0,6.76,5.48,11.42,12.24,10.42Z" style="fill:url(#linear-gradient-5); stroke-width:0px;"/><path d="m507.42,880.31c0,6.76,5.48,11.42,12.24,10.42l370.16-55.06c6.76-1.01,12.24-7.3,12.24-14.06s-5.48-11.42-12.24-10.42l-370.16,55.06c-6.76,1.01-12.24,7.3-12.24,14.06Z" style="fill:url(#linear-gradient-6); stroke-width:0px;"/><path d="m163.87,410.27l370.16-55.06c6.76-1.01,12.24-7.3,12.24-14.06h0c0-6.76-5.48-11.42-12.24-10.42l-370.16,55.06c-6.76,1.01-12.24,7.3-12.24,14.06h0c0,6.76,5.48,11.42,12.24,10.42Z" style="fill:url(#linear-gradient-7); stroke-width:0px;"/><path d="m492.13,112.35c0-6.76-5.48-11.42-12.24-10.42L36.66,167.87c-6.76,1.01-12.24,7.3-12.24,14.06h0c0,6.76,5.48,11.42,12.24,10.42l443.23-65.93c6.76-1.01,12.24-7.3,12.24-14.06Z" style="fill:url(#linear-gradient-8); stroke-width:0px;"/><path d="m193.22,65.23c0,6.76,5.48,11.42,12.24,10.42l370.16-55.06c6.76-1.01,12.24-7.3,12.24-14.06h0c0-2.53-.77-4.77-2.08-6.52h-36.33L205.46,51.17c-6.76,1.01-12.24,7.3-12.24,14.06Z" style="fill:url(#linear-gradient-9); stroke-width:0px;"/><path d="m298.64,86.87c0-6.76-5.48-11.42-12.24-10.42L0,119.06v24.47l286.4-42.6c6.76-1.01,12.24-7.3,12.24-14.06Z" style="fill:url(#linear-gradient-10); stroke-width:0px;"/><path d="m883.57,5.67c0,6.76,5.48,11.42,12.24,10.42L1003.95,0h-119.07c-.83,1.77-1.31,3.7-1.31,5.67h0Z" style="fill:url(#linear-gradient-11); stroke-width:0px;"/><path d="m10.22,35.81c0,6.76,5.48,11.42,12.24,10.42L333.22,0h-164.52L22.45,21.76c-6.76,1.01-12.24,7.3-12.24,14.06Z" style="fill:url(#linear-gradient-12); stroke-width:0px;"/><path d="m423.05,5.95l40.01-5.95h-51.35c1.82,4.21,6.2,6.71,11.34,5.95Z" style="fill:url(#linear-gradient-13); stroke-width:0px;"/><path d="m949.56,185.82h0c0,6.76,5.48,11.42,12.24,10.42l285-42.4v-24.47l-285,42.4c-6.76,1.01-12.24,7.3-12.24,14.06Z" style="fill:url(#linear-gradient-14); stroke-width:0px;"/><path d="m578.98,195.87c0,6.76,5.48,11.42,12.24,10.42l459.23-68.31c6.76-1.01,12.24-7.3,12.24-14.06s-5.48-11.42-12.24-10.42l-459.23,68.31c-6.76,1.01-12.24,7.3-12.24,14.06Z" style="fill:url(#linear-gradient-15); stroke-width:0px;"/><path d="m751.57,125.11c0-6.76-5.48-11.42-12.24-10.42l-370.16,55.06c-6.76,1.01-12.24,7.3-12.24,14.06s5.48,11.42,12.24,10.42l370.16-55.06c6.76-1.01,12.24-7.3,12.24-14.06Z" style="fill:url(#linear-gradient-16); stroke-width:0px;"/><path d="m298.64,332.72c0-6.76-5.48-11.42-12.24-10.42L0,364.91v24.47l286.4-42.6c6.76-1.01,12.24-7.3,12.24-14.06Z" style="fill:url(#linear-gradient-17); stroke-width:0px;"/><path d="m895.78,236.71h0c0,6.76,5.48,11.42,12.24,10.42l247.47-36.81c6.76-1.01,12.24-7.3,12.24-14.06s-5.48-11.42-12.24-10.42l-247.47,36.81c-6.76,1.01-12.24,7.3-12.24,14.06Z" style="fill:url(#linear-gradient-18); stroke-width:0px;"/><path d="m432.19,248.86c0-6.76-5.48-11.42-12.24-10.42l-205.7,30.6c-6.76,1.01-12.24,7.3-12.24,14.06s5.48,11.42,12.24,10.42l205.7-30.6c6.76-1.01,12.24-7.3,12.24-14.06Z" style="fill:url(#linear-gradient-19); stroke-width:0px;"/><path d="m759.58,275.84l-116.19,17.28c-6.76,1.01-12.24,7.3-12.24,14.06h0c0,6.76,5.48,11.42,12.24,10.42l116.19-17.28c6.76-1.01,12.24-7.3,12.24-14.06s-5.48-11.42-12.24-10.42Z" style="fill:url(#linear-gradient-20); stroke-width:0px;"/><path d="m784.05,228.86l116.19-17.28c6.76-1.01,12.24-7.3,12.24-14.06h0c0-6.76-5.48-11.42-12.24-10.42l-116.19,17.28c-6.76,1.01-12.24,7.3-12.24,14.06h0c0,6.76,5.48,11.42,12.24,10.42Z" style="fill:url(#linear-gradient-21); stroke-width:0px;"/><path d="m964.47,59.37l116.19-17.28c6.76-1.01,12.24-7.3,12.24-14.06s-5.48-11.42-12.24-10.42l-116.19,17.28c-6.76,1.01-12.24,7.3-12.24,14.06h0c0,6.76,5.48,11.42,12.24,10.42Z" style="fill:url(#linear-gradient-22); stroke-width:0px;"/><path d="m525.95,184.56l-116.19,17.28c-6.76,1.01-12.24,7.3-12.24,14.06s5.48,11.42,12.24,10.42l116.19-17.28c6.76-1.01,12.24-7.3,12.24-14.06s-5.48-11.42-12.24-10.42Z" style="fill:url(#linear-gradient-23); stroke-width:0px;"/><path d="m152.85,259.26l-116.19,17.28c-6.76,1.01-12.24,7.3-12.24,14.06s5.48,11.42,12.24,10.42l116.19-17.28c6.76-1.01,12.24-7.3,12.24-14.06s-5.48-11.42-12.24-10.42Z" style="fill:url(#linear-gradient-24); stroke-width:0px;"/><path d="m679.07,12.64L764.03,0h-96.99c-.13.73-.21,1.47-.21,2.22,0,6.76,5.48,11.42,12.24,10.42Z" style="fill:url(#linear-gradient-25); stroke-width:0px;"/><path d="m286.02,201.55c0-6.76-5.48-11.42-12.24-10.42L0,231.86v24.47l273.79-40.73c6.76-1.01,12.24-7.3,12.24-14.06Z" style="fill:url(#linear-gradient-26); stroke-width:0px;"/><path d="m266.67,433.14l370.16-55.06c6.76-1.01,12.24-7.3,12.24-14.06s-5.48-11.42-12.24-10.42l-370.16,55.06c-6.76,1.01-12.24,7.3-12.24,14.06s5.48,11.42,12.24,10.42Z" style="fill:url(#linear-gradient-27); stroke-width:0px;"/><path d="m1004.01,397.91c0-6.76-5.48-11.42-12.24-10.42l-370.16,55.06c-6.76,1.01-12.24,7.3-12.24,14.06h0c0,6.76,5.48,11.42,12.24,10.42l370.16-55.06c6.76-1.01,12.24-7.3,12.24-14.06Z" style="fill:url(#linear-gradient-28); stroke-width:0px;"/><path d="m732.46,597.62h0c0-6.76-5.48-11.42-12.24-10.42l-256.88,38.21c-6.76,1.01-12.24,7.3-12.24,14.06h0c0,6.76,5.48,11.42,12.24,10.42l256.88-38.21c6.76-1.01,12.24-7.3,12.24-14.06Z" style="fill:url(#linear-gradient-29); stroke-width:0px;"/><path d="m440.12,595.42c0-6.76-5.48-11.42-12.24-10.42l-370.16,55.06c-6.76,1.01-12.24,7.3-12.24,14.06h0c0,6.76,5.48,11.42,12.24,10.42l370.16-55.06c6.76-1.01,12.24-7.3,12.24-14.06Z" style="fill:url(#linear-gradient-30); stroke-width:0px;"/><path d="m594.08,670.43h0c0,6.76,5.48,11.42,12.24,10.42l370.16-55.06c6.76-1.01,12.24-7.3,12.24-14.06h0c0-6.76-5.48-11.42-12.24-10.42l-370.16,55.06c-6.76,1.01-12.24,7.3-12.24,14.06Z" style="fill:url(#linear-gradient-31); stroke-width:0px;"/><path d="m804.28,362.94c0,6.76,5.48,11.42,12.24,10.42l370.16-55.06c6.76-1.01,12.24-7.3,12.24-14.06s-5.48-11.42-12.24-10.42l-370.16,55.06c-6.76,1.01-12.24,7.3-12.24,14.06Z" style="fill:url(#linear-gradient-32); stroke-width:0px;"/><path d="m858.42,591.74c0,6.76,5.48,11.42,12.24,10.42l376.14-55.95v-24.47l-376.14,55.95c-6.76,1.01-12.24,7.3-12.24,14.06Z" style="fill:url(#linear-gradient-33); stroke-width:0px;"/><path d="m762.69,697.57h0c0,6.76,5.48,11.42,12.24,10.42l370.16-55.06c6.76-1.01,12.24-7.3,12.24-14.06h0c0-6.76-5.48-11.42-12.24-10.42l-370.16,55.06c-6.76,1.01-12.24,7.3-12.24,14.06Z" style="fill:url(#linear-gradient-34); stroke-width:0px;"/><path d="m1051.91,617.22c0,6.76,5.48,11.42,12.24,10.42l182.65-27.17v-24.47l-182.65,27.17c-6.76,1.01-12.24,7.3-12.24,14.06Z" style="fill:url(#linear-gradient-35); stroke-width:0px;"/><path d="m454.74,688l-253.51,37.71c-6.76,1.01-12.24,7.3-12.24,14.06h0c0,6.76,5.48,11.42,12.24,10.42l253.51-37.71c6.76-1.01,12.24-7.3,12.24-14.06h0c0-6.76-5.48-11.42-12.24-10.42Z" style="fill:url(#linear-gradient-36); stroke-width:0px;"/><path d="m427.23,771.69h0c0-6.76-5.48-11.42-12.24-10.42l-370.16,55.06c-6.76,1.01-12.24,7.3-12.24,14.06h0c0,6.76,5.48,11.42,12.24,10.42l370.16-55.06c6.76-1.01,12.24-7.3,12.24-14.06Z" style="fill:url(#linear-gradient-37); stroke-width:0px;"/><path d="m945.7,726.98h0c0,6.76,5.48,11.42,12.24,10.42l288.86-42.97v-24.47l-288.86,42.97c-6.76,1.01-12.24,7.3-12.24,14.06Z" style="fill:url(#linear-gradient-38); stroke-width:0px;"/><path d="m927.51,698.14l-423.8,63.04c-6.76,1.01-12.24,7.3-12.24,14.06h0c0,6.76,5.48,11.42,12.24,10.42l423.8-63.04c6.76-1.01,12.24-7.3,12.24-14.06s-5.48-11.42-12.24-10.42Z" style="fill:url(#linear-gradient-39); stroke-width:0px;"/><path d="m879.51,784.2c0,6.76,5.48,11.42,12.24,10.42l355.05-52.82v-24.47l-355.05,52.82c-6.76,1.01-12.24,7.3-12.24,14.06Z" style="fill:url(#linear-gradient-40); stroke-width:0px;"/><path d="m365.46,872.27h0c0-6.76-5.48-11.42-12.24-10.42L0,914.39v24.47l353.22-52.54c6.76-1.01,12.24-7.3,12.24-14.06Z" style="fill:url(#linear-gradient-41); stroke-width:0px;"/><path d="m665.52,790.92c0-6.76-5.48-11.42-12.24-10.42l-370.16,55.06c-6.76,1.01-12.24,7.3-12.24,14.06s5.48,11.42,12.24,10.42l370.16-55.06c6.76-1.01,12.24-7.3,12.24-14.06Z" style="fill:url(#linear-gradient-42); stroke-width:0px;"/><path d="m400.99,518.27h0c0-6.76-5.48-11.42-12.24-10.42l-370.16,55.06c-6.76,1.01-12.24,7.3-12.24,14.06h0c0,6.76,5.48,11.42,12.24,10.42l370.16-55.06c6.76-1.01,12.24-7.3,12.24-14.06Z" style="fill:url(#linear-gradient-43); stroke-width:0px;"/><path d="m771.58,508.22c0-6.76-5.48-11.42-12.24-10.42l-459.23,68.31c-6.76,1.01-12.24,7.3-12.24,14.06s5.48,11.42,12.24,10.42l459.23-68.31c6.76-1.01,12.24-7.3,12.24-14.06Z" style="fill:url(#linear-gradient-44); stroke-width:0px;"/><path d="m981.39,509.86l-370.16,55.06c-6.76,1.01-12.24,7.3-12.24,14.06h0c0,6.76,5.48,11.42,12.24,10.42l370.16-55.06c6.76-1.01,12.24-7.3,12.24-14.06s-5.48-11.42-12.24-10.42Z" style="fill:url(#linear-gradient-45); stroke-width:0px;"/><path d="m1051.91,371.37c0,6.76,5.48,11.42,12.24,10.42l182.65-27.17v-24.47l-182.65,27.17c-6.76,1.01-12.24,7.3-12.24,14.06Z" style="fill:url(#linear-gradient-46); stroke-width:0px;"/><path d="m182.83,507.83c0,6.76,5.48,11.42,12.24,10.42l247.47-36.81c6.76-1.01,12.24-7.3,12.24-14.06h0c0-6.76-5.48-11.42-12.24-10.42l-247.47,36.81c-6.76,1.01-12.24,7.3-12.24,14.06Z" style="fill:url(#linear-gradient-47); stroke-width:0px;"/><path d="m918.36,455.23c0,6.76,5.48,11.42,12.24,10.42l205.7-30.6c6.76-1.01,12.24-7.3,12.24-14.06s-5.48-11.42-12.24-10.42l-205.7,30.6c-6.76,1.01-12.24,7.3-12.24,14.06Z" style="fill:url(#linear-gradient-48); stroke-width:0px;"/><path d="m707.17,386.49l-116.19,17.28c-6.76,1.01-12.24,7.3-12.24,14.06s5.48,11.42,12.24,10.42l116.19-17.28c6.76-1.01,12.24-7.3,12.24-14.06s-5.48-11.42-12.24-10.42Z" style="fill:url(#linear-gradient-49); stroke-width:0px;"/><path d="m450.31,516.99l116.19-17.28c6.76-1.01,12.24-7.3,12.24-14.06h0c0-6.76-5.48-11.42-12.24-10.42l-116.19,17.28c-6.76,1.01-12.24,7.3-12.24,14.06h0c0,6.76,5.48,11.42,12.24,10.42Z" style="fill:url(#linear-gradient-50); stroke-width:0px;"/><path d="m386.08,644.72l-116.19,17.28c-6.76,1.01-12.24,7.3-12.24,14.06s5.48,11.42,12.24,10.42l116.19-17.28c6.76-1.01,12.24-7.3,12.24-14.06s-5.48-11.42-12.24-10.42Z" style="fill:url(#linear-gradient-51); stroke-width:0px;"/><path d="m824.61,519.53l116.19-17.28c6.76-1.01,12.24-7.3,12.24-14.06s-5.48-11.42-12.24-10.42l-116.19,17.28c-6.76,1.01-12.24,7.3-12.24,14.06s5.48,11.42,12.24,10.42Z" style="fill:url(#linear-gradient-52); stroke-width:0px;"/><path d="m1185.47,434.42c0,6.76,5.48,11.42,12.24,10.42l49.1-7.3v-24.47l-49.1,7.3c-6.76,1.01-12.24,7.3-12.24,14.06Z" style="fill:url(#linear-gradient-53); stroke-width:0px;"/><path d="m704.6,806.86l116.19-17.28c6.76-1.01,12.24-7.3,12.24-14.06s-5.48-11.42-12.24-10.42l-116.19,17.28c-6.76,1.01-12.24,7.3-12.24,14.06h0c0,6.76,5.48,11.42,12.24,10.42Z" style="fill:url(#linear-gradient-54); stroke-width:0px;"/><path d="m453.55,736.11c0,6.76,5.48,11.42,12.24,10.42l205.7-30.6c6.76-1.01,12.24-7.3,12.24-14.06s-5.48-11.42-12.24-10.42l-205.7,30.6c-6.76,1.01-12.24,7.3-12.24,14.06Z" style="fill:url(#linear-gradient-55); stroke-width:0px;"/><path d="m1064.53,502.54c0,6.76,5.48,11.42,12.24,10.42l170.03-25.29v-24.47l-170.03,25.29c-6.76,1.01-12.24,7.3-12.24,14.06Z" style="fill:url(#linear-gradient-56); stroke-width:0px;"/><path d="m566.55,1103.8c0,6.76,5.48,11.42,12.24,10.42l256.88-38.21c6.76-1.01,12.24-7.3,12.24-14.06h0c0-6.76-5.48-11.42-12.24-10.42l-256.88,38.21c-6.76,1.01-12.24,7.3-12.24,14.06Z" style="fill:url(#linear-gradient-57); stroke-width:0px;"/><path d="m1241.29,1036.88l-370.16,55.06c-6.76,1.01-12.24,7.3-12.24,14.06s5.48,11.42,12.24,10.42l370.16-55.06c1.98-.29,3.85-1.05,5.51-2.14v-21.83c-1.66-.59-3.52-.8-5.51-.5Z" style="fill:url(#linear-gradient-58); stroke-width:0px;"/><path d="m704.93,1031h0c0-6.76-5.48-11.42-12.24-10.42l-370.16,55.06c-6.76,1.01-12.24,7.3-12.24,14.06h0c0,6.76,5.48,11.42,12.24,10.42l370.16-55.06c6.76-1.01,12.24-7.3,12.24-14.06Z" style="fill:url(#linear-gradient-59); stroke-width:0px;"/><path d="m440.59,1109.69c0-6.76-5.48-11.42-12.24-10.42L0,1162.99v24.47l428.35-63.72c6.76-1.01,12.24-7.3,12.24-14.06Z" style="fill:url(#linear-gradient-60); stroke-width:0px;"/><path d="m536.32,1003.86h0c0-6.76-5.48-11.42-12.24-10.42l-370.16,55.06c-6.76,1.01-12.24,7.3-12.24,14.06h0c0,6.76,5.48,11.42,12.24,10.42l370.16-55.06c6.76-1.01,12.24-7.3,12.24-14.06Z" style="fill:url(#linear-gradient-61); stroke-width:0px;"/><path d="m247.1,1084.21c0-6.76-5.48-11.42-12.24-10.42L0,1108.73v24.47l234.86-34.94c6.76-1.01,12.24-7.3,12.24-14.06Z" style="fill:url(#linear-gradient-62); stroke-width:0px;"/><path d="m832.03,1003.01h0c0,6.76,5.48,11.42,12.24,10.42l253.51-37.71c6.76-1.01,12.24-7.3,12.24-14.06h0c0-6.76-5.48-11.42-12.24-10.42l-253.51,37.71c-6.76,1.01-12.24,7.3-12.24,14.06Z" style="fill:url(#linear-gradient-63); stroke-width:0px;"/><path d="m871.78,929.73h0c0,6.76,5.48,11.42,12.24,10.42l362.78-53.97v-24.47l-362.78,53.97c-6.76,1.01-12.24,7.3-12.24,14.06Z" style="fill:url(#linear-gradient-64); stroke-width:0px;"/><path d="m353.31,974.45c0-6.76-5.48-11.42-12.24-10.42L0,1014.77v24.47l341.08-50.74c6.76-1.01,12.24-7.3,12.24-14.06Z" style="fill:url(#linear-gradient-65); stroke-width:0px;"/><path d="m795.31,915.77l-423.8,63.04c-6.76,1.01-12.24,7.3-12.24,14.06s5.48,11.42,12.24,10.42l423.8-63.04c6.76-1.01,12.24-7.3,12.24-14.06h0c0-6.76-5.48-11.42-12.24-10.42Z" style="fill:url(#linear-gradient-66); stroke-width:0px;"/><path d="m419.5,917.23c0-6.76-5.48-11.42-12.24-10.42l-370.16,55.06c-6.76,1.01-12.24,7.3-12.24,14.06h0c0,6.76,5.48,11.42,12.24,10.42l370.16-55.06c6.76-1.01,12.24-7.3,12.24-14.06Z" style="fill:url(#linear-gradient-67); stroke-width:0px;"/><path d="m933.55,829.16h0c0,6.76,5.48,11.42,12.24,10.42l301.01-44.78v-24.47l-301.01,44.78c-6.76,1.01-12.24,7.3-12.24,14.06Z" style="fill:url(#linear-gradient-68); stroke-width:0px;"/><path d="m633.49,910.51c0,6.76,5.48,11.42,12.24,10.42l370.16-55.06c6.76-1.01,12.24-7.3,12.24-14.06s-5.48-11.42-12.24-10.42l-370.16,55.06c-6.76,1.01-12.24,7.3-12.24,14.06Z" style="fill:url(#linear-gradient-69); stroke-width:0px;"/><path d="m898.02,1183.16h0c0,6.76,5.48,11.42,12.24,10.42l336.54-50.06v-24.47l-336.54,50.06c-6.76,1.01-12.24,7.3-12.24,14.06Z" style="fill:url(#linear-gradient-70); stroke-width:0px;"/><path d="m527.43,1193.21c0,6.76,5.48,11.42,12.24,10.42l459.23-68.31c6.76-1.01,12.24-7.3,12.24-14.06s-5.48-11.42-12.24-10.42l-459.23,68.31c-6.76,1.01-12.24,7.3-12.24,14.06Z" style="fill:url(#linear-gradient-71); stroke-width:0px;"/><path d="m700.02,1122.45c0-6.76-5.48-11.42-12.24-10.42l-370.16,55.06c-6.76,1.01-12.24,7.3-12.24,14.06s5.48,11.42,12.24,10.42l370.16-55.06c6.76-1.01,12.24-7.3,12.24-14.06Z" style="fill:url(#linear-gradient-72); stroke-width:0px;"/><path d="m1116.18,1193.59c0-6.76-5.48-11.42-12.24-10.42l-247.47,36.81c-6.61.98-11.98,7.02-12.21,13.61h85.25l174.44-25.95c6.76-1.01,12.24-7.3,12.24-14.06Z" style="fill:url(#linear-gradient-73); stroke-width:0px;"/><path d="m848.7,1184.44l-116.19,17.28c-6.76,1.01-12.24,7.3-12.24,14.06h0c0,6.76,5.48,11.42,12.24,10.42l116.19-17.28c6.76-1.01,12.24-7.3,12.24-14.06h0c0-6.76-5.48-11.42-12.24-10.42Z" style="fill:url(#linear-gradient-74); stroke-width:0px;"/><path d="m1029.12,1014.95l-116.19,17.28c-6.76,1.01-12.24,7.3-12.24,14.06h0c0,6.76,5.48,11.42,12.24,10.42l116.19-17.28c6.76-1.01,12.24-7.3,12.24-14.06s-5.48-11.42-12.24-10.42Z" style="fill:url(#linear-gradient-75); stroke-width:0px;"/><path d="m474.41,1181.89l-116.19,17.28c-6.76,1.01-12.24,7.3-12.24,14.06s5.48,11.42,12.24,10.42l116.19-17.28c6.76-1.01,12.24-7.3,12.24-14.06s-5.48-11.42-12.24-10.42Z" style="fill:url(#linear-gradient-76); stroke-width:0px;"/><path d="m594.41,894.57l-116.19,17.28c-6.76,1.01-12.24,7.3-12.24,14.06s5.48,11.42,12.24,10.42l116.19-17.28c6.76-1.01,12.24-7.3,12.24-14.06s-5.48-11.42-12.24-10.42Z" style="fill:url(#linear-gradient-77); stroke-width:0px;"/><path d="m615.29,999.56c0,6.76,5.48,11.42,12.24,10.42l205.7-30.6c6.76-1.01,12.24-7.3,12.24-14.06s-5.48-11.42-12.24-10.42l-205.7,30.6c-6.76,1.01-12.24,7.3-12.24,14.06Z" style="fill:url(#linear-gradient-78); stroke-width:0px;"/><path d="m234.48,1198.89c0-6.76-5.48-11.42-12.24-10.42L0,1221.53v12.07h83.4l138.84-20.65c6.76-1.01,12.24-7.3,12.24-14.06Z" style="fill:url(#linear-gradient-79); stroke-width:0px;"/></g></svg>