<?xml version="1.0" encoding="UTF-8"?><svg id="Layer_2" xmlns="http://www.w3.org/2000/svg" viewBox="0 0 620.22 422.73"><g id="Layer_1-2"><path d="m513.33,407.2c-34.76,11.87-78.85,14.2-118.53,15.03-35.38.68-71.92.45-107.57.48-65.88-1.01-139.62,3.06-195.97-21.6-32.61-14.08-54.86-38.91-68.88-72.24-29.99-71.67-29.96-165.09.77-236.79C44.63,40.87,86.02,16.33,140.41,7.17,198.03-2.2,262.28.58,321.75,0c58.19.45,131.64-1.96,183.37,12.98,45.47,12.81,75.78,38.87,93.75,83.45,29.82,74.52,28.9,170.46-6.02,243.01-15.86,33.06-43.85,56.41-79.37,67.72l-.16.05Z" style="fill:#fff; stroke-width:0px;"/></g></svg>