<?xml version="1.0" encoding="UTF-8"?><svg id="Layer_2" xmlns="http://www.w3.org/2000/svg" viewBox="0 0 130 35"><g id="Layer_1-2"><rect x="0" y="0" width="130" height="35" rx="17.5" ry="17.5" style="fill:#fff; stroke-width:0px;"/><path d="m30.87,21.67v2.05h-7.96v-11.6h2.5v9.54h5.46Z" style="fill:#00167c; stroke-width:0px;"/><path d="m39.56,20.17h-5.73c.18,1.19.92,1.91,2.02,1.91.74,0,1.33-.34,1.57-.9l2.07.45c-.45,1.4-1.91,2.34-3.82,2.34-2.54,0-4.21-1.69-4.21-4.21s1.67-4.21,4.18-4.21,3.93,1.58,3.93,4.14v.49Zm-5.67-1.35h3.22c-.16-.99-.68-1.55-1.55-1.55s-1.48.58-1.67,1.55Z" style="fill:#00167c; stroke-width:0px;"/><path d="m48.7,23.47c-.31.23-.9.4-1.46.4-.97,0-1.55-.38-1.73-1.1-.68.77-1.62,1.19-2.65,1.19-1.44,0-2.39-.85-2.39-2.12,0-1.17.74-1.94,2.29-2.45l2.57-.83v-.09c0-.76-.36-1.15-1.12-1.15-.81,0-1.49.49-1.73,1.21l-1.94-.43c.38-1.44,1.93-2.54,4-2.54,1.96,0,3.1.94,3.1,2.54v3.64c0,.25.14.4.38.4.14,0,.32-.05.45-.11l.23,1.46Zm-3.37-2.54v-.99l-1.73.56c-.61.2-.9.5-.9.94,0,.49.42.81,1.06.81.7,0,1.57-.36,1.57-1.31Z" style="fill:#00167c; stroke-width:0px;"/><path d="m54.98,15.65v2.23c-.27-.02-.56-.04-.79-.04-1.03,0-2.04.59-2.04,1.96v3.91h-2.41v-7.92h2.3v1.53c.88-1.21,1.62-1.69,2.57-1.69.09,0,.22,0,.36.02Z" style="fill:#00167c; stroke-width:0px;"/><path d="m63.88,18.24v5.47h-2.41v-4.83c0-.85-.47-1.35-1.24-1.35-.83,0-1.73.59-1.73,1.94v4.23h-2.41v-7.92h2.3v1.24c.88-1.01,1.82-1.48,2.92-1.48,1.64,0,2.58.99,2.58,2.68Z" style="fill:#00167c; stroke-width:0px;"/><path d="m82.22,12.12v11.6h-2.48v-8.37l-3.02,6.25h-2.07l-3.01-6.23v8.35h-2.32v-11.6h3.1l3.33,6.86,3.31-6.86h3.17Z" style="fill:#00167c; stroke-width:0px;"/><path d="m83.73,19.76c0-2.52,1.76-4.21,4.43-4.21s4.45,1.69,4.45,4.21-1.78,4.21-4.45,4.21-4.43-1.69-4.43-4.21Zm6.45.05c0-1.44-.83-2.38-2.02-2.38s-2.02.92-2.02,2.27c0,1.44.85,2.38,2.04,2.38s2-.9,2-2.27Z" style="fill:#00167c; stroke-width:0px;"/><path d="m99.21,15.65v2.23c-.27-.02-.56-.04-.79-.04-1.03,0-2.04.59-2.04,1.96v3.91h-2.41v-7.92h2.3v1.53c.88-1.21,1.62-1.69,2.57-1.69.09,0,.22,0,.36.02Z" style="fill:#00167c; stroke-width:0px;"/><path d="m107.8,20.17h-5.73c.18,1.19.92,1.91,2.02,1.91.74,0,1.33-.34,1.57-.9l2.07.45c-.45,1.4-1.91,2.34-3.82,2.34-2.54,0-4.21-1.69-4.21-4.21s1.67-4.21,4.18-4.21,3.93,1.58,3.93,4.14v.49Zm-5.67-1.35h3.22c-.16-.99-.68-1.55-1.55-1.55s-1.48.58-1.67,1.55Z" style="fill:#00167c; stroke-width:0px;"/></g></svg>