<?xml version="1.0" encoding="UTF-8"?>
<svg id="Layer_2" data-name="Layer 2" xmlns="http://www.w3.org/2000/svg" viewBox="0 0 198.5 56.18">
  <defs>
    <style>
      .cls-1 {
        fill: #fff;
        stroke-width: 0px;
      }
    </style>
  </defs>
  <g id="Layer_2-2" data-name="Layer 2">
    <g>
      <path class="cls-1" d="m0,17.71l5.51-1.48c.65,1.87,2.59,3.1,4.93,3.1,2.09,0,3.49-.83,3.49-2.09C13.93,13.42.5,15.94.5,7.52.5,3.02,4.28,0,9.97,0,14.79,0,18.47,2.2,19.69,5.58l-5.33,1.87c-.79-1.62-2.63-2.66-4.75-2.66-1.76,0-2.95.76-2.95,1.87,0,3.63,13.5,1.08,13.5,9.72,0,4.68-3.96,7.81-9.94,7.81-5.36,0-9.32-2.56-10.22-6.48Z"/>
      <path class="cls-1" d="m40.97,18.65v5.04h-18.25V.5h17.49v5.04h-11.19v3.71h8.67v4.82h-8.67v4.57h11.95Z"/>
      <path class="cls-1" d="m63.79,23.68c-.61.14-1.33.22-2.09.22-2.59,0-4.5-.76-5.9-2.34l-4.86-5.54h-1.12v7.67h-6.3V.5h9.29c5.33,0,8.86,3.09,8.86,7.77,0,2.95-1.55,5.22-4.14,6.41l2.84,3.17c.54.58,1.12.86,2.02.86.43,0,.87-.04,1.22-.07,0,0,.18,5.04.18,5.04Zm-13.97-18.18v5.65h3.13c1.58,0,2.66-1.08,2.66-2.66,0-1.8-1.3-2.99-3.24-2.99h-2.56.01Z"/>
      <path class="cls-1" d="m87.73.5l-8.82,23.18h-6.34L63.75.5h6.62l5.47,15.84,5.47-15.84h6.42Z"/>
      <path class="cls-1" d="m89.17.5h6.33v23.18h-6.33V.5Z"/>
      <path class="cls-1" d="m120.99.5v23.18h-6.84l-9.07-14.18v14.18h-5.9V.5h6.84l9.07,14.18V.5h5.9Z"/>
      <path class="cls-1" d="m146.48,10.83v9.86c-2.59,2.23-6.26,3.49-10.19,3.49-7.6,0-12.63-4.82-12.63-12.09s4.75-12.09,11.84-12.09c5.51,0,9.57,2.81,10.65,7.16l-5.72,1.19c-.76-1.87-2.63-3.1-4.89-3.1-3.38,0-5.62,2.74-5.62,6.8s2.66,6.88,6.66,6.88c1.44,0,2.88-.4,4.14-1.04v-2.59h-4.1v-4.46h9.86Z"/>
      <path class="cls-1" d="m28.29,32.5v23.18h-6.26v-14.76l-4.93,10.4h-5.04l-4.93-10.4v14.76H1.3v-23.18h7.63l5.76,12.17,5.76-12.17h7.85-.01Z"/>
      <path class="cls-1" d="m30.96,44.09c0-7.27,4.89-12.09,12.27-12.09s12.2,4.82,12.2,12.09-4.9,12.09-12.2,12.09-12.27-4.82-12.27-12.09Zm18.14.22c0-4.21-2.41-6.98-5.9-6.98s-5.9,2.63-5.9,6.55c0,4.21,2.45,6.98,5.98,6.98s5.83-2.66,5.83-6.55h0Z"/>
      <path class="cls-1" d="m78.37,55.68c-.61.14-1.33.22-2.09.22-2.59,0-4.5-.76-5.9-2.34l-4.86-5.54h-1.12v7.67h-6.3v-23.18h9.29c5.33,0,8.86,3.09,8.86,7.77,0,2.95-1.55,5.22-4.14,6.41l2.84,3.17c.54.58,1.12.86,2.02.86.43,0,.87-.04,1.22-.07l.18,5.04h0Zm-13.97-18.18v5.65h3.13c1.58,0,2.66-1.08,2.66-2.66,0-1.8-1.3-2.99-3.24-2.99h-2.56,0Z"/>
      <path class="cls-1" d="m98.82,50.65v5.04h-18.25v-23.18h17.49v5.04h-11.19v3.71h8.67v4.82h-8.67v4.57h11.95Z"/>
      <path class="cls-1" d="m125.71,37.65h-6.7v18.03h-6.33v-18.03h-6.7v-5.15h19.72v5.15h0Z"/>
      <path class="cls-1" d="m149.32,32.5v23.18h-6.33v-9.58h-8.78v9.58h-6.34v-23.18h6.34v8.42h8.78v-8.42h6.33Z"/>
      <path class="cls-1" d="m167.18,51.08h-8.57l-1.62,4.61h-6.26l9.03-23.18h6.48l9.04,23.18h-6.48l-1.62-4.61Zm-1.76-4.97l-2.52-7.05-2.52,7.05h5.04Z"/>
      <path class="cls-1" d="m198.5,32.5v23.18h-6.84l-9.07-14.18v14.18h-5.9v-23.18h6.84l9.07,14.18v-14.18h5.9,0Z"/>
    </g>
  </g>
</svg>