<?xml version="1.0" encoding="UTF-8"?>
<svg id="Layer_2" data-name="Layer 2" xmlns="http://www.w3.org/2000/svg" viewBox="0 0 180.95 40.9">
  <defs>
    <style>
      .cls-1 {
        fill: #d2e203;
        stroke-width: 0px;
      }
    </style>
  </defs>
  <g id="Layer_2-2" data-name="Layer 2">
    <g>
      <path class="cls-1" d="m15.1.3v32.6H6.4V10.05c-1.4.95-3.45,1.6-5.95,1.85l-.45-6.35c4.15-.45,6.75-2.15,8.2-5.25h6.9Z"/>
      <path class="cls-1" d="m46.3,22c0,6.85-5.25,11.6-13.15,11.6-8.3,0-13.75-5-13.75-15.7C19.4,6.6,24.75.1,34.05.1c5.55,0,9.85,2.45,11.5,6.35l-7.05,3.05c-.85-1.5-2.6-2.5-4.6-2.5-3.45,0-5.55,3.05-6,8.5,1.8-2.55,4.35-3.75,7.75-3.75,6.3,0,10.65,4.2,10.65,10.25Zm-8.7.6c0-2.5-1.8-4.35-4.3-4.35-2.1,0-4.5,1.3-4.5,4.25,0,2.55,1.9,4.4,4.5,4.4s4.3-1.8,4.3-4.3Z"/>
      <path class="cls-1" d="m76.45,26.3h-4.3v6.6h-8.5v-6.6h-15.5v-5.2L64.45.7h7.7v19.3h4.3v6.3Zm-12.8-6.3v-9.7l-7.8,9.7h7.8Z"/>
      <path class="cls-1" d="m77.25,37.6c4.25-3.55,4.7-6.45,1.45-9.05,0-2.85,2.15-5.05,4.9-5.05,2.95,0,4.9,2.2,4.9,5.55,0,4.25-3.3,9-8.2,11.85,0,0-3.05-3.3-3.05-3.3Z"/>
      <path class="cls-1" d="m91.35,16.8c0-10.65,5.1-16.8,13.9-16.8s13.9,6.15,13.9,16.8-5.1,16.8-13.9,16.8-13.9-6.15-13.9-16.8Zm19.1.35c0-6.45-2.05-10.25-5.3-10.25s-5.1,3.55-5.1,9.55c0,6.45,2.05,10.25,5.3,10.25s5.1-3.55,5.1-9.55Z"/>
      <path class="cls-1" d="m122.25,16.8c0-10.65,5.1-16.8,13.9-16.8s13.9,6.15,13.9,16.8-5.1,16.8-13.9,16.8-13.9-6.15-13.9-16.8Zm19.1.35c0-6.45-2.05-10.25-5.3-10.25s-5.1,3.55-5.1,9.55c0,6.45,2.05,10.25,5.3,10.25s5.1-3.55,5.1-9.55Z"/>
      <path class="cls-1" d="m153.15,16.8c0-10.65,5.1-16.8,13.9-16.8s13.9,6.15,13.9,16.8-5.1,16.8-13.9,16.8-13.9-6.15-13.9-16.8Zm19.1.35c0-6.45-2.05-10.25-5.3-10.25s-5.1,3.55-5.1,9.55c0,6.45,2.05,10.25,5.3,10.25s5.1-3.55,5.1-9.55Z"/>
    </g>
  </g>
</svg>