<?xml version="1.0" encoding="UTF-8"?>
<svg id="Layer_2" data-name="Layer 2" xmlns="http://www.w3.org/2000/svg" viewBox="0 0 194.03 61.44">
  <defs>
    <style>
      .cls-1 {
        fill: #fff;
        stroke-width: 0px;
      }
    </style>
  </defs>
  <g id="Layer_2-2" data-name="Layer 2">
    <g>
      <path class="cls-1" d="m18.5,8.35c0,4.71-3.56,7.88-8.89,7.88h-3.31v7.45H0V.5h9.47c5.44,0,9.04,3.13,9.04,7.85h-.01Zm-6.12.22c0-1.8-1.37-3.02-3.42-3.02h-2.66v5.72h3.38c1.62,0,2.7-1.08,2.7-2.7Z"/>
      <path class="cls-1" d="m35.02,19.08h-8.57l-1.62,4.61h-6.26L27.6.51h6.48l9.04,23.18h-6.48l-1.62-4.61Zm-1.76-4.97l-2.52-7.05-2.52,7.05h5.04Z"/>
      <path class="cls-1" d="m62.74,5.65h-6.7v18.03h-6.33V5.65h-6.7V.5h19.72v5.15h.01Z"/>
      <path class="cls-1" d="m64.9.5h6.34v23.18h-6.34s0-23.18,0-23.18Z"/>
      <path class="cls-1" d="m93.16,18.65v5.04h-18.25V.51h17.49v5.04h-11.2v3.71h8.68v4.82h-8.68v4.57h11.96Z"/>
      <path class="cls-1" d="m117.53.5v23.18h-6.84l-9.07-14.18v14.18h-5.9V.5h6.84l9.07,14.18V.5s5.9,0,5.9,0Z"/>
      <path class="cls-1" d="m139.42,5.65h-6.7v18.03h-6.34V5.65h-6.7V.5h19.73v5.15h0Z"/>
      <path class="cls-1" d="m140.28,17.71l5.51-1.48c.65,1.87,2.59,3.1,4.93,3.1,2.09,0,3.49-.83,3.49-2.09,0-3.82-13.43-1.3-13.43-9.72,0-4.5,3.78-7.52,9.47-7.52,4.82,0,8.5,2.2,9.72,5.58l-5.33,1.87c-.79-1.62-2.63-2.66-4.75-2.66-1.76,0-2.95.76-2.95,1.87,0,3.63,13.5,1.08,13.5,9.72,0,4.68-3.96,7.81-9.94,7.81-5.36,0-9.32-2.56-10.22-6.48h0Z"/>
      <path class="cls-1" d="m18.25,50.65v5.04H0v-23.18h17.49v5.04H6.29v3.71h8.67v4.82H6.29v4.57h11.96Z"/>
      <path class="cls-1" d="m34.98,51.08h-8.57l-1.62,4.61h-6.26l9.04-23.18h6.48l9.04,23.18h-6.48l-1.62-4.61h-.01Zm-1.76-4.97l-2.52-7.05-2.52,7.05h5.04Z"/>
      <path class="cls-1" d="m43.48,44.09c0-7.27,4.68-12.09,11.7-12.09,5.72,0,9.97,3.09,10.83,7.81l-5.76.97c-.65-2.09-2.63-3.46-5.04-3.46-3.24,0-5.4,2.66-5.4,6.7s2.27,6.77,5.65,6.77c2.48,0,4.46-1.4,4.97-3.53l5.76.97c-.86,4.79-5.22,7.96-11.16,7.96-6.95,0-11.55-4.82-11.55-12.09h0Z"/>
      <path class="cls-1" d="m89.7,32.5v23.18h-6.33v-9.58h-8.78v9.58h-6.34v-23.18h6.34v8.42h8.78v-8.42h6.33Z"/>
      <path class="cls-1" d="m111.66,47.19v8.5h-6.33v-8.5l-7.96-14.69h6.55l4.68,9.18,4.68-9.18h6.33l-7.96,14.69h0Z"/>
      <path class="cls-1" d="m139.42,50.65v5.04h-18.25v-23.18h17.49v5.04h-11.2v3.71h8.68v4.82h-8.68v4.57h11.96Z"/>
      <path class="cls-1" d="m156.16,51.08h-8.57l-1.62,4.61h-6.26l9.03-23.18h6.48l9.04,23.18h-6.48l-1.62-4.61Zm-1.76-4.97l-2.52-7.05-2.52,7.05h5.04Z"/>
      <path class="cls-1" d="m185.93,55.68c-.61.14-1.33.22-2.09.22-2.59,0-4.5-.76-5.9-2.34l-4.86-5.54h-1.12v7.67h-6.3v-23.18h9.29c5.33,0,8.85,3.09,8.85,7.77,0,2.95-1.55,5.22-4.14,6.41l2.84,3.17c.54.58,1.12.86,2.02.86.43,0,.86-.04,1.22-.07l.18,5.04h0Zm-13.97-18.18v5.65h3.13c1.58,0,2.66-1.08,2.66-2.66,0-1.8-1.29-2.99-3.24-2.99h-2.55Z"/>
      <path class="cls-1" d="m185.93,59.07c3.06-2.56,3.38-4.64,1.04-6.52,0-2.05,1.55-3.64,3.53-3.64,2.12,0,3.53,1.58,3.53,4,0,3.06-2.38,6.48-5.9,8.53l-2.2-2.38h0Z"/>
    </g>
  </g>
</svg>