<?xml version="1.0" encoding="UTF-8"?>
<svg id="Layer_2" data-name="Layer 2" xmlns="http://www.w3.org/2000/svg" viewBox="0 0 234.73 12.97">
  <defs>
    <style>
      .cls-1 {
        fill: #fff;
        stroke-width: 0px;
      }
    </style>
  </defs>
  <g id="Layer_1-2" data-name="Layer 1">
    <g>
      <path class="cls-1" d="m0,6.77V.68h1.27v5.95c0,1.66.96,2.64,2.59,2.64s2.59-.97,2.59-2.64V.68h1.27v6.1c0,2.27-1.41,3.59-3.86,3.59s-3.86-1.33-3.86-3.59Z"/>
      <path class="cls-1" d="m9.19,9.5c0-.47.38-.84.85-.84s.85.37.85.84-.38.84-.85.84-.85-.37-.85-.84Z"/>
      <path class="cls-1" d="m12.09,7.91l1.1-.35c.31,1.05,1.4,1.72,2.74,1.72s2.3-.63,2.3-1.58c0-2.42-5.89-1.12-5.89-4.49,0-1.63,1.37-2.72,3.42-2.72,1.78,0,3.12.84,3.56,2.15l-1.1.38c-.38-.9-1.35-1.47-2.53-1.47-1.27,0-2.14.59-2.14,1.47,0,2.36,5.92,1.03,5.92,4.49,0,1.71-1.44,2.84-3.61,2.84-1.97,0-3.45-.97-3.77-2.44Z"/>
      <path class="cls-1" d="m20.73,9.5c0-.47.38-.84.85-.84s.85.37.85.84-.38.84-.85.84-.85-.37-.85-.84Z"/>
      <path class="cls-1" d="m35.11.68v9.48h-1.41l-5.27-7.61v7.61h-1.21V.68h1.41l5.27,7.61V.68h1.21Z"/>
      <path class="cls-1" d="m43,7.1h-4.98c.09,1.35.93,2.24,2.14,2.24.79,0,1.41-.38,1.69-1l1.07.27c-.37,1.06-1.46,1.77-2.86,1.77-1.96,0-3.25-1.38-3.25-3.45s1.28-3.45,3.21-3.45,2.97,1.29,2.97,3.39v.24Zm-4.93-.84h3.67c-.15-1.15-.78-1.8-1.77-1.8s-1.71.69-1.9,1.8Z"/>
      <path class="cls-1" d="m54.08,3.68l-2.36,6.48h-1.18l-1.65-4.82-1.65,4.82h-1.18l-2.36-6.48h1.28l1.71,5.01,1.68-5.01h1.09l1.68,5.01,1.71-5.01h1.22Z"/>
      <path class="cls-1" d="m54.67,8.63l1.05-.31c.22.65.9,1.06,1.74,1.06s1.4-.38,1.4-.94c0-1.49-3.93-.62-3.93-2.97,0-1.18.99-1.97,2.47-1.97,1.18,0,2.11.54,2.47,1.4l-1.02.43c-.26-.53-.85-.87-1.53-.87-.77,0-1.27.34-1.27.84,0,1.43,3.96.53,3.96,2.96,0,1.27-1.06,2.11-2.64,2.11-1.38,0-2.43-.68-2.71-1.72Z"/>
      <path class="cls-1" d="m73.35,10.19c-.16.03-.34.04-.49.04-.62,0-1.24-.26-1.75-.75l-.59-.56c-.84.93-1.99,1.44-3.24,1.44-1.8,0-3-.97-3-2.44,0-1.16.84-2.13,2.33-2.71l-.19-.19c-.63-.6-.99-1.31-.99-2.12,0-1.44,1.09-2.41,2.72-2.41s2.64.91,2.64,2.27c0,1.19-.8,2.15-2.22,2.71l1.94,1.84,1.65-2.39.85.59-1.75,2.52.68.63c.38.37.71.54.99.54.12,0,.25,0,.37-.01l.06,1Zm-3.55-1.96l-2.47-2.36c-1.18.52-1.83,1.22-1.83,2,0,.87.74,1.46,1.83,1.46.91,0,1.8-.4,2.47-1.1Zm-3.17-5.38c0,.49.24.99.65,1.38l.57.54c1.12-.49,1.75-1.19,1.75-1.99s-.6-1.28-1.5-1.28-1.47.53-1.47,1.34Z"/>
      <path class="cls-1" d="m90.33.68l-3.11,9.48h-1.3l-2.42-7.75-2.42,7.75h-1.3l-3.11-9.48h1.34l2.46,7.92,2.43-7.92h1.24l2.43,7.92,2.46-7.92h1.28Z"/>
      <path class="cls-1" d="m90.54,6.92c0-2.06,1.37-3.45,3.43-3.45s3.43,1.38,3.43,3.45-1.38,3.45-3.43,3.45-3.43-1.38-3.43-3.45Zm5.62.06c0-1.52-.9-2.49-2.21-2.49s-2.18.97-2.18,2.37c0,1.52.9,2.49,2.21,2.49s2.18-.96,2.18-2.37Z"/>
      <path class="cls-1" d="m102.69,3.56v1.21c-.22-.01-.41-.01-.6-.01-.96,0-1.9.63-1.9,1.94v3.46h-1.21V3.68h1.18v1.31c.81-1.03,1.46-1.44,2.24-1.44.07,0,.18,0,.29.01Z"/>
      <path class="cls-1" d="m103.92.26l1.21-.26v10.16h-1.21V.26Z"/>
      <path class="cls-1" d="m113.2,0v10.16h-1.18v-1c-.71.82-1.49,1.21-2.42,1.21-1.74,0-2.9-1.31-2.9-3.27,0-2.09,1.35-3.62,3.4-3.62.68,0,1.3.18,1.88.51V.26l1.21-.26Zm-1.21,7.47v-2.21c-.53-.52-1.18-.79-1.86-.79-1.28,0-2.19,1.06-2.19,2.52s.85,2.36,2.13,2.36c.97,0,1.91-.6,1.91-1.87Z"/>
      <path class="cls-1" d="m126.15,10.19c-.18.03-.35.04-.49.04-.74,0-1.3-.25-1.77-.79l-2.52-2.9h-1.46v3.62h-1.27V.68h3.27c1.99,0,3.33,1.16,3.33,2.92,0,1.43-.93,2.47-2.39,2.78l1.93,2.24c.27.31.57.53.93.53.12,0,.25,0,.37-.01l.06,1.06Zm-6.23-4.68h2.06c1.18,0,1.97-.74,1.97-1.86s-.88-1.93-2.19-1.93h-1.84v3.78Z"/>
      <path class="cls-1" d="m133.03,7.1h-4.98c.09,1.35.93,2.24,2.14,2.24.79,0,1.41-.38,1.69-1l1.07.27c-.37,1.06-1.46,1.77-2.86,1.77-1.96,0-3.25-1.38-3.25-3.45s1.28-3.45,3.21-3.45,2.97,1.29,2.97,3.39v.24Zm-4.93-.84h3.67c-.15-1.15-.78-1.8-1.77-1.8s-1.71.69-1.9,1.8Z"/>
      <path class="cls-1" d="m141.09,6.74c0,2.09-1.35,3.62-3.4,3.62-.68,0-1.3-.18-1.88-.52v2.86l-1.21.26V3.68h1.18v1c.71-.82,1.49-1.21,2.41-1.21,1.74,0,2.9,1.31,2.9,3.27Zm-1.24.12c0-1.41-.85-2.36-2.13-2.36-.97,0-1.91.6-1.91,1.87v2.21c.53.51,1.18.79,1.86.79,1.28,0,2.19-1.06,2.19-2.52Z"/>
      <path class="cls-1" d="m142.21,6.92c0-2.06,1.37-3.45,3.43-3.45s3.43,1.38,3.43,3.45-1.38,3.45-3.43,3.45-3.43-1.38-3.43-3.45Zm5.62.06c0-1.52-.9-2.49-2.21-2.49s-2.18.97-2.18,2.37c0,1.52.9,2.49,2.21,2.49s2.18-.96,2.18-2.37Z"/>
      <path class="cls-1" d="m154.36,3.56v1.21c-.22-.01-.41-.01-.6-.01-.96,0-1.9.63-1.9,1.94v3.46h-1.21V3.68h1.18v1.31c.81-1.03,1.46-1.44,2.24-1.44.07,0,.18,0,.29.01Z"/>
      <path class="cls-1" d="m159.3,9.94c-.32.24-.91.41-1.49.41-1.24,0-1.93-.65-1.93-1.8v-3.9h-1v-.81l1.03-.18.24-1.63h.94v1.65h2.14v.97h-2.14v3.75c0,.57.37.91,1,.91.32,0,.69-.09.97-.22l.24.84Z"/>
      <path class="cls-1" d="m169.68,9.13v1.03h-6.38v-.88l2.55-2.41c.94-.9,2.4-2.31,2.4-3.7,0-.96-.68-1.61-1.68-1.61-1.06,0-1.91.78-2.17,2l-1.09-.18c.16-1.63,1.58-2.92,3.4-2.92,1.69,0,2.78,1.07,2.78,2.61,0,1.78-1.53,3.31-2.59,4.31l-1.83,1.74h4.59Z"/>
      <path class="cls-1" d="m171.08,5.42c0-3.14,1.37-4.95,3.73-4.95s3.73,1.81,3.73,4.95-1.37,4.95-3.73,4.95-3.73-1.81-3.73-4.95Zm6.18.13c0-2.53-.94-4.01-2.49-4.01s-2.43,1.38-2.43,3.74c0,2.55.94,4,2.49,4s2.43-1.38,2.43-3.74Z"/>
      <path class="cls-1" d="m186.28,9.13v1.03h-6.38v-.88l2.55-2.41c.94-.9,2.4-2.31,2.4-3.7,0-.96-.68-1.61-1.68-1.61-1.06,0-1.91.78-2.17,2l-1.09-.18c.16-1.63,1.58-2.92,3.4-2.92,1.69,0,2.78,1.07,2.78,2.61,0,1.78-1.53,3.31-2.59,4.31l-1.83,1.74h4.59Z"/>
      <path class="cls-1" d="m194.2,7.32c0,1.83-1.33,3.05-3.33,3.05-1.86,0-3.21-1.03-3.52-2.61l1.08-.31c.28,1.1,1.24,1.84,2.47,1.84s2.03-.78,2.03-1.96-.85-1.94-2.12-1.94c-.35,0-.71.07-.91.18l-.46-.71,2.89-3.15h-4.46V.68h5.98v.88l-2.58,2.8c1.77.13,2.93,1.28,2.93,2.96Z"/>
      <path class="cls-1" d="m195.7,5.11h6.77v1.06h-6.77v-1.06Z"/>
      <path class="cls-1" d="m209.84,9.13v1.03h-6.38v-.88l2.55-2.41c.94-.9,2.4-2.31,2.4-3.7,0-.96-.68-1.61-1.68-1.61-1.06,0-1.91.78-2.17,2l-1.09-.18c.16-1.63,1.58-2.92,3.4-2.92,1.69,0,2.78,1.07,2.78,2.61,0,1.78-1.53,3.31-2.59,4.31l-1.83,1.74h4.59Z"/>
      <path class="cls-1" d="m211.23,5.42c0-3.14,1.37-4.95,3.73-4.95s3.73,1.81,3.73,4.95-1.37,4.95-3.73,4.95-3.73-1.81-3.73-4.95Zm6.18.13c0-2.53-.94-4.01-2.49-4.01s-2.43,1.38-2.43,3.74c0,2.55.94,4,2.49,4s2.43-1.38,2.43-3.74Z"/>
      <path class="cls-1" d="m226.44,9.13v1.03h-6.38v-.88l2.55-2.41c.94-.9,2.4-2.31,2.4-3.7,0-.96-.68-1.61-1.68-1.61-1.06,0-1.91.78-2.17,2l-1.09-.18c.16-1.63,1.58-2.92,3.4-2.92,1.69,0,2.78,1.07,2.78,2.61,0,1.78-1.53,3.31-2.59,4.31l-1.83,1.74h4.59Z"/>
      <path class="cls-1" d="m234.73,7.95h-1.56v2.21h-1.21v-2.21h-4.71v-.88l4.83-6.39h1.09v6.24h1.56v1.03Zm-2.77-1.03V2.37l-3.4,4.55h3.4Z"/>
    </g>
  </g>
</svg>