<?xml version="1.0" encoding="UTF-8"?><svg id="Layer_2" xmlns="http://www.w3.org/2000/svg" viewBox="0 0 286.52 60.15"><g id="Layer_1-2"><path d="m18.63,40.89h-7.3l-.88,6.96h7.3l.88-6.96Zm4.8,0l-.88,6.96h5v4.12h-5.49l-1.03,8.19h-4.8l1.03-8.19h-7.3l-1.03,8.19h-4.8l1.03-8.19H0v-4.12h5.64l.88-6.96H1.47v-4.12h5.54l1.03-8.19h4.8l-1.03,8.19h7.3l1.03-8.19h4.8l-1.03,8.19h5.1v4.12h-5.59Z" style="fill:#fff; stroke-width:0px;"/><path d="m30.99,21.59c2.46-.65,4.54-1.54,6.18-2.65v41.21h16.9V0h-13.4c-2.24,4.8-5.91,7.87-11.38,9.36" style="fill:#fff; stroke-width:0px;"/><path d="m110.58,19.77v28.58h-7.81v-11.8h-10.83v11.8h-7.81v-28.58h7.81v10.38h10.83v-10.38h7.81Z" style="fill:#fff; stroke-width:0px;"/><path d="m113.86,34.05c0-8.96,6.04-14.91,15.13-14.91s15.04,5.95,15.04,14.91-6.04,14.91-15.04,14.91-15.13-5.95-15.13-14.91Zm22.36.27c0-5.19-2.97-8.61-7.28-8.61s-7.28,3.24-7.28,8.08c0,5.19,3.02,8.61,7.37,8.61s7.19-3.28,7.19-8.08Z" style="fill:#fff; stroke-width:0px;"/><path d="m145.72,40.98l6.79-1.82c.8,2.31,3.2,3.82,6.08,3.82,2.57,0,4.3-1.02,4.3-2.57,0-4.7-16.55-1.6-16.55-11.98,0-5.55,4.66-9.27,11.67-9.27,5.95,0,10.47,2.71,11.98,6.88l-6.57,2.31c-.98-2-3.24-3.28-5.86-3.28-2.17,0-3.64.93-3.64,2.31,0,4.48,16.64,1.33,16.64,11.98,0,5.77-4.88,9.63-12.25,9.63-6.61,0-11.49-3.15-12.6-7.99Z" style="fill:#fff; stroke-width:0px;"/><path d="m196.53,29.44c0,5.81-4.39,9.72-10.96,9.72h-4.08v9.19h-7.77v-28.58h11.67c6.7,0,11.14,3.86,11.14,9.67Zm-7.54.27c0-2.22-1.69-3.73-4.22-3.73h-3.28v7.05h4.17c2,0,3.33-1.33,3.33-3.33Z" style="fill:#fff; stroke-width:0px;"/><path d="m199.41,19.77h7.81v28.58h-7.81v-28.58Z" style="fill:#fff; stroke-width:0px;"/><path d="m234.2,26.11h-8.25v22.23h-7.81v-22.23h-8.25v-6.35h24.32v6.35Z" style="fill:#fff; stroke-width:0px;"/><path d="m254.35,42.66h-10.56l-2,5.68h-7.72l11.14-28.58h7.99l11.14,28.58h-7.99l-2-5.68Zm-2.17-6.12l-3.11-8.7-3.11,8.7h6.21Z" style="fill:#fff; stroke-width:0px;"/><path d="m286.52,42v6.35h-20.46v-28.58h7.81v22.23h12.65Z" style="fill:#fff; stroke-width:0px;"/></g></svg>