<?xml version="1.0" encoding="UTF-8"?><svg id="Layer_2" xmlns="http://www.w3.org/2000/svg" viewBox="0 0 238.37 29.82"><g id="Layer_1-2"><path d="m0,.62h7.81v28.58H0V.62Z" style="fill:#d2e203; stroke-width:0px;"/><path d="m39.23.62v28.58h-8.43l-11.18-17.48v17.48h-7.28V.62h8.43l11.18,17.48V.62h7.28Z" style="fill:#d2e203; stroke-width:0px;"/><path d="m59.1,6.92v5.28h10.92v6.12h-10.92v10.87h-7.81V.62h21.3v6.3h-13.49Z" style="fill:#d2e203; stroke-width:0px;"/><path d="m96.11,22.85v6.35h-20.46V.62h7.81v22.23h12.65Z" style="fill:#d2e203; stroke-width:0px;"/><path d="m97.53,14.91c0-8.96,6.04-14.91,15.13-14.91s15.04,5.95,15.04,14.91-6.04,14.91-15.04,14.91-15.13-5.95-15.13-14.91Zm22.36.27c0-5.19-2.97-8.61-7.28-8.61s-7.28,3.24-7.28,8.08c0,5.19,3.02,8.61,7.37,8.61s7.19-3.28,7.19-8.08Z" style="fill:#d2e203; stroke-width:0px;"/><path d="m155.97,29.2c-.75.18-1.64.27-2.57.27-3.19,0-5.55-.93-7.28-2.88l-5.99-6.83h-1.38v9.45h-7.77V.62h11.45c6.57,0,10.92,3.82,10.92,9.58,0,3.64-1.91,6.43-5.1,7.9l3.5,3.9c.67.71,1.38,1.07,2.49,1.07.53,0,1.06-.04,1.51-.09l.22,6.21Zm-17.22-22.41v6.97h3.86c1.95,0,3.28-1.33,3.28-3.28,0-2.22-1.6-3.68-3.99-3.68h-3.15Z" style="fill:#d2e203; stroke-width:0px;"/><path d="m158.68.62h7.81v28.58h-7.81V.62Z" style="fill:#d2e203; stroke-width:0px;"/><path d="m198.17,14.95c0,8.56-6.21,14.24-15.49,14.24h-11.67V.62h11.67c9.27,0,15.49,5.72,15.49,14.33Zm-7.81.27c0-4.97-3.37-8.3-8.39-8.3h-3.15v15.97h4.22c4.39,0,7.32-3.06,7.32-7.68Z" style="fill:#d2e203; stroke-width:0px;"/><path d="m218.89,23.52h-10.56l-2,5.68h-7.72L209.75.62h7.99l11.14,28.58h-7.99l-2-5.68Zm-2.17-6.12l-3.11-8.7-3.11,8.7h6.21Z" style="fill:#d2e203; stroke-width:0px;"/><path d="m229.32,25.34c0-2.53,2-4.48,4.53-4.48s4.53,1.95,4.53,4.48-2,4.48-4.53,4.48-4.53-1.95-4.53-4.48Z" style="fill:#d2e203; stroke-width:0px;"/></g></svg>