<?xml version="1.0" encoding="UTF-8"?><svg id="Layer_2" xmlns="http://www.w3.org/2000/svg" viewBox="0 0 245.02 16.8"><g id="Layer_1-2"><path d="m0,12.3l3.82-1.02c.45,1.3,1.8,2.15,3.42,2.15,1.45,0,2.42-.57,2.42-1.45,0-2.65-9.32-.9-9.32-6.75C.35,2.1,2.97,0,6.92,0c3.35,0,5.9,1.53,6.75,3.87l-3.7,1.3c-.55-1.12-1.83-1.85-3.3-1.85-1.22,0-2.05.53-2.05,1.3,0,2.52,9.37.75,9.37,6.75,0,3.25-2.75,5.42-6.9,5.42-3.72,0-6.47-1.77-7.1-4.5Z" style="fill:#fff; stroke-width:0px;"/><path d="m28.45,12.95v3.5h-12.67V.35h12.15v3.5h-7.77v2.57h6.02v3.35h-6.02v3.17h8.3Z" style="fill:#fff; stroke-width:0px;"/><path d="m44.3,16.45c-.43.1-.92.15-1.45.15-1.8,0-3.12-.53-4.1-1.62l-3.37-3.85h-.78v5.32h-4.37V.35h6.45c3.7,0,6.15,2.15,6.15,5.4,0,2.05-1.08,3.62-2.88,4.45l1.97,2.2c.38.4.78.6,1.4.6.3,0,.6-.03.85-.05l.12,3.5Zm-9.7-12.62v3.92h2.17c1.1,0,1.85-.75,1.85-1.85,0-1.25-.9-2.07-2.25-2.07h-1.77Z" style="fill:#fff; stroke-width:0px;"/><path d="m60.92.35l-6.12,16.1h-4.4L44.27.35h4.6l3.8,11L56.47.35h4.45Z" style="fill:#fff; stroke-width:0px;"/><path d="m61.92.35h4.4v16.1h-4.4V.35Z" style="fill:#fff; stroke-width:0px;"/><path d="m84.02.35v16.1h-4.75l-6.3-9.85v9.85h-4.1V.35h4.75l6.3,9.85V.35h4.1Z" style="fill:#fff; stroke-width:0px;"/><path d="m101.72,7.52v6.85c-1.8,1.55-4.35,2.42-7.07,2.42-5.27,0-8.77-3.35-8.77-8.4s3.3-8.4,8.22-8.4c3.82,0,6.65,1.95,7.4,4.97l-3.97.83c-.52-1.3-1.82-2.15-3.4-2.15-2.35,0-3.9,1.9-3.9,4.72s1.85,4.77,4.62,4.77c1,0,2-.28,2.87-.73v-1.8h-2.85v-3.1h6.85Z" style="fill:#fff; stroke-width:0px;"/><path d="m126.82.35v16.1h-4.35V6.2l-3.42,7.22h-3.5l-3.42-7.22v10.25h-4.05V.35h5.3l4,8.45,4-8.45h5.45Z" style="fill:#fff; stroke-width:0px;"/><path d="m128.67,8.4c0-5.05,3.4-8.4,8.52-8.4s8.47,3.35,8.47,8.4-3.4,8.4-8.47,8.4-8.52-3.35-8.52-8.4Zm12.6.15c0-2.92-1.67-4.85-4.1-4.85s-4.1,1.83-4.1,4.55c0,2.92,1.7,4.85,4.15,4.85s4.05-1.85,4.05-4.55Z" style="fill:#fff; stroke-width:0px;"/><path d="m161.6,16.45c-.43.1-.92.15-1.45.15-1.8,0-3.12-.53-4.1-1.62l-3.37-3.85h-.78v5.32h-4.37V.35h6.45c3.7,0,6.15,2.15,6.15,5.4,0,2.05-1.08,3.62-2.88,4.45l1.97,2.2c.38.4.78.6,1.4.6.3,0,.6-.03.85-.05l.12,3.5Zm-9.7-12.62v3.92h2.17c1.1,0,1.85-.75,1.85-1.85,0-1.25-.9-2.07-2.25-2.07h-1.77Z" style="fill:#fff; stroke-width:0px;"/><path d="m175.79,12.95v3.5h-12.67V.35h12.15v3.5h-7.77v2.57h6.02v3.35h-6.02v3.17h8.3Z" style="fill:#fff; stroke-width:0px;"/><path d="m194.47,3.92h-4.65v12.52h-4.4V3.92h-4.65V.35h13.7v3.57Z" style="fill:#fff; stroke-width:0px;"/><path d="m210.87.35v16.1h-4.4v-6.65h-6.1v6.65h-4.4V.35h4.4v5.85h6.1V.35h4.4Z" style="fill:#fff; stroke-width:0px;"/><path d="m223.27,13.25h-5.95l-1.12,3.2h-4.35L218.12.35h4.5l6.27,16.1h-4.5l-1.12-3.2Zm-1.22-3.45l-1.75-4.9-1.75,4.9h3.5Z" style="fill:#fff; stroke-width:0px;"/><path d="m245.02.35v16.1h-4.75l-6.3-9.85v9.85h-4.1V.35h4.75l6.3,9.85V.35h4.1Z" style="fill:#fff; stroke-width:0px;"/></g></svg>