<?xml version="1.0" encoding="UTF-8"?><svg id="Layer_2" xmlns="http://www.w3.org/2000/svg" viewBox="0 0 159.24 36"><g id="Layer_1-2"><path d="m13.29.26v28.69h-7.66V8.84c-1.23.84-3.04,1.41-5.24,1.63l-.4-5.59c3.65-.4,5.94-1.89,7.22-4.62h6.07Z" style="fill:#d2e203; stroke-width:0px;"/><path d="m40.75,19.36c0,6.03-4.62,10.21-11.57,10.21-7.3,0-12.1-4.4-12.1-13.82C17.07,5.81,21.78.09,29.96.09c4.88,0,8.67,2.16,10.12,5.59l-6.21,2.68c-.75-1.32-2.29-2.2-4.05-2.2-3.04,0-4.88,2.68-5.28,7.48,1.58-2.24,3.83-3.3,6.82-3.3,5.54,0,9.37,3.7,9.37,9.02Zm-7.66.53c0-2.2-1.58-3.83-3.79-3.83-1.85,0-3.96,1.14-3.96,3.74,0,2.24,1.67,3.87,3.96,3.87s3.79-1.58,3.79-3.79Z" style="fill:#d2e203; stroke-width:0px;"/><path d="m67.28,23.15h-3.78v5.81h-7.48v-5.81h-13.64v-4.58L56.72.62h6.78v16.99h3.78v5.54Zm-11.27-5.54v-8.54l-6.87,8.54h6.87Z" style="fill:#d2e203; stroke-width:0px;"/><path d="m67.98,33.09c3.74-3.12,4.14-5.68,1.28-7.96,0-2.51,1.89-4.45,4.31-4.45,2.6,0,4.31,1.94,4.31,4.88,0,3.74-2.9,7.92-7.22,10.43l-2.68-2.9Z" style="fill:#d2e203; stroke-width:0px;"/><path d="m80.39,14.79c0-9.37,4.49-14.79,12.23-14.79s12.23,5.41,12.23,14.79-4.49,14.79-12.23,14.79-12.23-5.41-12.23-14.79Zm16.81.31c0-5.68-1.8-9.02-4.67-9.02s-4.49,3.12-4.49,8.41c0,5.68,1.8,9.02,4.66,9.02s4.49-3.12,4.49-8.41Z" style="fill:#d2e203; stroke-width:0px;"/><path d="m107.58,14.79c0-9.37,4.49-14.79,12.23-14.79s12.23,5.41,12.23,14.79-4.49,14.79-12.23,14.79-12.23-5.41-12.23-14.79Zm16.81.31c0-5.68-1.8-9.02-4.67-9.02s-4.49,3.12-4.49,8.41c0,5.68,1.8,9.02,4.66,9.02s4.49-3.12,4.49-8.41Z" style="fill:#d2e203; stroke-width:0px;"/><path d="m134.77,14.79c0-9.37,4.49-14.79,12.23-14.79s12.23,5.41,12.23,14.79-4.49,14.79-12.23,14.79-12.23-5.41-12.23-14.79Zm16.81.31c0-5.68-1.8-9.02-4.67-9.02s-4.49,3.12-4.49,8.41c0,5.68,1.8,9.02,4.66,9.02s4.49-3.12,4.49-8.41Z" style="fill:#d2e203; stroke-width:0px;"/></g></svg>