<?xml version="1.0" encoding="UTF-8"?><svg id="Layer_2" xmlns="http://www.w3.org/2000/svg" viewBox="0 0 252.2 20.45"><g id="Layer_1-2"><path d="m12.85,5.8c0,3.27-2.47,5.47-6.17,5.47h-2.3v5.17H0V.35h6.57c3.77,0,6.27,2.17,6.27,5.45Zm-4.25.15c0-1.25-.95-2.1-2.38-2.1h-1.85v3.97h2.35c1.12,0,1.88-.75,1.88-1.87Z" style="fill:#fff; stroke-width:0px;"/><path d="m24.32,13.25h-5.95l-1.12,3.2h-4.35L19.17.35h4.5l6.27,16.1h-4.5l-1.12-3.2Zm-1.22-3.45l-1.75-4.9-1.75,4.9h3.5Z" style="fill:#fff; stroke-width:0px;"/><path d="m43.57,3.92h-4.65v12.52h-4.4V3.92h-4.65V.35h13.7v3.57Z" style="fill:#fff; stroke-width:0px;"/><path d="m45.07.35h4.4v16.1h-4.4V.35Z" style="fill:#fff; stroke-width:0px;"/><path d="m64.7,12.95v3.5h-12.67V.35h12.15v3.5h-7.77v2.57h6.02v3.35h-6.02v3.17h8.3Z" style="fill:#fff; stroke-width:0px;"/><path d="m81.62.35v16.1h-4.75l-6.3-9.85v9.85h-4.1V.35h4.75l6.3,9.85V.35h4.1Z" style="fill:#fff; stroke-width:0px;"/><path d="m96.82,3.92h-4.65v12.52h-4.4V3.92h-4.65V.35h13.7v3.57Z" style="fill:#fff; stroke-width:0px;"/><path d="m97.42,12.3l3.82-1.02c.45,1.3,1.8,2.15,3.42,2.15,1.45,0,2.42-.57,2.42-1.45,0-2.65-9.32-.9-9.32-6.75,0-3.12,2.62-5.22,6.57-5.22,3.35,0,5.9,1.53,6.75,3.87l-3.7,1.3c-.55-1.12-1.83-1.85-3.3-1.85-1.22,0-2.05.53-2.05,1.3,0,2.52,9.37.75,9.37,6.75,0,3.25-2.75,5.42-6.9,5.42-3.72,0-6.47-1.77-7.1-4.5Z" style="fill:#fff; stroke-width:0px;"/><path d="m130.12,12.95v3.5h-12.67V.35h12.15v3.5h-7.77v2.57h6.02v3.35h-6.02v3.17h8.3Z" style="fill:#fff; stroke-width:0px;"/><path d="m141.75,13.25h-5.95l-1.12,3.2h-4.35L136.6.35h4.5l6.27,16.1h-4.5l-1.12-3.2Zm-1.22-3.45l-1.75-4.9-1.75,4.9h3.5Z" style="fill:#fff; stroke-width:0px;"/><path d="m147.65,8.4c0-5.05,3.25-8.4,8.12-8.4,3.97,0,6.92,2.15,7.52,5.42l-4,.67c-.45-1.45-1.82-2.4-3.5-2.4-2.25,0-3.75,1.85-3.75,4.65s1.58,4.7,3.92,4.7c1.72,0,3.1-.97,3.45-2.45l4,.67c-.6,3.32-3.62,5.52-7.75,5.52-4.82,0-8.02-3.35-8.02-8.4Z" style="fill:#fff; stroke-width:0px;"/><path d="m179.74.35v16.1h-4.4v-6.65h-6.1v6.65h-4.4V.35h4.4v5.85h6.1V.35h4.4Z" style="fill:#fff; stroke-width:0px;"/><path d="m195,10.55v5.9h-4.4v-5.9l-5.52-10.2h4.55l3.25,6.37,3.25-6.37h4.4l-5.52,10.2Z" style="fill:#fff; stroke-width:0px;"/><path d="m214.27,12.95v3.5h-12.67V.35h12.15v3.5h-7.77v2.57h6.02v3.35h-6.02v3.17h8.3Z" style="fill:#fff; stroke-width:0px;"/><path d="m225.89,13.25h-5.95l-1.12,3.2h-4.35L220.75.35h4.5l6.27,16.1h-4.5l-1.12-3.2Zm-1.22-3.45l-1.75-4.9-1.75,4.9h3.5Z" style="fill:#fff; stroke-width:0px;"/><path d="m246.57,16.45c-.43.1-.92.15-1.45.15-1.8,0-3.12-.53-4.1-1.62l-3.37-3.85h-.78v5.32h-4.37V.35h6.45c3.7,0,6.15,2.15,6.15,5.4,0,2.05-1.08,3.62-2.88,4.45l1.97,2.2c.38.4.78.6,1.4.6.3,0,.6-.03.85-.05l.12,3.5Zm-9.7-12.62v3.92h2.17c1.1,0,1.85-.75,1.85-1.85,0-1.25-.9-2.07-2.25-2.07h-1.77Z" style="fill:#fff; stroke-width:0px;"/><path d="m246.57,18.8c2.12-1.77,2.35-3.22.72-4.52,0-1.42,1.08-2.52,2.45-2.52,1.47,0,2.45,1.1,2.45,2.77,0,2.12-1.65,4.5-4.1,5.92l-1.52-1.65Z" style="fill:#fff; stroke-width:0px;"/></g></svg>