<?xml version="1.0" encoding="UTF-8"?><svg id="Layer_2" xmlns="http://www.w3.org/2000/svg" viewBox="0 0 239.18 13.21"><g id="Layer_1-2"><path d="m0,6.9V.69h1.29v6.06c0,1.69.97,2.68,2.64,2.68s2.64-.99,2.64-2.68V.69h1.29v6.21c0,2.31-1.44,3.66-3.93,3.66s-3.93-1.35-3.93-3.66Z" style="fill:#fff; stroke-width:0px;"/><path d="m9.36,9.67c0-.48.39-.86.87-.86s.87.38.87.86-.39.85-.87.85-.87-.38-.87-.85Z" style="fill:#fff; stroke-width:0px;"/><path d="m12.31,8.05l1.12-.36c.32,1.07,1.42,1.75,2.79,1.75s2.34-.64,2.34-1.6c0-2.46-6-1.14-6-4.58,0-1.67,1.4-2.77,3.48-2.77,1.81,0,3.18.85,3.63,2.19l-1.12.39c-.39-.92-1.38-1.5-2.58-1.5-1.29,0-2.17.6-2.17,1.5,0,2.4,6.03,1.05,6.03,4.57,0,1.74-1.47,2.9-3.67,2.9-2.01,0-3.51-.99-3.84-2.49Z" style="fill:#fff; stroke-width:0px;"/><path d="m21.12,9.67c0-.48.39-.86.87-.86s.87.38.87.86-.39.85-.87.85-.87-.38-.87-.85Z" style="fill:#fff; stroke-width:0px;"/><path d="m35.77.69v9.66h-1.44l-5.37-7.75v7.75h-1.23V.69h1.44l5.37,7.75V.69h1.23Z" style="fill:#fff; stroke-width:0px;"/><path d="m43.81,7.23h-5.07c.09,1.38.95,2.28,2.18,2.28.81,0,1.44-.39,1.72-1.02l1.09.27c-.38,1.08-1.48,1.8-2.91,1.8-1.99,0-3.31-1.41-3.31-3.51s1.3-3.51,3.27-3.51,3.03,1.32,3.03,3.45v.24Zm-5.02-.85h3.73c-.15-1.17-.79-1.83-1.8-1.83s-1.74.71-1.93,1.83Z" style="fill:#fff; stroke-width:0px;"/><path d="m55.11,3.75l-2.4,6.6h-1.2l-1.68-4.91-1.68,4.91h-1.2l-2.4-6.6h1.3l1.74,5.1,1.71-5.1h1.11l1.71,5.1,1.74-5.1h1.25Z" style="fill:#fff; stroke-width:0px;"/><path d="m55.71,8.79l1.07-.32c.22.66.92,1.08,1.77,1.08s1.42-.39,1.42-.96c0-1.51-4-.63-4-3.03,0-1.2,1-2.01,2.52-2.01,1.2,0,2.14.55,2.52,1.42l-1.04.44c-.27-.54-.87-.88-1.56-.88-.78,0-1.29.34-1.29.85,0,1.46,4.04.54,4.04,3.01,0,1.29-1.08,2.15-2.68,2.15-1.41,0-2.48-.69-2.76-1.75Z" style="fill:#fff; stroke-width:0px;"/><path d="m74.74,10.38c-.17.03-.34.04-.5.04-.63,0-1.26-.27-1.79-.77l-.6-.57c-.85.94-2.02,1.47-3.3,1.47-1.83,0-3.06-.99-3.06-2.49,0-1.18.85-2.17,2.37-2.76l-.19-.19c-.65-.62-1-1.33-1-2.16,0-1.47,1.11-2.46,2.77-2.46s2.68.93,2.68,2.31c0,1.21-.81,2.19-2.26,2.76l1.98,1.88,1.68-2.43.87.6-1.79,2.57.69.64c.39.38.72.56,1,.56.12,0,.25,0,.38-.02l.06,1.02Zm-3.62-2l-2.52-2.4c-1.2.53-1.86,1.25-1.86,2.04,0,.89.75,1.49,1.86,1.49.93,0,1.83-.41,2.52-1.12Zm-3.22-5.47c0,.5.24,1,.66,1.41l.58.55c1.14-.5,1.79-1.21,1.79-2.03s-.62-1.3-1.53-1.3-1.5.54-1.5,1.37Z" style="fill:#fff; stroke-width:0px;"/><path d="m92.04.69l-3.17,9.66h-1.32l-2.46-7.89-2.46,7.89h-1.32l-3.17-9.66h1.37l2.5,8.07,2.47-8.07h1.26l2.48,8.07,2.5-8.07h1.3Z" style="fill:#fff; stroke-width:0px;"/><path d="m92.26,7.05c0-2.1,1.39-3.51,3.49-3.51s3.5,1.41,3.5,3.51-1.41,3.51-3.5,3.51-3.49-1.41-3.49-3.51Zm5.73.06c0-1.54-.92-2.53-2.25-2.53s-2.22.99-2.22,2.42c0,1.54.92,2.53,2.25,2.53s2.22-.97,2.22-2.42Z" style="fill:#fff; stroke-width:0px;"/><path d="m104.63,3.63v1.23c-.22-.01-.42-.01-.61-.01-.98,0-1.94.65-1.94,1.98v3.52h-1.23V3.75h1.2v1.33c.82-1.05,1.48-1.47,2.28-1.47.08,0,.18,0,.3.01Z" style="fill:#fff; stroke-width:0px;"/><path d="m105.89.27l1.23-.27v10.35h-1.23V.27Z" style="fill:#fff; stroke-width:0px;"/><path d="m115.34,0v10.35h-1.2v-1.02c-.72.84-1.51,1.23-2.46,1.23-1.77,0-2.95-1.33-2.95-3.33,0-2.13,1.38-3.69,3.46-3.69.69,0,1.32.18,1.92.52V.27l1.23-.27Zm-1.23,7.6v-2.25c-.54-.52-1.2-.81-1.89-.81-1.3,0-2.23,1.08-2.23,2.56s.87,2.4,2.17,2.4c.99,0,1.95-.62,1.95-1.91Z" style="fill:#fff; stroke-width:0px;"/><path d="m128.54,10.38c-.18.03-.36.04-.5.04-.75,0-1.32-.25-1.8-.81l-2.56-2.95h-1.49v3.69h-1.29V.69h3.33c2.02,0,3.39,1.18,3.39,2.97,0,1.46-.94,2.52-2.43,2.83l1.96,2.28c.27.32.58.54.95.54.12,0,.25,0,.38-.01l.06,1.08Zm-6.34-4.77h2.1c1.2,0,2.01-.75,2.01-1.89s-.9-1.96-2.24-1.96h-1.88v3.85Z" style="fill:#fff; stroke-width:0px;"/><path d="m135.55,7.23h-5.07c.09,1.38.95,2.28,2.18,2.28.81,0,1.44-.39,1.72-1.02l1.09.27c-.38,1.08-1.48,1.8-2.91,1.8-1.99,0-3.31-1.41-3.31-3.51s1.3-3.51,3.27-3.51,3.03,1.32,3.03,3.45v.24Zm-5.02-.85h3.73c-.15-1.17-.79-1.83-1.8-1.83s-1.74.71-1.93,1.83Z" style="fill:#fff; stroke-width:0px;"/><path d="m143.77,6.87c0,2.13-1.38,3.69-3.46,3.69-.69,0-1.32-.18-1.92-.53v2.91l-1.23.27V3.75h1.2v1.02c.72-.84,1.51-1.23,2.46-1.23,1.77,0,2.96,1.33,2.96,3.33Zm-1.26.12c0-1.44-.87-2.4-2.17-2.4-.99,0-1.95.62-1.95,1.91v2.25c.54.52,1.2.81,1.89.81,1.3,0,2.23-1.08,2.23-2.56Z" style="fill:#fff; stroke-width:0px;"/><path d="m144.91,7.05c0-2.1,1.39-3.51,3.49-3.51s3.5,1.41,3.5,3.51-1.41,3.51-3.5,3.51-3.49-1.41-3.49-3.51Zm5.73.06c0-1.54-.92-2.53-2.25-2.53s-2.22.99-2.22,2.42c0,1.54.92,2.53,2.25,2.53s2.22-.97,2.22-2.42Z" style="fill:#fff; stroke-width:0px;"/><path d="m157.28,3.63v1.23c-.22-.01-.42-.01-.61-.01-.98,0-1.94.65-1.94,1.98v3.52h-1.23V3.75h1.2v1.33c.82-1.05,1.48-1.47,2.28-1.47.08,0,.18,0,.3.01Z" style="fill:#fff; stroke-width:0px;"/><path d="m162.32,10.12c-.33.24-.93.42-1.51.42-1.26,0-1.96-.66-1.96-1.83v-3.97h-1.02v-.83l1.05-.18.24-1.67h.96v1.68h2.18v.99h-2.18v3.82c0,.58.38.93,1.02.93.33,0,.71-.09.99-.23l.24.86Z" style="fill:#fff; stroke-width:0px;"/><path d="m172.9,9.3v1.05h-6.5v-.9l2.6-2.46c.96-.92,2.44-2.36,2.44-3.77,0-.97-.69-1.63-1.71-1.63-1.08,0-1.95.79-2.21,2.04l-1.11-.18c.17-1.67,1.6-2.97,3.46-2.97,1.72,0,2.83,1.09,2.83,2.65,0,1.82-1.56,3.38-2.64,4.39l-1.86,1.77h4.68Z" style="fill:#fff; stroke-width:0px;"/><path d="m174.32,5.52c0-3.19,1.4-5.04,3.79-5.04s3.79,1.84,3.79,5.04-1.39,5.04-3.79,5.04-3.79-1.84-3.79-5.04Zm6.3.14c0-2.58-.96-4.08-2.53-4.08s-2.48,1.41-2.48,3.81c0,2.59.96,4.08,2.54,4.08s2.47-1.41,2.47-3.81Z" style="fill:#fff; stroke-width:0px;"/><path d="m189.82,9.3v1.05h-6.5v-.9l2.6-2.46c.96-.92,2.44-2.36,2.44-3.77,0-.97-.69-1.63-1.71-1.63-1.08,0-1.95.79-2.21,2.04l-1.11-.18c.17-1.67,1.6-2.97,3.46-2.97,1.72,0,2.83,1.09,2.83,2.65,0,1.82-1.56,3.38-2.64,4.39l-1.86,1.77h4.68Z" style="fill:#fff; stroke-width:0px;"/><path d="m197.89,7.46c0,1.86-1.35,3.1-3.39,3.1-1.89,0-3.27-1.05-3.58-2.66l1.1-.31c.28,1.12,1.26,1.88,2.52,1.88s2.07-.79,2.07-2-.87-1.98-2.16-1.98c-.36,0-.72.07-.93.18l-.47-.72,2.94-3.21h-4.54V.69h6.09v.9l-2.62,2.85c1.8.14,2.99,1.31,2.99,3.02Z" style="fill:#fff; stroke-width:0px;"/><path d="m199.42,5.21h6.9v1.08h-6.9v-1.08Z" style="fill:#fff; stroke-width:0px;"/><path d="m213.82,9.3v1.05h-6.5v-.9l2.6-2.46c.96-.92,2.44-2.36,2.44-3.77,0-.97-.69-1.63-1.71-1.63-1.08,0-1.95.79-2.21,2.04l-1.11-.18c.17-1.67,1.6-2.97,3.46-2.97,1.72,0,2.83,1.09,2.83,2.65,0,1.82-1.56,3.38-2.64,4.39l-1.86,1.77h4.68Z" style="fill:#fff; stroke-width:0px;"/><path d="m215.24,5.52c0-3.19,1.4-5.04,3.79-5.04s3.79,1.84,3.79,5.04-1.39,5.04-3.79,5.04-3.79-1.84-3.79-5.04Zm6.3.14c0-2.58-.96-4.08-2.53-4.08s-2.48,1.41-2.48,3.81c0,2.59.96,4.08,2.54,4.08s2.47-1.41,2.47-3.81Z" style="fill:#fff; stroke-width:0px;"/><path d="m230.73,9.3v1.05h-6.5v-.9l2.6-2.46c.96-.92,2.44-2.36,2.44-3.77,0-.97-.69-1.63-1.71-1.63-1.08,0-1.95.79-2.21,2.04l-1.11-.18c.17-1.67,1.6-2.97,3.46-2.97,1.72,0,2.83,1.09,2.83,2.65,0,1.82-1.56,3.38-2.64,4.39l-1.86,1.77h4.68Z" style="fill:#fff; stroke-width:0px;"/><path d="m239.18,8.1h-1.59v2.25h-1.23v-2.25h-4.8v-.9l4.92-6.51h1.11v6.36h1.59v1.05Zm-2.82-1.05V2.42l-3.46,4.63h3.46Z" style="fill:#fff; stroke-width:0px;"/></g></svg>