<?xml version="1.0" encoding="UTF-8"?>
<svg id="Layer_2" data-name="Layer 2" xmlns="http://www.w3.org/2000/svg" viewBox="0 0 75 81.82">
  <defs>
    <style>
      .cls-1 {
        fill: #fff;
        stroke-width: 0px;
      }
    </style>
  </defs>
  <g id="Layer_1-2" data-name="Layer 1">
    <path class="cls-1" d="m11.32,13.06c-1.54-.04-1.87-.35-1.87-2.18V2.95l5.41,10.64h.49l5.41-10.64v8.95c0,.96-.13,1.08-1.78,1.16v.97h5.96v-.97c-1.65-.08-1.78-.2-1.78-1.16V2.4c0-.95.13-1.08,1.78-1.16V.27h-4.11l-5.04,9.98L10.77.27h-4.42v.94c1.58.17,1.87.31,1.87,2.07v7.6c0,1.83-.33,2.15-1.87,2.18v.97h4.97v-.97Zm19.43.02c-1.34-.04-1.73-.28-1.73-.94,0-.2.09-.51.24-.84l.84-1.89h5.37l.92,2.13c.13.29.2.55.2.73,0,.57-.36.79-1.56.81v.95h5.67v-.97c-1.01-.06-1.19-.28-1.67-1.36L33.89.12h-.94l-5.15,11.57c-.48,1.08-.66,1.3-1.67,1.36v.97h4.62v-.95Zm-.17-4.77l2.22-5.03,2.2,5.03h-4.42Zm18.61,4.75c-1.73-.08-1.87-.2-1.87-1.16v-3.94l3.83-5.44c.7-.99.92-1.23,1.94-1.27V.27h-4.71v.95c1.21.04,1.5.24,1.5.68,0,.28-.13.59-.42.99l-2.66,3.82-2.73-3.94c-.27-.37-.38-.62-.38-.86,0-.44.31-.66,1.56-.68V.27h-6.13v.97c.92.04,1.15.28,1.83,1.25l3.94,5.59v3.81c0,.96-.15,1.08-1.87,1.16v.97h6.16v-.97Zm4.24-5.65c0,4.11,2.79,6.89,7.37,6.89s7.89-3.08,7.89-7.41-2.79-6.89-7.37-6.89-7.89,3.08-7.89,7.41m2.57-.64c0-3.67,1.84-5.61,4.91-5.61s5.21,2.34,5.21,6.38c0,3.67-1.84,5.61-4.91,5.61s-5.21-2.34-5.21-6.38M11.48,23.94h.84l.66-3.39c-1.1-.55-2.92-.9-4.67-.9-4.95,0-8.31,3.17-8.31,7.41s2.95,6.9,7.71,6.9c2.36,0,4.27-.75,5.63-1.98l-.61-.75c-1.23.92-2.75,1.41-4.27,1.41-3.38,0-5.89-2.31-5.89-6.25,0-3.54,2.01-5.56,5.3-5.56,2.58,0,3.61.77,3.61,2.7v.42Zm15.39,5.78h-.79l-.29.63c-.84,1.8-1.54,2.22-3.1,2.22h-2.57c-.86,0-.97-.36-.97-1.6v-8.88c0-.97.16-1.16,2.14-1.19v-.97h-6.35v.97c1.65.08,1.78.2,1.78,1.16v8.71c0,1.6-.11,1.72-1.63,2.02v.9h11.01l.77-3.96Zm1.27-8.82c1.73.08,1.87.2,1.87,1.16v9.5c0,.96-.15,1.08-1.87,1.16v.97h6.16v-.97c-1.72-.07-1.87-.2-1.87-1.16v-9.5c0-.96.15-1.08,1.87-1.16v-.97h-6.16v.97Zm22.21,2.18c0-1.83.33-2.15,1.87-2.18v-.97h-4.97v.97c1.54.04,1.87.35,1.87,2.18v6.95l-8.9-10.11h-3.96l.15.9c1.62.26,1.81.42,1.81,1.85v7.85c0,1.84-.33,2.15-1.87,2.18v.97h4.97v-.97c-1.54-.04-1.87-.35-1.87-2.18v-7.81l9.91,11.15h.99v-10.78Zm3.58-2.18c1.72.08,1.87.2,1.87,1.16v9.5c0,.96-.15,1.08-1.87,1.16v.97h6.16v-.97c-1.73-.07-1.87-.2-1.87-1.16v-9.5c0-.96.15-1.08,1.87-1.16v-.97h-6.16v.97Zm19.22,3.04h.84l.66-3.39c-1.1-.55-2.92-.9-4.68-.9-4.95,0-8.31,3.17-8.31,7.41s2.95,6.9,7.7,6.9c2.37,0,4.27-.75,5.63-1.98l-.61-.75c-1.23.92-2.75,1.41-4.27,1.41-3.38,0-5.89-2.31-5.89-6.25,0-3.54,2.01-5.56,5.3-5.56,2.58,0,3.61.77,3.61,2.7v.42Zm-13.27,30.78c0,6.06-2.62,10.33-8.01,12.57-.63-.26-1.21-.55-1.76-.87.07-.78.11-1.58.11-2.42v-14.29h-6.36v-5.05h16.02v10.05Zm-18.65-12.75v11.96c0,4.68,1.41,8.35,4.3,11.1h0v-3.14c-1.11-2-1.66-4.39-1.66-7.16v-2.32h3.69v12.13c0,1.17-.05,1.79-.07,2.05-.49,6.63-3.77,11.12-9.99,13.72-6.22-2.59-9.49-7.08-9.99-13.7,4.22-2.87,6.26-7.04,6.26-12.68v-1.52h5.42v-2.68h-14.42v14.4c1.1-.77,1.99-1.69,2.67-2.77v-8.95h3.69v2.32c0,4.13-1.22,7.42-3.69,9.81-1.03.99-1.98,1.57-2.56,1.89-.67.38-1.14.6-1.76.87-5.39-2.25-8.01-6.51-8.01-12.57v-10.05h16.02v3.02h2.63v-5.72H12.49v11.96c0,7.32,3.44,12.18,10.64,14.91.69-.26,1.35-.55,1.97-.85,1.11,6.56,5.17,11.1,12.4,13.84,7.23-2.73,11.29-7.27,12.4-13.84.62.3,1.28.59,1.97.85,7.2-2.73,10.64-7.59,10.64-14.91v-11.96h-21.28Z"/>
  </g>
</svg>