<?xml version="1.0" encoding="UTF-8"?>
<svg id="Layer_2" data-name="Layer 2" xmlns="http://www.w3.org/2000/svg" viewBox="0 0 193.39 24.19">
  <defs>
    <style>
      .cls-1 {
        fill: #d2e203;
        stroke-width: 0px;
      }
    </style>
  </defs>
  <g id="Layer_1-2" data-name="Layer 1">
    <g>
      <path class="cls-1" d="m0,.5h6.33v23.18H0V.5Z"/>
      <path class="cls-1" d="m31.82.5v23.18h-6.84l-9.07-14.18v14.18h-5.9V.5h6.84l9.07,14.18V.5h5.9Z"/>
      <path class="cls-1" d="m47.95,5.62v4.28h8.85v4.97h-8.85v8.82h-6.33V.5h17.28v5.11h-10.94Z"/>
      <path class="cls-1" d="m77.97,18.54v5.15h-16.59V.5h6.33v18.03h10.26Z"/>
      <path class="cls-1" d="m79.13,12.09c0-7.27,4.9-12.09,12.27-12.09s12.2,4.82,12.2,12.09-4.9,12.09-12.2,12.09-12.27-4.82-12.27-12.09Zm18.14.22c0-4.21-2.41-6.98-5.9-6.98s-5.9,2.63-5.9,6.55c0,4.21,2.45,6.98,5.98,6.98s5.83-2.66,5.83-6.55Z"/>
      <path class="cls-1" d="m126.54,23.68c-.61.14-1.33.22-2.09.22-2.59,0-4.5-.76-5.9-2.34l-4.86-5.54h-1.12v7.67h-6.3V.5h9.29c5.33,0,8.85,3.09,8.85,7.77,0,2.95-1.55,5.22-4.14,6.41l2.84,3.17c.54.58,1.12.86,2.02.86.43,0,.86-.04,1.22-.07l.18,5.04Zm-13.97-18.18v5.65h3.13c1.58,0,2.66-1.08,2.66-2.66,0-1.8-1.3-2.99-3.24-2.99h-2.56Z"/>
      <path class="cls-1" d="m128.74.5h6.33v23.18h-6.33V.5Z"/>
      <path class="cls-1" d="m160.77,12.13c0,6.95-5.04,11.55-12.56,11.55h-9.47V.5h9.47c7.52,0,12.56,4.64,12.56,11.63Zm-6.33.22c0-4.03-2.74-6.73-6.8-6.73h-2.56v12.96h3.42c3.56,0,5.94-2.48,5.94-6.23Z"/>
      <path class="cls-1" d="m177.58,19.08h-8.57l-1.62,4.61h-6.26L170.17.5h6.48l9.04,23.18h-6.48l-1.62-4.61Zm-1.76-4.97l-2.52-7.05-2.52,7.05h5.04Z"/>
      <path class="cls-1" d="m186.05,20.55c0-2.05,1.62-3.64,3.67-3.64s3.67,1.58,3.67,3.64-1.62,3.64-3.67,3.64-3.67-1.58-3.67-3.64Z"/>
    </g>
  </g>
</svg>