<?xml version="1.0" encoding="UTF-8"?>
<svg id="Layer_2" data-name="Layer 2" xmlns="http://www.w3.org/2000/svg" viewBox="0 0 56.6 33.6">
  <defs>
    <style>
      .cls-1 {
        fill: #d2e203;
        stroke-width: 0px;
      }
    </style>
  </defs>
  <g id="Layer_1-2" data-name="Layer 1">
    <g>
      <path class="cls-1" d="m25.95,22.15c0,6.85-5.2,11.45-13.05,11.45-6.85,0-11.6-3.6-12.9-9.15l7.6-1.7c.85,2.4,2.95,3.95,5.5,3.95s4.25-1.7,4.25-4.25-1.95-4.2-4.9-4.2c-2.2,0-4.7.8-6.35,1.95l-4.7-2.95L3.1.7h21.15v6.6h-14.3l-.55,5.25c1.35-.75,3.05-1.1,5.1-1.1,6.85,0,11.45,4.3,11.45,10.7Z"/>
      <path class="cls-1" d="m28.8,16.8C28.8,6.15,33.9,0,42.7,0s13.9,6.15,13.9,16.8-5.1,16.8-13.9,16.8-13.9-6.15-13.9-16.8Zm19.1.35c0-6.45-2.05-10.25-5.3-10.25s-5.1,3.55-5.1,9.55c0,6.45,2.05,10.25,5.3,10.25s5.1-3.55,5.1-9.55Z"/>
    </g>
  </g>
</svg>